<svg width="56" height="56" viewBox="0 0 56 56" fill="none" xmlns="http://www.w3.org/2000/svg">
<circle cx="28" cy="28" r="28" fill="#04473A"/>
<path d="M16.8636 31.2725L15.9091 30.477C12.7273 27.4543 10.5 25.5452 10.5 23.1588C10.5 21.2497 12.0909 19.6588 14 19.6588C15.1136 19.6588 16.2273 20.1361 16.8636 20.9316C17.5 20.1361 18.6136 19.6588 19.7273 19.6588C21.6364 19.6588 23.2273 21.0906 23.2273 23.1588C23.2273 25.5452 21 27.4543 17.8182 30.477L16.8636 31.2725ZM32.7727 13.7725C31.085 13.7725 29.4664 14.4429 28.273 15.6363C27.0795 16.8297 26.4091 18.4484 26.4091 20.1361C26.4091 21.8238 27.0795 23.4425 28.273 24.6359C29.4664 25.8293 31.085 26.4997 32.7727 26.4997C34.4605 26.4997 36.0791 25.8293 37.2725 24.6359C38.4659 23.4425 39.1364 21.8238 39.1364 20.1361C39.1364 18.4484 38.4659 16.8297 37.2725 15.6363C36.0791 14.4429 34.4605 13.7725 32.7727 13.7725ZM32.7727 23.477C31.8867 23.477 31.0369 23.125 30.4103 22.4985C29.7838 21.8719 29.4318 21.0222 29.4318 20.1361C29.4318 19.25 29.7838 18.4003 30.4103 17.7737C31.0369 17.1472 31.8867 16.7952 32.7727 16.7952C33.2115 16.7952 33.6459 16.8816 34.0512 17.0495C34.4566 17.2174 34.8249 17.4635 35.1351 17.7737C35.4453 18.084 35.6914 18.4522 35.8593 18.8576C36.0272 19.2629 36.1136 19.6974 36.1136 20.1361C36.1136 20.5748 36.0272 21.0093 35.8593 21.4146C35.6914 21.8199 35.4453 22.1882 35.1351 22.4985C34.8249 22.8087 34.4566 23.0548 34.0512 23.2227C33.6459 23.3906 33.2115 23.477 32.7727 23.477ZM32.7727 28.0906C28.525 28.0906 20.0455 30.2066 20.0455 34.4543V39.227H45.5V34.4543C45.5 30.2066 37.0205 28.0906 32.7727 28.0906ZM42.4773 36.2043H23.0682V34.4543C23.0682 33.4361 28 31.1134 32.7727 31.1134C37.4977 31.1134 42.4773 33.4361 42.4773 34.4543V36.2043Z" fill="#FCFFFF"/>
</svg>
