<svg width="57" height="56" viewBox="0 0 57 56" fill="none" xmlns="http://www.w3.org/2000/svg">
<circle cx="28.5" cy="28" r="28" fill="#04473A"/>
<path d="M11 11H14.5V42.5H46V46H11V11Z" fill="#FCFFFF"/>
<path d="M32 32C33.925 32 35.5 33.575 35.5 35.5C35.5 37.425 33.925 39 32 39C30.075 39 28.5 37.425 28.5 35.5C28.5 33.575 30.075 32 32 32ZM32 21.5C33.925 21.5 35.5 23.075 35.5 25C35.5 26.925 33.925 28.5 32 28.5C30.075 28.5 28.5 26.925 28.5 25C28.5 23.075 30.075 21.5 32 21.5ZM32 11C33.925 11 35.5 12.575 35.5 14.5C35.5 16.425 33.925 18 32 18C30.075 18 28.5 16.425 28.5 14.5C28.5 12.575 30.075 11 32 11ZM21.5 32C23.425 32 25 33.575 25 35.5C25 37.425 23.425 39 21.5 39C19.575 39 18 37.425 18 35.5C18 33.575 19.575 32 21.5 32ZM21.5 21.5C23.425 21.5 25 23.075 25 25C25 26.925 23.425 28.5 21.5 28.5C19.575 28.5 18 26.925 18 25C18 23.075 19.575 21.5 21.5 21.5ZM21.5 11C23.425 11 25 12.575 25 14.5C25 16.425 23.425 18 21.5 18C19.575 18 18 16.425 18 14.5C18 12.575 19.575 11 21.5 11ZM42.5 32C44.425 32 46 33.575 46 35.5C46 37.425 44.425 39 42.5 39C40.575 39 39 37.425 39 35.5C39 33.575 40.575 32 42.5 32ZM42.5 21.5C44.425 21.5 46 23.075 46 25C46 26.925 44.425 28.5 42.5 28.5C40.575 28.5 39 26.925 39 25C39 23.075 40.575 21.5 42.5 21.5ZM42.5 11C44.425 11 46 12.575 46 14.5C46 16.425 44.425 18 42.5 18C40.575 18 39 16.425 39 14.5C39 12.575 40.575 11 42.5 11Z" fill="#FCFFFF"/>
</svg>
