<svg width="57" height="56" viewBox="0 0 57 56" fill="none" xmlns="http://www.w3.org/2000/svg">
<circle cx="28.5" cy="28" r="28" fill="#04473A"/>
<path d="M33.75 11C37.145 11 40.0325 12.225 42.4125 14.5875C44.775 16.9675 46 19.855 46 23.25C46 25.98 45.125 28.43 43.515 30.6C41.87 32.7525 39.77 34.2225 37.1975 34.975L37.25 34.415V33.75C37.25 29.9175 35.9025 26.6275 33.1375 23.8625C30.3725 21.0975 27.0825 19.75 23.25 19.75H22.6025L22.025 19.8025C22.7775 17.23 24.2475 15.13 26.4 13.485C28.57 11.875 31.02 11 33.75 11ZM23.25 21.5C26.4989 21.5 29.6147 22.7906 31.9121 25.0879C34.2094 27.3853 35.5 30.5011 35.5 33.75C35.5 36.9989 34.2094 40.1147 31.9121 42.4121C29.6147 44.7094 26.4989 46 23.25 46C20.0011 46 16.8853 44.7094 14.5879 42.4121C12.2906 40.1147 11 36.9989 11 33.75C11 30.5011 12.2906 27.3853 14.5879 25.0879C16.8853 22.7906 20.0011 21.5 23.25 21.5ZM23.25 25C20.9294 25 18.7038 25.9219 17.0628 27.5628C15.4219 29.2038 14.5 31.4294 14.5 33.75C14.5 36.0706 15.4219 38.2962 17.0628 39.9372C18.7038 41.5781 20.9294 42.5 23.25 42.5C24.3991 42.5 25.5369 42.2737 26.5985 41.8339C27.6601 41.3942 28.6247 40.7497 29.4372 39.9372C30.2497 39.1247 30.8942 38.1601 31.3339 37.0985C31.7737 36.0369 32 34.8991 32 33.75C32 32.6009 31.7737 31.4631 31.3339 30.4015C30.8942 29.3399 30.2497 28.3753 29.4372 27.5628C28.6247 26.7503 27.6601 26.1058 26.5985 25.6661C25.5369 25.2263 24.3991 25 23.25 25Z" fill="#FCFFFF"/>
</svg>
