<svg width="57" height="56" viewBox="0 0 57 56" fill="none" xmlns="http://www.w3.org/2000/svg">
<circle cx="28.5" cy="28" r="28" fill="#04473A"/>
<path d="M28.25 16.626C26.8963 16.626 25.598 17.1637 24.6408 18.121C23.6836 19.0782 23.1458 20.3764 23.1458 21.7301C23.1458 23.0839 23.6836 24.3821 24.6408 25.3393C25.598 26.2965 26.8963 26.8343 28.25 26.8343C29.6037 26.8343 30.902 26.2965 31.8592 25.3393C32.8164 24.3821 33.3542 23.0839 33.3542 21.7301C33.3542 20.3764 32.8164 19.0782 31.8592 18.121C30.902 17.1637 29.6037 16.626 28.25 16.626ZM28.25 19.5426C28.8302 19.5426 29.3866 19.7731 29.7968 20.1833C30.207 20.5936 30.4375 21.15 30.4375 21.7301C30.4375 22.3103 30.207 22.8667 29.7968 23.2769C29.3866 23.6872 28.8302 23.9176 28.25 23.9176C27.6698 23.9176 27.1134 23.6872 26.7032 23.2769C26.293 22.8667 26.0625 22.3103 26.0625 21.7301C26.0625 21.15 26.293 20.5936 26.7032 20.1833C27.1134 19.7731 27.6698 19.5426 28.25 19.5426ZM18.7708 21.001C17.8039 21.001 16.8766 21.3851 16.1928 22.0688C15.5091 22.7525 15.125 23.6799 15.125 24.6468C15.125 26.0176 15.8979 27.1989 17.0062 27.826C17.5312 28.1176 18.1292 28.2926 18.7708 28.2926C19.4125 28.2926 20.0104 28.1176 20.5354 27.826C21.075 27.5197 21.5271 27.0822 21.8625 26.5572C20.8001 25.1726 20.2258 23.4754 20.2292 21.7301V21.3218C19.7917 21.1176 19.2958 21.001 18.7708 21.001ZM37.7292 21.001C37.2042 21.001 36.7083 21.1176 36.2708 21.3218V21.7301C36.2708 23.4801 35.7021 25.1718 34.6375 26.5572C34.8125 26.8343 35.0021 27.0531 35.2208 27.2718C35.8934 27.9238 36.7925 28.2897 37.7292 28.2926C38.3708 28.2926 38.9688 28.1176 39.4937 27.826C40.6021 27.1989 41.375 26.0176 41.375 24.6468C41.375 23.6799 40.9909 22.7525 40.3072 22.0688C39.6234 21.3851 38.6961 21.001 37.7292 21.001ZM28.25 29.751C24.8375 29.751 18.0417 31.4572 18.0417 34.8551V37.0426H38.4583V34.8551C38.4583 31.4572 31.6625 29.751 28.25 29.751ZM17.6188 30.5531C14.8042 30.8885 10.75 32.3176 10.75 34.8551V37.0426H15.125V34.2281C15.125 32.7551 16.1313 31.5301 17.6188 30.5531ZM38.8813 30.5531C40.3688 31.5301 41.375 32.7551 41.375 34.2281V37.0426H45.75V34.8551C45.75 32.3176 41.6958 30.8885 38.8813 30.5531ZM28.25 32.6676C30.4813 32.6676 32.975 33.3968 34.4188 34.126H22.0813C23.525 33.3968 26.0188 32.6676 28.25 32.6676Z" fill="#FCFFFF"/>
</svg>
