<svg width="57" height="56" viewBox="0 0 57 56" fill="none" xmlns="http://www.w3.org/2000/svg">
<circle cx="28.5" cy="28" r="28" fill="#CFBD63"/>
<path d="M17.3636 31.2725L16.4091 30.477C13.2273 27.4543 11 25.5452 11 23.1588C11 21.2497 12.5909 19.6588 14.5 19.6588C15.6136 19.6588 16.7273 20.1361 17.3636 20.9316C18 20.1361 19.1136 19.6588 20.2273 19.6588C22.1364 19.6588 23.7273 21.0906 23.7273 23.1588C23.7273 25.5452 21.5 27.4543 18.3182 30.477L17.3636 31.2725ZM33.2727 13.7725C31.585 13.7725 29.9664 14.4429 28.773 15.6363C27.5795 16.8297 26.9091 18.4484 26.9091 20.1361C26.9091 21.8238 27.5795 23.4425 28.773 24.6359C29.9664 25.8293 31.585 26.4997 33.2727 26.4997C34.9605 26.4997 36.5791 25.8293 37.7725 24.6359C38.9659 23.4425 39.6364 21.8238 39.6364 20.1361C39.6364 18.4484 38.9659 16.8297 37.7725 15.6363C36.5791 14.4429 34.9605 13.7725 33.2727 13.7725ZM33.2727 23.477C32.3867 23.477 31.5369 23.125 30.9103 22.4985C30.2838 21.8719 29.9318 21.0222 29.9318 20.1361C29.9318 19.25 30.2838 18.4003 30.9103 17.7737C31.5369 17.1472 32.3867 16.7952 33.2727 16.7952C33.7115 16.7952 34.1459 16.8816 34.5512 17.0495C34.9566 17.2174 35.3249 17.4635 35.6351 17.7737C35.9453 18.084 36.1914 18.4522 36.3593 18.8576C36.5272 19.2629 36.6136 19.6974 36.6136 20.1361C36.6136 20.5748 36.5272 21.0093 36.3593 21.4146C36.1914 21.8199 35.9453 22.1882 35.6351 22.4985C35.3249 22.8087 34.9566 23.0548 34.5512 23.2227C34.1459 23.3906 33.7115 23.477 33.2727 23.477ZM33.2727 28.0906C29.025 28.0906 20.5455 30.2066 20.5455 34.4543V39.227H46V34.4543C46 30.2066 37.5205 28.0906 33.2727 28.0906ZM42.9773 36.2043H23.5682V34.4543C23.5682 33.4361 28.5 31.1134 33.2727 31.1134C37.9977 31.1134 42.9773 33.4361 42.9773 34.4543V36.2043Z" fill="#FCFFFF"/>
</svg>
