<svg width="56" height="56" viewBox="0 0 56 56" fill="none" xmlns="http://www.w3.org/2000/svg">
<circle cx="28" cy="28" r="28" fill="#CFBD63"/>
<path d="M27.75 16.626C26.3963 16.626 25.098 17.1637 24.1408 18.121C23.1836 19.0782 22.6458 20.3764 22.6458 21.7301C22.6458 23.0839 23.1836 24.3821 24.1408 25.3393C25.098 26.2965 26.3963 26.8343 27.75 26.8343C29.1037 26.8343 30.402 26.2965 31.3592 25.3393C32.3164 24.3821 32.8542 23.0839 32.8542 21.7301C32.8542 20.3764 32.3164 19.0782 31.3592 18.121C30.402 17.1637 29.1037 16.626 27.75 16.626ZM27.75 19.5426C28.3302 19.5426 28.8866 19.7731 29.2968 20.1833C29.707 20.5936 29.9375 21.15 29.9375 21.7301C29.9375 22.3103 29.707 22.8667 29.2968 23.2769C28.8866 23.6872 28.3302 23.9176 27.75 23.9176C27.1698 23.9176 26.6134 23.6872 26.2032 23.2769C25.793 22.8667 25.5625 22.3103 25.5625 21.7301C25.5625 21.15 25.793 20.5936 26.2032 20.1833C26.6134 19.7731 27.1698 19.5426 27.75 19.5426ZM18.2708 21.001C17.3039 21.001 16.3766 21.3851 15.6928 22.0688C15.0091 22.7525 14.625 23.6799 14.625 24.6468C14.625 26.0176 15.3979 27.1989 16.5062 27.826C17.0312 28.1176 17.6292 28.2926 18.2708 28.2926C18.9125 28.2926 19.5104 28.1176 20.0354 27.826C20.575 27.5197 21.0271 27.0822 21.3625 26.5572C20.3001 25.1726 19.7258 23.4754 19.7292 21.7301V21.3218C19.2917 21.1176 18.7958 21.001 18.2708 21.001ZM37.2292 21.001C36.7042 21.001 36.2083 21.1176 35.7708 21.3218V21.7301C35.7708 23.4801 35.2021 25.1718 34.1375 26.5572C34.3125 26.8343 34.5021 27.0531 34.7208 27.2718C35.3934 27.9238 36.2925 28.2897 37.2292 28.2926C37.8708 28.2926 38.4688 28.1176 38.9937 27.826C40.1021 27.1989 40.875 26.0176 40.875 24.6468C40.875 23.6799 40.4909 22.7525 39.8072 22.0688C39.1234 21.3851 38.1961 21.001 37.2292 21.001ZM27.75 29.751C24.3375 29.751 17.5417 31.4572 17.5417 34.8551V37.0426H37.9583V34.8551C37.9583 31.4572 31.1625 29.751 27.75 29.751ZM17.1188 30.5531C14.3042 30.8885 10.25 32.3176 10.25 34.8551V37.0426H14.625V34.2281C14.625 32.7551 15.6313 31.5301 17.1188 30.5531ZM38.3813 30.5531C39.8688 31.5301 40.875 32.7551 40.875 34.2281V37.0426H45.25V34.8551C45.25 32.3176 41.1958 30.8885 38.3813 30.5531ZM27.75 32.6676C29.9813 32.6676 32.475 33.3968 33.9188 34.126H21.5813C23.025 33.3968 25.5188 32.6676 27.75 32.6676Z" fill="#FCFFFF"/>
</svg>
