<svg width="16" height="16" viewBox="0 0 16 16" fill="none" xmlns="http://www.w3.org/2000/svg">
<path d="M13.457 15.743V14.743H12.457V15.743H13.457ZM6.45703 3.743C5.6691 3.743 4.88888 3.8982 4.16093 4.19972C3.43298 4.50125 2.77154 4.94321 2.21439 5.50036C1.65724 6.05751 1.21528 6.71895 0.913754 7.4469C0.612226 8.17485 0.457031 8.95507 0.457031 9.743C0.457031 10.5309 0.612226 11.3111 0.913754 12.0391C1.21528 12.7671 1.65724 13.4285 2.21439 13.9856C2.77154 14.5428 3.43298 14.9847 4.16093 15.2863C4.88888 15.5878 5.6691 15.743 6.45703 15.743H10.457V14.743H6.45703C5.13095 14.743 3.85918 14.2162 2.9215 13.2785C1.98382 12.3409 1.45703 11.0691 1.45703 9.743C1.45703 8.41692 1.98382 7.14515 2.9215 6.20747C3.85918 5.26978 5.13095 4.743 6.45703 4.743H13.543L10.507 7.779L11.214 8.486L15.457 4.243L11.214 0L10.507 0.707L13.543 3.743H6.45703Z" fill="#09262A"/>
</svg>
