<svg width="15" height="14" viewBox="0 0 15 14" fill="none" xmlns="http://www.w3.org/2000/svg">
<path d="M11.7094 14L9.58611 10.3133C9.58611 8.96778 8.75389 8.10444 7.74278 8.10444C7.04278 8.10444 6.43611 8.49333 6.125 9.06889C6.38167 8.92111 6.685 8.84333 7.00389 8.84333C8.015 8.84333 8.83944 9.66778 8.83944 10.6789C8.83944 11.6978 8.02278 12.53 7.00389 12.53H9.57056V14H2.95167C2.765 14 2.57056 13.93 2.43056 13.7822C2.29244 13.644 2.21486 13.4565 2.21486 13.2611C2.21486 13.0657 2.29244 12.8783 2.43056 12.74L2.81944 12.3511C2.555 12.2344 2.33722 12.0556 2.11944 11.8689C1.94833 12.2578 1.55944 12.53 1.10833 12.53C0.814385 12.53 0.532476 12.4132 0.324623 12.2054C0.116771 11.9975 0 11.7156 0 11.4217C0 11.1277 0.116771 10.8458 0.324623 10.638C0.532476 10.4301 0.814385 10.3133 1.10833 10.3133L1.47389 10.3756V8.84333C1.47286 8.35891 1.56752 7.87905 1.75243 7.4313C1.93734 6.98355 2.20886 6.57672 2.5514 6.23418C2.89395 5.89164 3.30077 5.62012 3.74852 5.43521C4.19627 5.2503 4.67613 5.15564 5.16056 5.15667H5.17611C6.825 5.16444 8.10833 5.81 8.10833 4.79111C8.10833 4.06778 8.26389 3.78 8.52833 3.37556C7.96056 3.11111 7.315 2.94778 6.63833 2.94778C6.22611 2.94778 5.89944 2.62111 5.89944 2.20889C5.89944 1.87444 6.11722 1.59444 6.42056 1.50111L5.89944 1.47C5.495 1.47 5.16056 1.14333 5.16056 0.738889C5.16056 0.326667 5.495 0 5.89944 0H6.63833C8.27167 0 9.70278 0.894444 10.4728 2.21667L10.6906 2.20889C11.2428 2.20889 11.7561 2.38778 12.1761 2.68333L12.5261 2.97889C14.2139 4.49556 14.0039 5.52222 14.0039 5.53C14.0039 6.52556 13.1794 7.34222 12.1761 7.34222L11.795 7.30333V7.36556C11.795 8.22889 11.4217 8.99889 10.8383 9.54333L13.4128 14H11.7094ZM11.795 3.68667C11.3828 3.68667 11.0561 4.01333 11.0561 4.41778C11.0561 4.83 11.3828 5.15667 11.795 5.15667C12.1994 5.15667 12.5339 4.83 12.5339 4.41778C12.5339 4.01333 12.1994 3.68667 11.795 3.68667Z" fill="#101414"/>
</svg>
