<?xml version="1.0" encoding="utf-8"?>
<!-- Generator: Adobe Illustrator 25.4.1, SVG Export Plug-In . SVG Version: 6.00 Build 0)  -->
<svg version="1.1" id="Layer_1" xmlns="http://www.w3.org/2000/svg" xmlns:xlink="http://www.w3.org/1999/xlink" x="0px" y="0px"
	 viewBox="0 0 200 200" style="enable-background:new 0 0 200 200;" xml:space="preserve">
<style type="text/css">
	.st0{opacity:0.1;fill:#231F20;enable-background:new    ;}
</style>
<g>
	<polygon class="st0" points="0,8.7 8.7,0 7.3,0 0,7.3 	"/>
	<polygon class="st0" points="0,16.7 16.7,0 15.3,0 0,15.3 	"/>
	<polygon class="st0" points="0,24.7 24.7,0 23.3,0 0,23.3 	"/>
	<polygon class="st0" points="0,32.7 32.7,0 31.3,0 0,31.3 	"/>
	<polygon class="st0" points="0,40.7 40.7,0 39.3,0 0,39.3 	"/>
	<polygon class="st0" points="0,48.7 48.7,0 47.3,0 0,47.3 	"/>
	<polygon class="st0" points="0,56.7 56.7,0 55.3,0 0,55.3 	"/>
	<polygon class="st0" points="0,64.7 64.7,0 63.3,0 0,63.3 	"/>
	<polygon class="st0" points="0,72.7 72.7,0 71.3,0 0,71.3 	"/>
	<polygon class="st0" points="0,80.7 80.7,0 79.3,0 0,79.3 	"/>
	<polygon class="st0" points="0,88.7 88.7,0 87.3,0 0,87.3 	"/>
	<polygon class="st0" points="0,96.7 96.7,0 95.3,0 0,95.3 	"/>
	<polygon class="st0" points="0,104.7 104.7,0 103.3,0 0,103.3 	"/>
	<polygon class="st0" points="0,112.7 112.7,0 111.3,0 0,111.3 	"/>
	<polygon class="st0" points="0,120.7 120.7,0 119.3,0 0,119.3 	"/>
	<polygon class="st0" points="0,128.7 128.7,0 127.3,0 0,127.3 	"/>
	<polygon class="st0" points="0,136.7 136.7,0 135.3,0 0,135.3 	"/>
	<polygon class="st0" points="0,144.7 144.7,0 143.3,0 0,143.3 	"/>
	<polygon class="st0" points="0,152.7 152.7,0 151.3,0 0,151.3 	"/>
	<polygon class="st0" points="0,160.7 160.7,0 159.3,0 0,159.3 	"/>
	<polygon class="st0" points="0,168.7 168.7,0 167.3,0 0,167.3 	"/>
	<polygon class="st0" points="0,176.7 176.7,0 175.3,0 0,175.3 	"/>
	<polygon class="st0" points="0,184.7 184.7,0 183.3,0 0,183.3 	"/>
	<polygon class="st0" points="0,192.7 192.7,0 191.3,0 0,191.3 	"/>
	<polygon class="st0" points="0,200 0.7,200 200,0.7 200,0 199.3,0 0,199.3 	"/>
	<polygon class="st0" points="8.7,200 200,8.7 200,7.3 7.3,200 	"/>
	<polygon class="st0" points="16.7,200 200,16.7 200,15.3 15.3,200 	"/>
	<polygon class="st0" points="24.7,200 200,24.7 200,23.3 23.3,200 	"/>
	<polygon class="st0" points="32.7,200 200,32.7 200,31.3 31.3,200 	"/>
	<polygon class="st0" points="40.7,200 200,40.7 200,39.3 39.3,200 	"/>
	<polygon class="st0" points="48.7,200 200,48.7 200,47.3 47.3,200 	"/>
	<polygon class="st0" points="56.7,200 200,56.7 200,55.3 55.3,200 	"/>
	<polygon class="st0" points="64.7,200 200,64.7 200,63.3 63.3,200 	"/>
	<polygon class="st0" points="72.7,200 200,72.7 200,71.3 71.3,200 	"/>
	<polygon class="st0" points="80.7,200 200,80.7 200,79.3 79.3,200 	"/>
	<polygon class="st0" points="88.7,200 200,88.7 200,87.3 87.3,200 	"/>
	<polygon class="st0" points="96.7,200 200,96.7 200,95.3 95.3,200 	"/>
	<polygon class="st0" points="104.7,200 200,104.7 200,103.3 103.3,200 	"/>
	<polygon class="st0" points="112.7,200 200,112.7 200,111.3 111.3,200 	"/>
	<polygon class="st0" points="120.7,200 200,120.7 200,119.3 119.3,200 	"/>
	<polygon class="st0" points="128.7,200 200,128.7 200,127.3 127.3,200 	"/>
	<polygon class="st0" points="136.7,200 200,136.7 200,135.3 135.3,200 	"/>
	<polygon class="st0" points="144.7,200 200,144.7 200,143.3 143.3,200 	"/>
	<polygon class="st0" points="152.7,200 200,152.7 200,151.3 151.3,200 	"/>
	<polygon class="st0" points="160.7,200 200,160.7 200,159.3 159.3,200 	"/>
	<polygon class="st0" points="168.7,200 200,168.7 200,167.3 167.3,200 	"/>
	<polygon class="st0" points="176.7,200 200,176.7 200,175.3 175.3,200 	"/>
	<polygon class="st0" points="184.7,200 200,184.7 200,183.3 183.3,200 	"/>
	<polygon class="st0" points="192.7,200 200,192.7 200,191.3 191.3,200 	"/>
</g>
</svg>
