<svg xmlns="http://www.w3.org/2000/svg" xmlns:xlink="http://www.w3.org/1999/xlink" viewBox="0 0 1031.68 639.68"><defs><style>.cls-1,.cls-3{fill:none;}.cls-2{clip-path:url(#clip-path);}.cls-3{stroke:#231f20;stroke-miterlimit:10;opacity:0.04;}</style><clipPath id="clip-path" transform="translate(317.07 314.62)"><rect class="cls-1" width="200" height="200"/></clipPath></defs><g id="Layer_2" data-name="Layer 2"><g id="Layer_1-2" data-name="Layer 1"><g class="cls-2"><line class="cls-3" x1="392.35" y1="639.33" x2="1031.33" y2="0.35"/><line class="cls-3" x1="0.35" y1="639.33" x2="639.33" y2="0.35"/><line class="cls-3" x1="8.35" y1="639.33" x2="647.33" y2="0.35"/><line class="cls-3" x1="16.35" y1="639.33" x2="655.33" y2="0.35"/><line class="cls-3" x1="24.35" y1="639.33" x2="663.33" y2="0.35"/><line class="cls-3" x1="32.35" y1="639.33" x2="671.33" y2="0.35"/><line class="cls-3" x1="40.35" y1="639.33" x2="679.33" y2="0.35"/><line class="cls-3" x1="48.35" y1="639.33" x2="687.33" y2="0.35"/><line class="cls-3" x1="56.35" y1="639.33" x2="695.33" y2="0.35"/><line class="cls-3" x1="64.35" y1="639.33" x2="703.33" y2="0.35"/><line class="cls-3" x1="72.35" y1="639.33" x2="711.33" y2="0.35"/><line class="cls-3" x1="80.35" y1="639.33" x2="719.33" y2="0.35"/><line class="cls-3" x1="88.35" y1="639.33" x2="727.33" y2="0.35"/><line class="cls-3" x1="96.35" y1="639.33" x2="735.33" y2="0.35"/><line class="cls-3" x1="104.35" y1="639.33" x2="743.33" y2="0.35"/><line class="cls-3" x1="112.35" y1="639.33" x2="751.33" y2="0.35"/><line class="cls-3" x1="120.35" y1="639.33" x2="759.33" y2="0.35"/><line class="cls-3" x1="128.35" y1="639.33" x2="767.33" y2="0.35"/><line class="cls-3" x1="136.35" y1="639.33" x2="775.33" y2="0.35"/><line class="cls-3" x1="144.35" y1="639.33" x2="783.33" y2="0.35"/><line class="cls-3" x1="152.35" y1="639.33" x2="791.33" y2="0.35"/><line class="cls-3" x1="160.35" y1="639.33" x2="799.33" y2="0.35"/><line class="cls-3" x1="168.35" y1="639.33" x2="807.33" y2="0.35"/><line class="cls-3" x1="176.35" y1="639.33" x2="815.33" y2="0.35"/><line class="cls-3" x1="184.35" y1="639.33" x2="823.33" y2="0.35"/><line class="cls-3" x1="192.35" y1="639.33" x2="831.33" y2="0.35"/><line class="cls-3" x1="200.35" y1="639.33" x2="839.33" y2="0.35"/><line class="cls-3" x1="208.35" y1="639.33" x2="847.33" y2="0.35"/><line class="cls-3" x1="216.35" y1="639.33" x2="855.33" y2="0.35"/><line class="cls-3" x1="224.35" y1="639.33" x2="863.33" y2="0.35"/><line class="cls-3" x1="232.35" y1="639.33" x2="871.33" y2="0.35"/><line class="cls-3" x1="240.35" y1="639.33" x2="879.33" y2="0.35"/><line class="cls-3" x1="248.35" y1="639.33" x2="887.33" y2="0.35"/><line class="cls-3" x1="256.35" y1="639.33" x2="895.33" y2="0.35"/><line class="cls-3" x1="264.35" y1="639.33" x2="903.33" y2="0.35"/><line class="cls-3" x1="272.35" y1="639.33" x2="911.33" y2="0.35"/><line class="cls-3" x1="280.35" y1="639.33" x2="919.33" y2="0.35"/><line class="cls-3" x1="288.35" y1="639.33" x2="927.33" y2="0.35"/><line class="cls-3" x1="296.35" y1="639.33" x2="935.33" y2="0.35"/><line class="cls-3" x1="304.35" y1="639.33" x2="943.33" y2="0.35"/><line class="cls-3" x1="312.35" y1="639.33" x2="951.33" y2="0.35"/><line class="cls-3" x1="320.35" y1="639.33" x2="959.33" y2="0.35"/><line class="cls-3" x1="328.35" y1="639.33" x2="967.33" y2="0.35"/><line class="cls-3" x1="336.35" y1="639.33" x2="975.33" y2="0.35"/><line class="cls-3" x1="344.35" y1="639.33" x2="983.33" y2="0.35"/><line class="cls-3" x1="352.35" y1="639.33" x2="991.33" y2="0.35"/><line class="cls-3" x1="360.35" y1="639.33" x2="999.33" y2="0.35"/><line class="cls-3" x1="368.35" y1="639.33" x2="1007.33" y2="0.35"/><line class="cls-3" x1="376.35" y1="639.33" x2="1015.33" y2="0.35"/><line class="cls-3" x1="384.35" y1="639.33" x2="1023.33" y2="0.35"/></g></g></g></svg>