<svg width="1159" height="564" viewBox="0 0 1159 564" fill="#959595" xmlns="http://www.w3.org/2000/svg">
<path d="M729.215 318.508C703.552 319.216 677.878 317.72 652.225 318.544C664.892 313.117 678.182 309.025 690.284 302.386C690.504 302.266 690.351 301.882 690.111 301.975C677.711 306.784 665.096 311.123 652.794 316.191C667.38 300.608 683.658 286.588 697.072 269.944C697.249 269.724 696.959 269.413 696.754 269.627C682.159 284.844 666.471 298.986 651.935 314.253C656.853 301.891 661.025 289.218 665.674 276.759C665.764 276.518 665.381 276.364 665.263 276.586C658.751 288.825 654.825 302.228 649.524 315.013C648.535 289.423 650.552 263.73 647.959 238.216C647.931 237.934 647.502 237.922 647.51 238.216C648.22 263.965 646.711 289.725 647.554 315.464C642.77 302.363 637.099 289.575 631.967 276.612C631.862 276.348 631.462 276.444 631.533 276.731C634.845 289.964 640.768 302.362 645.372 315.183C630.592 299.559 614.566 285.152 599.677 269.628C599.472 269.414 599.182 269.725 599.359 269.945C612.679 286.472 628.821 300.412 643.329 315.865C631.311 311.133 619.016 307.067 606.922 302.553C606.682 302.464 606.526 302.845 606.749 302.964C618.882 309.42 632.158 313.334 644.844 318.566C618.979 317.697 593.091 319.222 567.216 318.508C566.921 318.5 566.934 318.928 567.216 318.957C592.025 321.479 617.002 319.644 641.891 320.449C629.704 325.019 617.762 330.282 605.666 335.071C605.402 335.175 605.498 335.576 605.785 335.505C619.214 332.144 631.782 326.093 644.807 321.461C628.998 336.365 614.457 352.565 598.775 367.607C598.562 367.812 598.873 368.102 599.093 367.924C616.239 354.104 630.602 337.246 646.758 322.328C642.294 335.399 636.411 348.036 633.224 361.497C633.157 361.784 633.556 361.883 633.658 361.616C638.171 349.783 643.129 338.087 647.462 326.179C646.835 350.849 648.191 375.537 647.511 400.215C647.503 400.509 647.932 400.497 647.96 400.215C650.485 375.373 648.64 350.363 649.453 325.442C654.42 337.418 658.41 349.849 664.652 361.229C664.773 361.449 665.156 361.296 665.063 361.056C660.184 348.474 655.784 335.674 650.621 323.201C666.394 337.9 680.526 354.375 697.338 367.925C697.559 368.103 697.869 367.812 697.656 367.608C681.818 352.417 667.143 336.043 651.153 321.017C664.703 325.529 677.742 331.709 691.662 335.007C691.948 335.075 692.048 334.675 691.781 334.573C679.637 329.94 667.64 324.836 655.408 320.425C680.011 319.689 704.696 321.451 729.217 318.958C729.498 318.929 729.51 318.5 729.215 318.508Z" />
<path d="M628.421 266.737C627.855 266.732 628.666 266.781 628.648 266.779C628.705 266.784 628.877 266.767 628.98 266.755C629.525 266.683 629.827 266.383 629.895 265.836C629.961 265.298 629.77 264.797 629.379 264.42C628.751 263.813 627.696 263.93 627.248 264.695C626.724 265.589 627.395 266.728 628.421 266.737Z" />
<path d="M628.981 266.755C628.979 266.755 628.977 266.756 628.975 266.756C629.104 266.74 629.067 266.746 628.981 266.755Z" />
<path d="M597.319 299.572C599.202 299.572 599.202 296.652 597.319 296.652C595.436 296.652 595.436 299.572 597.319 299.572Z" />
<path d="M598.108 338.618C597.88 338.573 597.654 338.539 597.422 338.547C596.644 338.575 595.878 339.36 596.179 340.178C596.282 340.291 596.309 340.413 596.26 340.545C596.238 340.68 596.237 340.804 596.248 340.94C596.288 341.409 596.977 341.572 597.119 341.086C597.521 341.212 598.057 341.053 598.333 340.748C598.437 340.645 598.452 340.623 598.377 340.684C599.116 340.177 599.144 338.825 598.108 338.618Z" />
<path d="M628.353 371.719C628.271 371.726 628.19 371.726 628.108 371.722C628.048 371.714 627.961 371.702 627.821 371.685C627.657 371.701 627.493 371.722 627.329 371.747C627.3 371.756 626.873 371.829 627.156 371.803C626.405 371.874 625.771 372.38 625.771 373.188C625.771 374.126 626.651 374.713 627.525 374.524C627.987 374.424 628.399 374.241 628.745 373.913C629.102 373.573 629.171 373.056 629.229 372.596C629.287 372.136 628.787 371.698 628.353 371.719Z" />
<path d="M669.941 369.07C667.797 369.07 667.797 372.394 669.941 372.394C672.085 372.395 672.085 369.07 669.941 369.07Z" />
<path d="M700.977 335.528C700.834 335.418 700.692 335.308 700.549 335.198C699.539 334.42 698.115 335.488 698.115 336.594C698.115 337.701 699.539 338.769 700.549 337.99C700.692 337.88 700.834 337.77 700.977 337.66C701.761 337.056 701.761 336.133 700.977 335.528Z" />
<path d="M699.662 298.492C699.817 298.39 699.955 298.262 700.102 298.069C700.32 297.784 700.322 297.197 700.102 296.913C699.612 296.278 698.686 295.933 697.928 296.377C697.296 296.747 697.137 297.437 697.211 298.112C697.377 299.616 699.198 299.729 699.662 298.492Z" />
<path d="M669.94 267.363C671.91 267.363 671.91 264.308 669.94 264.308C667.97 264.309 667.97 267.363 669.94 267.363Z" />
<path d="M764.215 123.508C738.552 124.216 712.878 122.72 687.225 123.544C699.892 118.117 713.182 114.025 725.284 107.386C725.504 107.266 725.351 106.882 725.111 106.975C712.711 111.784 700.096 116.123 687.794 121.191C702.38 105.608 718.658 91.588 732.072 74.944C732.249 74.724 731.959 74.413 731.754 74.627C717.159 89.844 701.471 103.986 686.935 119.253C691.853 106.891 696.025 94.218 700.674 81.759C700.764 81.518 700.381 81.364 700.263 81.586C693.751 93.825 689.825 107.228 684.524 120.013C683.535 94.423 685.552 68.73 682.959 43.216C682.931 42.934 682.502 42.922 682.51 43.216C683.22 68.965 681.711 94.725 682.554 120.464C677.77 107.363 672.099 94.575 666.967 81.612C666.862 81.348 666.462 81.444 666.533 81.731C669.845 94.964 675.768 107.362 680.372 120.183C665.592 104.559 649.566 90.152 634.677 74.628C634.472 74.414 634.182 74.725 634.359 74.945C647.679 91.472 663.821 105.412 678.329 120.865C666.311 116.133 654.016 112.067 641.922 107.553C641.682 107.464 641.526 107.845 641.749 107.964C653.882 114.42 667.158 118.334 679.844 123.566C653.979 122.697 628.091 124.222 602.216 123.508C601.921 123.5 601.934 123.928 602.216 123.957C627.025 126.479 652.002 124.644 676.891 125.449C664.704 130.019 652.762 135.282 640.666 140.071C640.402 140.175 640.498 140.576 640.785 140.505C654.214 137.144 666.782 131.093 679.807 126.461C663.998 141.365 649.457 157.565 633.775 172.607C633.562 172.812 633.873 173.102 634.093 172.924C651.239 159.104 665.602 142.246 681.758 127.328C677.294 140.399 671.411 153.036 668.224 166.497C668.157 166.784 668.556 166.883 668.658 166.616C673.171 154.783 678.129 143.087 682.462 131.179C681.835 155.849 683.191 180.537 682.511 205.215C682.503 205.509 682.932 205.497 682.96 205.215C685.485 180.373 683.64 155.363 684.453 130.442C689.42 142.418 693.41 154.849 699.652 166.229C699.773 166.449 700.156 166.296 700.063 166.056C695.184 153.474 690.784 140.674 685.621 128.201C701.394 142.9 715.526 159.375 732.338 172.925C732.559 173.103 732.869 172.812 732.656 172.608C716.818 157.417 702.143 141.043 686.153 126.017C699.703 130.529 712.742 136.709 726.662 140.007C726.948 140.075 727.048 139.675 726.781 139.573C714.637 134.94 702.64 129.836 690.408 125.425C715.011 124.689 739.696 126.451 764.217 123.958C764.498 123.929 764.51 123.5 764.215 123.508Z" />
<path d="M663.421 71.7367C662.855 71.7317 663.666 71.7807 663.648 71.7787C663.705 71.7837 663.877 71.7667 663.98 71.7547C664.525 71.6827 664.827 71.3827 664.895 70.8357C664.961 70.2977 664.77 69.7967 664.379 69.4197C663.751 68.8127 662.696 68.9297 662.248 69.6947C661.724 70.5887 662.395 71.7277 663.421 71.7367Z" />
<path d="M663.981 71.7551C663.979 71.7551 663.977 71.7561 663.975 71.7561C664.104 71.7401 664.067 71.7461 663.981 71.7551Z" />
<path d="M632.319 104.572C634.202 104.572 634.202 101.652 632.319 101.652C630.436 101.652 630.436 104.572 632.319 104.572Z" />
<path d="M633.108 143.618C632.88 143.573 632.654 143.539 632.422 143.547C631.644 143.575 630.878 144.36 631.179 145.178C631.282 145.291 631.309 145.413 631.26 145.545C631.238 145.68 631.237 145.804 631.248 145.94C631.288 146.409 631.977 146.572 632.119 146.086C632.521 146.212 633.057 146.053 633.333 145.748C633.437 145.645 633.452 145.623 633.377 145.684C634.116 145.177 634.144 143.825 633.108 143.618Z" />
<path d="M663.353 176.719C663.271 176.726 663.19 176.726 663.108 176.722C663.048 176.714 662.961 176.702 662.821 176.685C662.657 176.701 662.493 176.722 662.329 176.747C662.3 176.756 661.873 176.829 662.156 176.803C661.405 176.874 660.771 177.38 660.771 178.188C660.771 179.126 661.651 179.713 662.525 179.524C662.987 179.424 663.399 179.241 663.745 178.913C664.102 178.573 664.171 178.056 664.229 177.596C664.287 177.136 663.787 176.698 663.353 176.719Z" />
<path d="M704.941 174.07C702.797 174.07 702.797 177.394 704.941 177.394C707.085 177.395 707.085 174.07 704.941 174.07Z" />
<path d="M735.977 140.528C735.834 140.418 735.692 140.308 735.549 140.198C734.539 139.42 733.115 140.488 733.115 141.594C733.115 142.701 734.539 143.769 735.549 142.99C735.692 142.88 735.834 142.77 735.977 142.66C736.761 142.056 736.761 141.133 735.977 140.528Z" />
<path d="M734.662 103.492C734.817 103.39 734.955 103.262 735.102 103.069C735.32 102.784 735.322 102.197 735.102 101.913C734.612 101.278 733.686 100.933 732.928 101.377C732.296 101.747 732.137 102.437 732.211 103.112C732.377 104.616 734.198 104.729 734.662 103.492Z" />
<path d="M704.94 72.3626C706.91 72.3626 706.91 69.3076 704.94 69.3076C702.97 69.3086 702.97 72.3626 704.94 72.3626Z" />
<path d="M1218.22 20.508C1192.55 21.216 1166.88 19.72 1141.23 20.544C1153.89 15.117 1167.18 11.025 1179.28 4.38602C1179.5 4.26602 1179.35 3.88203 1179.11 3.97503C1166.71 8.78403 1154.1 13.123 1141.79 18.191C1156.38 2.60802 1172.66 -11.412 1186.07 -28.056C1186.25 -28.276 1185.96 -28.587 1185.75 -28.373C1171.16 -13.156 1155.47 0.986021 1140.94 16.253C1145.85 3.89102 1150.03 -8.78198 1154.67 -21.241C1154.76 -21.482 1154.38 -21.636 1154.26 -21.414C1147.75 -9.17497 1143.83 4.22802 1138.52 17.013C1137.54 -8.57698 1139.55 -34.27 1136.96 -59.784C1136.93 -60.066 1136.5 -60.078 1136.51 -59.784C1137.22 -34.035 1135.71 -8.27498 1136.55 17.464C1131.77 4.36302 1126.1 -8.42498 1120.97 -21.388C1120.86 -21.652 1120.46 -21.556 1120.53 -21.269C1123.85 -8.03598 1129.77 4.36202 1134.37 17.183C1119.59 1.55902 1103.57 -12.848 1088.68 -28.372C1088.47 -28.586 1088.18 -28.275 1088.36 -28.055C1101.68 -11.528 1117.82 2.41202 1132.33 17.865C1120.31 13.133 1108.02 9.06702 1095.92 4.55302C1095.68 4.46402 1095.53 4.84502 1095.75 4.96402C1107.88 11.42 1121.16 15.334 1133.84 20.566C1107.98 19.697 1082.09 21.222 1056.22 20.508C1055.92 20.5 1055.93 20.928 1056.22 20.957C1081.03 23.479 1106 21.644 1130.89 22.449C1118.7 27.019 1106.76 32.282 1094.67 37.071C1094.4 37.175 1094.5 37.576 1094.79 37.505C1108.21 34.144 1120.78 28.093 1133.81 23.461C1118 38.365 1103.46 54.565 1087.78 69.607C1087.56 69.812 1087.87 70.102 1088.09 69.924C1105.24 56.104 1119.6 39.246 1135.76 24.328C1131.29 37.399 1125.41 50.036 1122.22 63.497C1122.16 63.784 1122.56 63.883 1122.66 63.616C1127.17 51.783 1132.13 40.087 1136.46 28.179C1135.84 52.849 1137.19 77.537 1136.51 102.215C1136.5 102.509 1136.93 102.497 1136.96 102.215C1139.49 77.373 1137.64 52.363 1138.45 27.442C1143.42 39.418 1147.41 51.849 1153.65 63.229C1153.77 63.449 1154.16 63.296 1154.06 63.056C1149.18 50.474 1144.78 37.674 1139.62 25.201C1155.39 39.9 1169.53 56.375 1186.34 69.925C1186.56 70.103 1186.87 69.812 1186.66 69.608C1170.82 54.417 1156.14 38.043 1140.15 23.017C1153.7 27.529 1166.74 33.709 1180.66 37.007C1180.95 37.075 1181.05 36.675 1180.78 36.573C1168.64 31.94 1156.64 26.836 1144.41 22.425C1169.01 21.689 1193.7 23.451 1218.22 20.958C1218.5 20.929 1218.51 20.5 1218.22 20.508Z" />
<path d="M1086.32 1.57235C1088.2 1.57235 1088.2 -1.34766 1086.32 -1.34766C1084.44 -1.34766 1084.44 1.57235 1086.32 1.57235Z" />
<path d="M1087.11 40.6181C1086.88 40.5731 1086.65 40.5391 1086.42 40.5471C1085.64 40.5751 1084.88 41.3601 1085.18 42.1781C1085.28 42.2911 1085.31 42.4131 1085.26 42.5451C1085.24 42.6801 1085.24 42.8041 1085.25 42.9401C1085.29 43.4091 1085.98 43.5721 1086.12 43.0861C1086.52 43.2121 1087.06 43.0531 1087.33 42.7481C1087.44 42.6451 1087.45 42.6231 1087.38 42.6841C1088.12 42.1771 1088.14 40.8251 1087.11 40.6181Z" />
<path d="M1117.35 73.7186C1117.27 73.7256 1117.19 73.7256 1117.11 73.7216C1117.05 73.7136 1116.96 73.7016 1116.82 73.6846C1116.66 73.7006 1116.49 73.7216 1116.33 73.7466C1116.3 73.7556 1115.87 73.8286 1116.16 73.8026C1115.41 73.8736 1114.77 74.3796 1114.77 75.1876C1114.77 76.1256 1115.65 76.7126 1116.53 76.5236C1116.99 76.4236 1117.4 76.2406 1117.75 75.9126C1118.1 75.5726 1118.17 75.0556 1118.23 74.5956C1118.29 74.1356 1117.79 73.6976 1117.35 73.7186Z" />
<path d="M1158.94 71.0703C1156.8 71.0703 1156.8 74.3943 1158.94 74.3943C1161.08 74.3953 1161.08 71.0703 1158.94 71.0703Z" />
<path d="M334.635 157.302C291.187 158.501 247.72 155.968 204.289 157.363C225.734 148.175 248.235 141.247 268.724 130.007C269.096 129.804 268.837 129.154 268.431 129.311C247.437 137.453 226.08 144.799 205.252 153.379C229.947 126.997 257.506 103.261 280.216 75.0821C280.516 74.7096 280.025 74.1831 279.678 74.5454C254.968 100.308 228.408 124.251 203.798 150.098C212.124 129.169 219.187 107.713 227.058 86.62C227.211 86.212 226.562 85.9513 226.363 86.3271C215.338 107.048 208.691 129.74 199.716 151.385C198.042 108.061 201.456 64.5616 197.066 21.3657C197.019 20.8883 196.293 20.868 196.306 21.3657C197.508 64.9595 194.953 108.572 196.381 152.149C188.281 129.968 178.68 108.318 169.992 86.3712C169.814 85.9242 169.137 86.0867 169.257 86.5726C174.864 108.976 184.892 129.967 192.687 151.673C167.664 125.221 140.531 100.83 115.324 74.5471C114.977 74.1848 114.486 74.7113 114.785 75.0838C137.336 103.064 164.665 126.665 189.228 152.828C168.881 144.816 148.065 137.932 127.59 130.29C127.183 130.139 126.919 130.784 127.297 130.986C147.838 141.916 170.315 148.542 191.793 157.4C148.002 155.929 104.173 158.511 60.3664 157.302C59.8669 157.289 59.8889 158.013 60.3664 158.062C102.369 162.332 144.655 159.225 186.793 160.588C166.16 168.325 145.942 177.236 125.463 185.344C125.016 185.52 125.179 186.199 125.665 186.079C148.4 180.388 169.678 170.144 191.73 162.302C164.965 187.535 140.347 214.962 113.797 240.428C113.436 240.775 113.963 241.266 114.335 240.965C143.364 217.567 167.681 189.026 195.033 163.77C187.475 185.899 177.515 207.294 172.12 230.084C172.006 230.57 172.682 230.737 172.854 230.285C180.495 210.252 188.889 190.45 196.225 170.289C195.163 212.056 197.459 253.854 196.308 295.634C196.294 296.132 197.021 296.112 197.068 295.634C201.343 253.576 198.219 211.234 199.596 169.042C208.005 189.317 214.76 210.363 225.328 229.63C225.533 230.002 226.181 229.743 226.024 229.337C217.764 208.035 210.314 186.365 201.573 165.248C228.277 190.133 252.203 218.026 280.666 240.966C281.04 241.268 281.565 240.775 281.205 240.43C254.391 214.711 229.545 186.989 202.474 161.55C225.414 169.189 247.49 179.652 271.057 185.235C271.541 185.351 271.71 184.673 271.258 184.501C250.698 176.657 230.387 168.016 209.678 160.548C251.331 159.302 293.124 162.285 334.638 158.064C335.114 158.015 335.134 157.289 334.635 157.302Z" />
<path d="M163.988 69.652C163.03 69.6435 164.403 69.7265 164.372 69.7231C164.469 69.7316 164.76 69.7028 164.934 69.6825C165.857 69.5606 166.368 69.0527 166.484 68.1266C166.595 67.2157 166.272 66.3675 165.61 65.7292C164.547 64.7016 162.761 64.8997 162.002 66.1948C161.115 67.7084 162.251 69.6368 163.988 69.652Z" />
<path d="M164.935 69.6831C164.932 69.6831 164.928 69.6848 164.925 69.6848C165.143 69.6578 165.081 69.6679 164.935 69.6831Z" />
<path d="M111.332 125.243C114.52 125.243 114.52 120.3 111.332 120.3C108.144 120.3 108.144 125.243 111.332 125.243Z" />
<path d="M112.667 191.349C112.281 191.273 111.899 191.215 111.506 191.229C110.189 191.276 108.892 192.605 109.402 193.99C109.576 194.181 109.622 194.388 109.539 194.611C109.501 194.84 109.5 195.05 109.518 195.28C109.586 196.074 110.753 196.35 110.993 195.527C111.674 195.74 112.581 195.471 113.048 194.955C113.224 194.781 113.25 194.743 113.123 194.847C114.374 193.988 114.421 191.699 112.667 191.349Z" />
<path d="M163.873 247.389C163.734 247.4 163.597 247.4 163.458 247.394C163.356 247.38 163.209 247.36 162.972 247.331C162.695 247.358 162.417 247.394 162.139 247.436C162.09 247.451 161.367 247.575 161.846 247.531C160.575 247.651 159.501 248.508 159.501 249.876C159.501 251.464 160.991 252.458 162.471 252.138C163.253 251.968 163.951 251.658 164.537 251.103C165.141 250.527 165.258 249.652 165.356 248.873C165.454 248.095 164.608 247.353 163.873 247.389Z" />
<path d="M234.281 242.905C230.651 242.905 230.651 248.533 234.281 248.533C237.911 248.535 237.911 242.905 234.281 242.905Z" />
<path d="M286.827 186.117C286.585 185.931 286.344 185.744 286.102 185.558C284.392 184.241 281.981 186.049 281.981 187.922C281.981 189.796 284.392 191.604 286.102 190.285C286.344 190.099 286.585 189.913 286.827 189.726C288.154 188.704 288.154 187.141 286.827 186.117Z" />
<path d="M284.599 123.415C284.862 123.242 285.095 123.026 285.344 122.699C285.713 122.216 285.717 121.223 285.344 120.742C284.515 119.667 282.947 119.083 281.664 119.834C280.594 120.461 280.324 121.629 280.45 122.772C280.731 125.318 283.814 125.509 284.599 123.415Z" />
<path d="M234.281 70.7113C237.616 70.7113 237.616 65.5391 234.281 65.5391C230.945 65.5408 230.945 70.7113 234.281 70.7113Z" />
<path d="M161.635 143.302C118.187 144.501 74.72 141.968 31.2888 143.363C52.7344 134.175 75.2347 127.247 95.7237 116.007C96.0962 115.804 95.8371 115.154 95.4308 115.311C74.4373 123.453 53.0798 130.799 32.2522 139.379C56.9466 112.997 84.5057 89.2608 107.216 61.0821C107.516 60.7096 107.025 60.1831 106.678 60.5454C81.9679 86.3082 55.4077 110.251 30.7978 136.098C39.1242 115.169 46.1875 93.7134 54.0583 72.62C54.2107 72.212 53.5623 71.9513 53.3625 72.3271C42.3375 93.0481 35.6907 115.74 26.716 137.385C25.0416 94.0605 28.4564 50.5616 24.0664 7.36573C24.019 6.8883 23.2927 6.86798 23.3062 7.36573C24.5083 50.9595 21.9535 94.5718 23.3807 138.149C15.2813 115.968 5.68012 94.3179 -3.00849 72.3712C-3.18625 71.9242 -3.86347 72.0867 -3.74327 72.5726C1.86403 94.9764 11.8918 115.967 19.6865 137.673C-5.3364 111.221 -32.4688 86.8296 -57.6763 60.5471C-58.0234 60.1848 -58.5144 60.7113 -58.2147 61.0838C-35.6636 89.0644 -8.33475 112.665 16.2277 138.828C-4.11911 130.816 -24.9349 123.932 -45.4103 116.29C-45.8167 116.139 -46.0808 116.784 -45.7032 116.986C-25.1617 127.916 -2.68512 134.542 18.7926 143.4C-24.9975 141.929 -68.8266 144.511 -112.634 143.302C-113.133 143.289 -113.111 144.013 -112.634 144.062C-70.6313 148.332 -28.3446 145.225 13.7931 146.588C-6.83981 154.325 -27.0579 163.236 -47.5368 171.344C-47.9837 171.52 -47.8212 172.199 -47.3353 172.079C-24.5997 166.388 -3.3217 156.144 18.73 148.302C-8.03509 173.535 -32.6534 200.962 -59.2034 226.428C-59.564 226.775 -59.0375 227.266 -58.665 226.965C-29.6364 203.567 -5.31947 175.026 22.0331 149.77C14.4754 171.899 4.51532 193.294 -0.880359 216.084C-0.993792 216.57 -0.318277 216.737 -0.145589 216.285C7.49504 196.252 15.8891 176.45 23.2249 156.289C22.1634 198.056 24.4592 239.854 23.3079 281.634C23.2944 282.132 24.0207 282.112 24.0681 281.634C28.343 239.576 25.2193 197.234 26.5958 155.042C35.005 175.317 41.7602 196.363 52.3281 215.63C52.5329 216.002 53.1814 215.743 53.0239 215.337C44.7636 194.035 37.3143 172.365 28.5732 151.248C55.2773 176.133 79.2032 204.026 107.666 226.966C108.04 227.268 108.565 226.775 108.205 226.43C81.3905 200.711 56.5454 172.989 29.4739 147.55C52.4144 155.189 74.4898 165.652 98.0567 171.235C98.5409 171.351 98.7102 170.673 98.2582 170.501C77.6981 162.657 57.3868 154.016 36.6777 146.548C78.3312 145.302 120.124 148.285 161.638 144.064C162.114 144.015 162.134 143.289 161.635 143.302Z" />
<path d="M61.281 228.905C57.6511 228.905 57.6511 234.533 61.281 234.533C64.9108 234.535 64.9108 228.905 61.281 228.905Z" />
<path d="M113.827 172.117C113.585 171.931 113.344 171.744 113.102 171.558C111.392 170.241 108.981 172.049 108.981 173.922C108.981 175.796 111.392 177.604 113.102 176.285C113.344 176.099 113.585 175.913 113.827 175.726C115.154 174.704 115.154 173.141 113.827 172.117Z" />
<path d="M111.599 109.415C111.862 109.242 112.095 109.026 112.344 108.699C112.713 108.216 112.717 107.223 112.344 106.742C111.515 105.667 109.947 105.083 108.664 105.834C107.594 106.461 107.324 107.629 107.45 108.772C107.731 111.318 110.814 111.509 111.599 109.415Z" />
<path d="M61.2807 56.7113C64.616 56.7113 64.616 51.5391 61.2807 51.5391C57.9455 51.5408 57.9455 56.7113 61.2807 56.7113Z" />
<path d="M448.635 508.302C405.187 509.501 361.72 506.968 318.289 508.363C339.734 499.175 362.235 492.247 382.724 481.007C383.096 480.804 382.837 480.154 382.431 480.311C361.437 488.453 340.08 495.799 319.252 504.379C343.947 477.997 371.506 454.261 394.216 426.082C394.516 425.71 394.025 425.183 393.678 425.545C368.968 451.308 342.408 475.251 317.798 501.098C326.124 480.169 333.187 458.713 341.058 437.62C341.211 437.212 340.562 436.951 340.363 437.327C329.338 458.048 322.691 480.74 313.716 502.385C312.042 459.061 315.456 415.562 311.066 372.366C311.019 371.888 310.293 371.868 310.306 372.366C311.508 415.959 308.953 459.572 310.381 503.149C302.281 480.968 292.68 459.318 283.992 437.371C283.814 436.924 283.137 437.087 283.257 437.573C288.864 459.976 298.892 480.967 306.687 502.673C281.664 476.221 254.531 451.83 229.324 425.547C228.977 425.185 228.486 425.711 228.785 426.084C251.336 454.064 278.665 477.665 303.228 503.828C282.881 495.816 262.065 488.932 241.59 481.29C241.183 481.139 240.919 481.784 241.297 481.986C261.838 492.916 284.315 499.542 305.793 508.4C262.002 506.929 218.173 509.511 174.366 508.302C173.867 508.289 173.889 509.013 174.366 509.062C216.369 513.332 258.655 510.225 300.793 511.588C280.16 519.325 259.942 528.236 239.463 536.344C239.016 536.52 239.179 537.199 239.665 537.079C262.4 531.388 283.678 521.144 305.73 513.302C278.965 538.535 254.347 565.962 227.797 591.428C227.436 591.775 227.963 592.266 228.335 591.965C257.364 568.567 281.681 540.026 309.033 514.77C301.475 536.899 291.515 558.294 286.12 581.084C286.006 581.57 286.682 581.737 286.854 581.285C294.495 561.252 302.889 541.45 310.225 521.289C309.163 563.056 311.459 604.854 310.308 646.634C310.294 647.132 311.021 647.112 311.068 646.634C315.343 604.576 312.219 562.234 313.596 520.042C322.005 540.317 328.76 561.363 339.328 580.63C339.533 581.002 340.181 580.743 340.024 580.337C331.764 559.035 324.314 537.365 315.573 516.248C342.277 541.133 366.203 569.026 394.666 591.966C395.04 592.268 395.565 591.775 395.205 591.43C368.391 565.711 343.545 537.989 316.474 512.55C339.414 520.189 361.49 530.652 385.057 536.235C385.541 536.351 385.71 535.673 385.258 535.501C364.698 527.657 344.387 519.016 323.678 511.548C365.331 510.302 407.124 513.285 448.638 509.064C449.114 509.015 449.134 508.289 448.635 508.302Z" />
<path d="M277.988 420.652C277.03 420.644 278.403 420.726 278.372 420.723C278.469 420.732 278.76 420.703 278.934 420.682C279.857 420.561 280.368 420.053 280.484 419.127C280.595 418.216 280.272 417.368 279.61 416.729C278.547 415.702 276.761 415.9 276.002 417.195C275.115 418.708 276.251 420.637 277.988 420.652Z" />
<path d="M278.935 420.683C278.932 420.683 278.928 420.685 278.925 420.685C279.143 420.658 279.081 420.668 278.935 420.683Z" />
<path d="M225.332 476.243C228.52 476.243 228.52 471.3 225.332 471.3C222.144 471.3 222.144 476.243 225.332 476.243Z" />
<path d="M226.667 542.349C226.281 542.273 225.899 542.215 225.506 542.229C224.189 542.276 222.892 543.605 223.402 544.99C223.576 545.181 223.622 545.388 223.539 545.611C223.501 545.84 223.5 546.05 223.518 546.28C223.586 547.074 224.753 547.35 224.993 546.527C225.674 546.74 226.581 546.471 227.048 545.955C227.224 545.781 227.25 545.743 227.123 545.847C228.374 544.988 228.421 542.699 226.667 542.349Z" />
<path d="M400.827 537.117C400.585 536.931 400.344 536.744 400.102 536.558C398.392 535.241 395.981 537.049 395.981 538.922C395.981 540.796 398.392 542.604 400.102 541.285C400.344 541.099 400.585 540.913 400.827 540.726C402.154 539.704 402.154 538.141 400.827 537.117Z" />
<path d="M398.599 474.415C398.862 474.242 399.095 474.026 399.344 473.699C399.713 473.216 399.717 472.223 399.344 471.742C398.515 470.667 396.947 470.083 395.664 470.834C394.594 471.461 394.324 472.629 394.45 473.772C394.731 476.318 397.814 476.509 398.599 474.415Z" />
<path d="M348.281 421.711C351.616 421.711 351.616 416.539 348.281 416.539C344.945 416.541 344.945 421.711 348.281 421.711Z" />
<path d="M915.988 222.652C915.03 222.644 916.403 222.726 916.372 222.723C916.469 222.732 916.76 222.703 916.934 222.682C917.857 222.561 918.368 222.053 918.484 221.127C918.595 220.216 918.272 219.368 917.61 218.729C916.547 217.702 914.761 217.9 914.002 219.195C913.115 220.708 914.251 222.637 915.988 222.652Z" />
<path d="M916.935 222.683C916.932 222.683 916.928 222.685 916.925 222.685C917.143 222.658 917.081 222.668 916.935 222.683Z" />
<path d="M863.332 278.243C866.52 278.243 866.52 273.3 863.332 273.3C860.144 273.3 860.144 278.243 863.332 278.243Z" />
<path d="M864.667 344.349C864.281 344.273 863.899 344.215 863.506 344.229C862.189 344.276 860.892 345.605 861.402 346.99C861.576 347.181 861.622 347.388 861.539 347.611C861.501 347.84 861.5 348.05 861.518 348.28C861.586 349.074 862.753 349.35 862.993 348.527C863.674 348.74 864.581 348.471 865.048 347.955C865.224 347.781 865.25 347.743 865.123 347.847C866.374 346.988 866.421 344.699 864.667 344.349Z" />
<path d="M915.873 400.389C915.735 400.4 915.597 400.4 915.459 400.394C915.357 400.38 915.21 400.36 914.973 400.331C914.695 400.358 914.417 400.394 914.14 400.436C914.091 400.451 913.368 400.575 913.847 400.531C912.575 400.651 911.502 401.508 911.502 402.876C911.502 404.464 912.992 405.458 914.472 405.138C915.254 404.968 915.951 404.658 916.537 404.103C917.141 403.527 917.258 402.652 917.356 401.873C917.455 401.095 916.608 400.353 915.873 400.389Z" />
<path d="M986.281 395.905C982.651 395.905 982.651 401.533 986.281 401.533C989.911 401.535 989.911 395.905 986.281 395.905Z" />
<path d="M1038.83 339.117C1038.59 338.931 1038.34 338.744 1038.1 338.558C1036.39 337.241 1033.98 339.049 1033.98 340.922C1033.98 342.796 1036.39 344.604 1038.1 343.285C1038.34 343.099 1038.59 342.913 1038.83 342.726C1040.15 341.704 1040.15 340.141 1038.83 339.117Z" />
<path d="M1036.6 276.415C1036.86 276.242 1037.1 276.026 1037.34 275.699C1037.71 275.216 1037.72 274.223 1037.34 273.742C1036.52 272.667 1034.95 272.083 1033.66 272.834C1032.59 273.461 1032.32 274.629 1032.45 275.772C1032.73 278.318 1035.81 278.509 1036.6 276.415Z" />
<path d="M986.281 223.711C989.616 223.711 989.616 218.539 986.281 218.539C982.946 218.541 982.946 223.711 986.281 223.711Z" />
<path d="M578.635 268.302C535.187 269.501 491.72 266.968 448.289 268.363C469.734 259.175 492.235 252.247 512.724 241.007C513.096 240.804 512.837 240.154 512.431 240.311C491.437 248.453 470.08 255.799 449.252 264.379C473.947 237.997 501.506 214.261 524.216 186.082C524.516 185.71 524.025 185.183 523.678 185.545C498.968 211.308 472.408 235.251 447.798 261.098C456.124 240.169 463.187 218.713 471.058 197.62C471.211 197.212 470.562 196.951 470.363 197.327C459.338 218.048 452.691 240.74 443.716 262.385C442.042 219.061 445.456 175.562 441.066 132.366C441.019 131.888 440.293 131.868 440.306 132.366C441.508 175.959 438.953 219.572 440.381 263.149C432.281 240.968 422.68 219.318 413.992 197.371C413.814 196.924 413.137 197.087 413.257 197.573C418.864 219.976 428.892 240.967 436.687 262.673C411.664 236.221 384.531 211.83 359.324 185.547C358.977 185.185 358.486 185.711 358.785 186.084C381.336 214.064 408.665 237.665 433.228 263.828C412.881 255.816 392.065 248.932 371.59 241.29C371.183 241.139 370.919 241.784 371.297 241.986C391.838 252.916 414.315 259.542 435.793 268.4C392.002 266.929 348.173 269.511 304.366 268.302C303.867 268.289 303.889 269.013 304.366 269.062C346.369 273.332 388.655 270.225 430.793 271.588C410.16 279.325 389.942 288.236 369.463 296.344C369.016 296.52 369.179 297.199 369.665 297.079C392.4 291.388 413.678 281.144 435.73 273.302C408.965 298.535 384.347 325.962 357.797 351.428C357.436 351.775 357.963 352.266 358.335 351.965C387.364 328.567 411.681 300.026 439.033 274.77C431.475 296.899 421.515 318.294 416.12 341.084C416.006 341.57 416.682 341.737 416.854 341.285C424.495 321.252 432.889 301.45 440.225 281.289C439.163 323.056 441.459 364.854 440.308 406.634C440.294 407.132 441.021 407.112 441.068 406.634C445.343 364.576 442.219 322.234 443.596 280.042C452.005 300.317 458.76 321.363 469.328 340.63C469.533 341.002 470.181 340.743 470.024 340.337C461.764 319.035 454.314 297.365 445.573 276.248C472.277 301.133 496.203 329.026 524.666 351.966C525.04 352.268 525.565 351.775 525.205 351.43C498.391 325.711 473.545 297.989 446.474 272.55C469.414 280.189 491.49 290.652 515.057 296.235C515.541 296.351 515.71 295.673 515.258 295.501C494.698 287.657 474.387 279.016 453.678 271.548C495.331 270.302 537.124 273.285 578.638 269.064C579.114 269.015 579.134 268.289 578.635 268.302Z" />
<path d="M407.988 180.652C407.03 180.644 408.403 180.726 408.372 180.723C408.469 180.732 408.76 180.703 408.934 180.682C409.857 180.561 410.368 180.053 410.484 179.127C410.595 178.216 410.272 177.368 409.61 176.729C408.547 175.702 406.761 175.9 406.002 177.195C405.115 178.708 406.251 180.637 407.988 180.652Z" />
<path d="M408.935 180.683C408.932 180.683 408.928 180.685 408.925 180.685C409.143 180.658 409.081 180.668 408.935 180.683Z" />
<path d="M355.332 236.243C358.52 236.243 358.52 231.3 355.332 231.3C352.144 231.3 352.144 236.243 355.332 236.243Z" />
<path d="M356.667 302.349C356.281 302.273 355.899 302.215 355.506 302.229C354.189 302.276 352.892 303.605 353.402 304.99C353.576 305.181 353.622 305.388 353.539 305.611C353.501 305.84 353.5 306.05 353.518 306.28C353.586 307.074 354.753 307.35 354.993 306.527C355.674 306.74 356.581 306.471 357.048 305.955C357.224 305.781 357.25 305.743 357.123 305.847C358.374 304.988 358.421 302.699 356.667 302.349Z" />
<path d="M407.873 358.389C407.734 358.4 407.597 358.4 407.458 358.394C407.356 358.38 407.209 358.36 406.972 358.331C406.695 358.358 406.417 358.394 406.139 358.436C406.09 358.451 405.367 358.575 405.846 358.531C404.575 358.651 403.501 359.508 403.501 360.876C403.501 362.464 404.991 363.458 406.471 363.138C407.253 362.968 407.951 362.658 408.537 362.103C409.141 361.527 409.258 360.652 409.356 359.873C409.454 359.095 408.608 358.353 407.873 358.389Z" />
<path d="M478.281 353.905C474.651 353.905 474.651 359.533 478.281 359.533C481.911 359.535 481.911 353.905 478.281 353.905Z" />
<path d="M530.827 297.117C530.585 296.931 530.344 296.744 530.102 296.558C528.392 295.241 525.981 297.049 525.981 298.922C525.981 300.796 528.392 302.604 530.102 301.285C530.344 301.099 530.585 300.913 530.827 300.726C532.154 299.704 532.154 298.141 530.827 297.117Z" />
<path d="M528.599 234.415C528.862 234.242 529.095 234.026 529.344 233.699C529.713 233.216 529.717 232.223 529.344 231.742C528.515 230.667 526.947 230.083 525.664 230.834C524.594 231.461 524.324 232.629 524.45 233.772C524.731 236.318 527.814 236.509 528.599 234.415Z" />
<path d="M478.281 181.711C481.616 181.711 481.616 176.539 478.281 176.539C474.945 176.541 474.945 181.711 478.281 181.711Z" />
<path d="M220.635 548.302C177.187 549.501 133.72 546.968 90.2888 548.363C111.734 539.175 134.235 532.247 154.724 521.007C155.096 520.804 154.837 520.154 154.431 520.311C133.437 528.453 112.08 535.799 91.2522 544.379C115.947 517.997 143.506 494.261 166.216 466.082C166.516 465.71 166.025 465.183 165.678 465.545C140.968 491.308 114.408 515.251 89.7978 541.098C98.1242 520.169 105.187 498.713 113.058 477.62C113.211 477.212 112.562 476.951 112.363 477.327C101.338 498.048 94.6907 520.74 85.716 542.385C84.0416 499.061 87.4564 455.562 83.0664 412.366C83.019 411.888 82.2927 411.868 82.3062 412.366C83.5083 455.959 80.9535 499.572 82.3807 543.149C74.2813 520.968 64.6801 499.318 55.9915 477.371C55.8137 476.924 55.1365 477.087 55.2567 477.573C60.864 499.976 70.8918 520.967 78.6865 542.673C53.6636 516.221 26.5312 491.83 1.32369 465.547C0.976624 465.185 0.485645 465.711 0.785311 466.084C23.3364 494.064 50.6653 517.665 75.2277 543.828C54.8809 535.816 34.0651 528.932 13.5897 521.29C13.1833 521.139 12.9192 521.784 13.2968 521.986C33.8383 532.916 56.3149 539.542 77.7926 548.4C34.0025 546.929 -9.82658 549.511 -53.6336 548.302C-54.1331 548.289 -54.1111 549.013 -53.6336 549.062C-11.6313 553.332 30.6554 550.225 72.7931 551.588C52.1602 559.325 31.9421 568.236 11.4632 576.344C11.0163 576.52 11.1788 577.199 11.6647 577.079C34.4003 571.388 55.6783 561.144 77.73 553.302C50.9649 578.535 26.3466 605.962 -0.203416 631.428C-0.564031 631.775 -0.0374981 632.266 0.334968 631.965C29.3636 608.567 53.6805 580.026 81.0331 554.77C73.4754 576.899 63.5153 598.294 58.1196 621.084C58.0062 621.57 58.6817 621.737 58.8544 621.285C66.495 601.252 74.8891 581.45 82.2249 561.289C81.1634 603.056 83.4592 644.854 82.3079 686.634C82.2944 687.132 83.0207 687.112 83.0681 686.634C87.343 644.576 84.2193 602.234 85.5958 560.042C94.005 580.317 100.76 601.363 111.328 620.63C111.533 621.002 112.181 620.743 112.024 620.337C103.764 599.035 96.3143 577.365 87.5732 556.248C114.277 581.133 138.203 609.026 166.666 631.966C167.04 632.268 167.565 631.775 167.205 631.43C140.391 605.711 115.545 577.989 88.4739 552.55C111.414 560.189 133.49 570.652 157.057 576.235C157.541 576.351 157.71 575.673 157.258 575.501C136.698 567.657 116.387 559.016 95.6777 551.548C137.331 550.302 179.124 553.285 220.638 549.064C221.114 549.015 221.134 548.289 220.635 548.302Z" />
<path d="M49.9881 460.652C49.0298 460.644 50.4029 460.726 50.3724 460.723C50.4689 460.732 50.7601 460.703 50.9345 460.682C51.8572 460.561 52.3685 460.053 52.4836 459.127C52.5953 458.216 52.272 457.368 51.61 456.729C50.5468 455.702 48.7606 455.9 48.0022 457.195C47.115 458.708 48.251 460.637 49.9881 460.652Z" />
<path d="M50.935 460.683C50.9316 460.683 50.9282 460.685 50.9248 460.685C51.1432 460.658 51.0806 460.668 50.935 460.683Z" />
<path d="M-2.66811 516.243C0.519862 516.243 0.519862 511.3 -2.66811 511.3C-5.85607 511.3 -5.85607 516.243 -2.66811 516.243Z" />
<path d="M170.599 514.415C170.862 514.242 171.095 514.026 171.344 513.699C171.713 513.216 171.717 512.223 171.344 511.742C170.515 510.667 168.947 510.083 167.664 510.834C166.594 511.461 166.324 512.629 166.45 513.772C166.731 516.318 169.814 516.509 170.599 514.415Z" />
<path d="M120.281 461.711C123.616 461.711 123.616 456.539 120.281 456.539C116.945 456.541 116.945 461.711 120.281 461.711Z" />
<path d="M973.635 99.3022C930.187 100.501 886.72 97.9681 843.289 99.3631C864.734 90.1751 887.235 83.2472 907.724 72.0072C908.096 71.8041 907.837 71.1539 907.431 71.3114C886.437 79.4531 865.08 86.7992 844.252 95.3794C868.947 68.997 896.506 45.2608 919.216 17.0821C919.516 16.7096 919.025 16.1831 918.678 16.5454C893.968 42.3082 867.408 66.2509 842.798 92.0984C851.124 71.1692 858.187 49.7134 866.058 28.62C866.211 28.212 865.562 27.9513 865.363 28.3271C854.338 49.0481 847.691 71.7397 838.716 93.3851C837.042 50.0605 840.456 6.5616 836.066 -36.6343C836.019 -37.1117 835.293 -37.132 835.306 -36.6343C836.508 6.95946 833.953 50.5718 835.381 94.1486C827.281 71.9683 817.68 50.3179 808.992 28.3712C808.814 27.9242 808.137 28.0867 808.257 28.5726C813.864 50.9764 823.892 71.9666 831.687 93.6729C806.664 67.221 779.531 42.8296 754.324 16.5471C753.977 16.1848 753.486 16.7113 753.785 17.0838C776.336 45.0644 803.665 68.6652 828.228 94.8275C807.881 86.8161 787.065 79.9323 766.59 72.29C766.183 72.1393 765.919 72.7843 766.297 72.9858C786.838 83.916 809.315 90.5425 830.793 99.4004C787.002 97.9291 743.173 100.511 699.366 99.3022C698.867 99.2886 698.889 100.013 699.366 100.062C741.369 104.332 783.655 101.225 825.793 102.588C805.16 110.325 784.942 119.236 764.463 127.344C764.016 127.52 764.179 128.199 764.665 128.079C787.4 122.388 808.678 112.144 830.73 104.302C803.965 129.535 779.347 156.962 752.797 182.428C752.436 182.775 752.963 183.266 753.335 182.965C782.364 159.567 806.681 131.026 834.033 105.77C826.475 127.899 816.515 149.294 811.12 172.084C811.006 172.57 811.682 172.737 811.854 172.285C819.495 152.252 827.889 132.45 835.225 112.289C834.163 154.056 836.459 195.854 835.308 237.634C835.294 238.132 836.021 238.112 836.068 237.634C840.343 195.576 837.219 153.234 838.596 111.042C847.005 131.317 853.76 152.363 864.328 171.63C864.533 172.002 865.181 171.743 865.024 171.337C856.764 150.035 849.314 128.365 840.573 107.248C867.277 132.133 891.203 160.026 919.666 182.966C920.04 183.268 920.565 182.775 920.205 182.43C893.391 156.711 868.545 128.989 841.474 103.55C864.414 111.189 886.49 121.652 910.057 127.235C910.541 127.351 910.71 126.673 910.258 126.501C889.698 118.657 869.387 110.016 848.678 102.548C890.331 101.302 932.124 104.285 973.638 100.064C974.114 100.015 974.134 99.2886 973.635 99.3022Z" />
<path d="M900.635 562.302C857.187 563.501 813.72 560.968 770.289 562.363C791.734 553.175 814.235 546.247 834.724 535.007C835.096 534.804 834.837 534.154 834.431 534.311C813.437 542.453 792.08 549.799 771.252 558.379C795.947 531.997 823.506 508.261 846.216 480.082C846.516 479.71 846.025 479.183 845.678 479.545C820.968 505.308 794.408 529.251 769.798 555.098C778.124 534.169 785.187 512.713 793.058 491.62C793.211 491.212 792.562 490.951 792.363 491.327C781.338 512.048 774.691 534.74 765.716 556.385C764.042 513.061 767.456 469.562 763.066 426.366C763.019 425.888 762.293 425.868 762.306 426.366C763.508 469.959 760.953 513.572 762.381 557.149C754.281 534.968 744.68 513.318 735.992 491.371C735.814 490.924 735.137 491.087 735.257 491.573C740.864 513.976 750.892 534.967 758.687 556.673C733.664 530.221 706.531 505.83 681.324 479.547C680.977 479.185 680.486 479.711 680.785 480.084C703.336 508.064 730.665 531.665 755.228 557.828C734.881 549.816 714.065 542.932 693.59 535.29C693.183 535.139 692.919 535.784 693.297 535.986C713.838 546.916 736.315 553.542 757.793 562.4C714.002 560.929 670.173 563.511 626.366 562.302C625.867 562.289 625.889 563.013 626.366 563.062C668.369 567.332 710.655 564.225 752.793 565.588C732.16 573.325 711.942 582.236 691.463 590.344C691.016 590.52 691.179 591.199 691.665 591.079C714.4 585.388 735.678 575.144 757.73 567.302C730.965 592.535 706.347 619.962 679.797 645.428C679.436 645.775 679.963 646.266 680.335 645.965C709.364 622.567 733.681 594.026 761.033 568.77C753.475 590.899 743.515 612.294 738.12 635.084C738.006 635.57 738.682 635.737 738.854 635.285C746.495 615.252 754.889 595.45 762.225 575.289C761.163 617.056 763.459 658.854 762.308 700.634C762.294 701.132 763.021 701.112 763.068 700.634C767.343 658.576 764.219 616.234 765.596 574.042C774.005 594.317 780.76 615.363 791.328 634.63C791.533 635.002 792.181 634.743 792.024 634.337C783.764 613.035 776.314 591.365 767.573 570.248C794.277 595.133 818.203 623.026 846.666 645.966C847.04 646.268 847.565 645.775 847.205 645.43C820.391 619.711 795.545 591.989 768.474 566.55C791.414 574.189 813.49 584.652 837.057 590.235C837.541 590.351 837.71 589.673 837.258 589.501C816.698 581.657 796.387 573.016 775.678 565.548C817.331 564.302 859.124 567.285 900.638 563.064C901.114 563.015 901.134 562.289 900.635 562.302Z" />
<path d="M495.822 402.921C474.81 403.501 453.788 402.276 432.784 402.95C443.156 398.507 454.037 395.156 463.946 389.72C464.126 389.622 464.001 389.308 463.805 389.384C453.652 393.321 443.323 396.874 433.25 401.024C445.193 388.265 458.521 376.785 469.504 363.157C469.649 362.977 469.412 362.723 469.244 362.898C457.294 375.357 444.448 386.937 432.547 399.437C436.573 389.315 439.989 378.939 443.796 368.737C443.87 368.54 443.556 368.414 443.459 368.596C438.127 378.617 434.913 389.591 430.572 400.059C429.763 379.106 431.414 358.069 429.291 337.179C429.268 336.948 428.917 336.938 428.923 337.179C429.505 358.262 428.269 379.354 428.959 400.429C425.042 389.702 420.399 379.231 416.197 368.617C416.111 368.401 415.783 368.479 415.842 368.714C418.553 379.549 423.403 389.701 427.173 400.198C415.071 387.406 401.949 375.609 389.758 362.899C389.59 362.723 389.353 362.978 389.498 363.158C400.404 376.69 413.621 388.104 425.5 400.757C415.66 396.882 405.593 393.553 395.69 389.857C395.494 389.784 395.366 390.096 395.549 390.194C405.483 395.48 416.353 398.685 426.74 402.968C405.563 402.257 384.366 403.506 363.18 402.921C362.938 402.914 362.949 403.265 363.18 403.289C383.493 405.354 403.944 403.851 424.323 404.51C414.344 408.252 404.566 412.561 394.662 416.483C394.446 416.568 394.524 416.896 394.759 416.838C405.755 414.086 416.045 409.131 426.71 405.339C413.766 417.542 401.86 430.806 389.02 443.123C388.845 443.29 389.1 443.528 389.28 443.382C403.319 432.067 415.079 418.263 428.308 406.049C424.653 416.751 419.836 427.098 417.226 438.12C417.171 438.355 417.498 438.436 417.582 438.217C421.277 428.529 425.336 418.952 428.884 409.202C428.371 429.401 429.481 449.616 428.924 469.822C428.918 470.062 429.269 470.053 429.292 469.822C431.359 449.481 429.849 429.003 430.514 408.598C434.581 418.404 437.848 428.583 442.959 437.9C443.058 438.081 443.372 437.955 443.296 437.759C439.301 427.457 435.698 416.976 431.471 406.764C444.385 418.799 455.956 432.288 469.722 443.383C469.903 443.529 470.157 443.29 469.982 443.123C457.014 430.685 444.999 417.278 431.906 404.975C443.001 408.67 453.677 413.73 465.075 416.43C465.309 416.486 465.391 416.158 465.172 416.075C455.229 412.281 445.406 408.102 435.39 404.491C455.535 403.888 475.747 405.331 495.824 403.289C496.054 403.266 496.064 402.914 495.822 402.921Z" />
<path d="M545.82 86.919C524.807 87.4987 503.786 86.2738 482.782 86.9485C493.153 82.5049 504.035 79.1544 513.944 73.7185C514.124 73.6202 513.999 73.3058 513.802 73.382C503.649 77.3195 493.32 80.8722 483.247 85.0219C495.19 72.2627 508.518 60.7833 519.502 47.1554C519.647 46.9752 519.409 46.7206 519.241 46.8958C507.291 59.3553 494.446 70.9346 482.544 83.435C486.571 73.3132 489.987 62.9367 493.793 52.7354C493.867 52.5381 493.553 52.412 493.457 52.5938C488.125 62.6149 484.91 73.5891 480.57 84.0573C479.76 63.1045 481.412 42.0674 479.289 21.1769C479.266 20.946 478.914 20.9362 478.921 21.1769C479.502 42.2598 478.267 63.3518 478.957 84.4266C475.04 73.6997 470.397 63.229 466.195 52.6151C466.109 52.3989 465.781 52.4775 465.839 52.7125C468.551 63.5475 473.401 73.6988 477.17 84.1965C465.069 71.4038 451.947 59.6075 439.756 46.8966C439.588 46.7214 439.351 46.9761 439.495 47.1562C450.402 60.6883 463.619 72.1022 475.498 84.7549C465.657 80.8804 455.59 77.5512 445.688 73.8552C445.491 73.7824 445.364 74.0943 445.546 74.1917C455.481 79.4778 466.351 82.6826 476.738 86.9665C455.56 86.2549 434.363 87.5036 413.177 86.919C412.936 86.9124 412.946 87.2629 413.177 87.2866C433.49 89.3516 453.941 87.8491 474.32 88.5082C464.342 92.2501 454.564 96.5594 444.66 100.481C444.443 100.566 444.522 100.894 444.757 100.836C455.753 98.084 466.043 93.1295 476.708 89.3369C463.764 101.54 451.858 114.804 439.017 127.121C438.843 127.288 439.098 127.526 439.278 127.38C453.317 116.065 465.077 102.261 478.305 90.0468C474.65 100.749 469.833 111.096 467.224 122.118C467.169 122.353 467.496 122.434 467.579 122.215C471.274 112.527 475.334 102.95 478.882 93.1999C478.368 113.399 479.479 133.614 478.922 153.82C478.915 154.06 479.266 154.051 479.289 153.82C481.357 133.479 479.846 113.001 480.512 92.5965C484.579 102.402 487.846 112.581 492.957 121.898C493.056 122.079 493.369 121.953 493.293 121.757C489.298 111.455 485.696 100.974 481.468 90.7616C494.383 102.797 505.954 116.286 519.72 127.381C519.9 127.527 520.154 127.288 519.98 127.121C507.012 114.683 494.996 101.276 481.904 88.9733C492.998 92.6677 503.675 97.7278 515.072 100.428C515.306 100.484 515.388 100.156 515.169 100.073C505.226 96.2794 495.403 92.1003 485.388 88.4886C505.532 87.886 525.744 89.3287 545.822 87.2874C546.052 87.2637 546.062 86.9124 545.82 86.919Z" />
<path d="M1084.82 365.919C1063.81 366.499 1042.79 365.274 1021.78 365.948C1032.15 361.505 1043.03 358.154 1052.94 352.718C1053.12 352.62 1053 352.306 1052.8 352.382C1042.65 356.32 1032.32 359.872 1022.25 364.022C1034.19 351.263 1047.52 339.783 1058.5 326.155C1058.65 325.975 1058.41 325.721 1058.24 325.896C1046.29 338.355 1033.45 349.935 1021.54 362.435C1025.57 352.313 1028.99 341.937 1032.79 331.735C1032.87 331.538 1032.55 331.412 1032.46 331.594C1027.12 341.615 1023.91 352.589 1019.57 363.057C1018.76 342.105 1020.41 321.067 1018.29 300.177C1018.27 299.946 1017.91 299.936 1017.92 300.177C1018.5 321.26 1017.27 342.352 1017.96 363.427C1014.04 352.7 1009.4 342.229 1005.19 331.615C1005.11 331.399 1004.78 331.477 1004.84 331.712C1007.55 342.548 1012.4 352.699 1016.17 363.197C1004.07 350.404 990.947 338.607 978.756 325.897C978.588 325.721 978.351 325.976 978.495 326.156C989.402 339.688 1002.62 351.102 1014.5 363.755C1004.66 359.88 994.59 356.551 984.688 352.855C984.491 352.782 984.364 353.094 984.546 353.192C994.481 358.478 1005.35 361.683 1015.74 365.966C994.56 365.255 973.363 366.504 952.177 365.919C951.936 365.912 951.946 366.263 952.177 366.287C972.49 368.352 992.941 366.849 1013.32 367.508C1003.34 371.25 993.564 375.559 983.66 379.481C983.443 379.566 983.522 379.894 983.757 379.836C994.753 377.084 1005.04 372.129 1015.71 368.337C1002.76 380.54 990.858 393.804 978.017 406.121C977.843 406.288 978.098 406.526 978.278 406.38C992.317 395.065 1004.08 381.261 1017.31 369.047C1013.65 379.749 1008.83 390.096 1006.22 401.118C1006.17 401.353 1006.5 401.434 1006.58 401.215C1010.27 391.527 1014.33 381.95 1017.88 372.2C1017.37 392.399 1018.48 412.614 1017.92 432.82C1017.92 433.06 1018.27 433.051 1018.29 432.82C1020.36 412.479 1018.85 392.001 1019.51 371.596C1023.58 381.402 1026.85 391.581 1031.96 400.898C1032.06 401.079 1032.37 400.953 1032.29 400.757C1028.3 390.455 1024.7 379.974 1020.47 369.762C1033.38 381.797 1044.95 395.286 1058.72 406.381C1058.9 406.527 1059.15 406.288 1058.98 406.121C1046.01 393.683 1034 380.276 1020.9 367.973C1032 371.668 1042.67 376.728 1054.07 379.428C1054.31 379.484 1054.39 379.156 1054.17 379.073C1044.23 375.279 1034.4 371.1 1024.39 367.489C1044.53 366.886 1064.74 368.329 1084.82 366.287C1085.05 366.264 1085.06 365.912 1084.82 365.919Z" />
<path d="M1084.82 64.919C1063.81 65.4987 1042.79 64.2738 1021.78 64.9485C1032.15 60.5049 1043.03 57.1544 1052.94 51.7185C1053.12 51.6202 1053 51.3058 1052.8 51.382C1042.65 55.3195 1032.32 58.8722 1022.25 63.0219C1034.19 50.2627 1047.52 38.7833 1058.5 25.1554C1058.65 24.9752 1058.41 24.7206 1058.24 24.8958C1046.29 37.3553 1033.45 48.9346 1021.54 61.435C1025.57 51.3132 1028.99 40.9367 1032.79 30.7354C1032.87 30.5381 1032.55 30.412 1032.46 30.5938C1027.12 40.6149 1023.91 51.5891 1019.57 62.0573C1018.76 41.1045 1020.41 20.0674 1018.29 -0.823123C1018.27 -1.05402 1017.91 -1.06385 1017.92 -0.823123C1018.5 20.2598 1017.27 41.3518 1017.96 62.4266C1014.04 51.6997 1009.4 41.229 1005.19 30.6151C1005.11 30.3989 1004.78 30.4775 1004.84 30.7125C1007.55 41.5475 1012.4 51.6988 1016.17 62.1965C1004.07 49.4038 990.947 37.6075 978.756 24.8966C978.588 24.7214 978.351 24.9761 978.495 25.1562C989.402 38.6883 1002.62 50.1022 1014.5 62.7549C1004.66 58.8804 994.59 55.5512 984.688 51.8552C984.491 51.7824 984.364 52.0943 984.546 52.1917C994.481 57.4778 1005.35 60.6826 1015.74 64.9665C994.56 64.2549 973.363 65.5036 952.177 64.919C951.936 64.9124 951.946 65.2629 952.177 65.2866C972.49 67.3516 992.941 65.8491 1013.32 66.5082C1003.34 70.2501 993.564 74.5594 983.66 78.4806C983.443 78.5657 983.522 78.8941 983.757 78.8359C994.753 76.084 1005.04 71.1295 1015.71 67.3369C1002.76 79.5401 990.858 92.8044 978.017 105.121C977.843 105.288 978.098 105.526 978.278 105.38C992.317 94.0646 1004.08 80.2614 1017.31 68.0468C1013.65 78.7491 1008.83 89.0961 1006.22 100.118C1006.17 100.353 1006.5 100.434 1006.58 100.215C1010.27 90.5266 1014.33 80.95 1017.88 71.1999C1017.37 91.3994 1018.48 111.614 1017.92 131.82C1017.92 132.06 1018.27 132.051 1018.29 131.82C1020.36 111.479 1018.85 91.0015 1019.51 70.5965C1023.58 80.4023 1026.85 90.5806 1031.96 99.8984C1032.06 100.079 1032.37 99.9533 1032.29 99.7568C1028.3 89.4548 1024.7 78.9743 1020.47 68.7616C1033.38 80.7969 1044.95 94.2864 1058.72 105.381C1058.9 105.527 1059.15 105.288 1058.98 105.121C1046.01 92.6833 1034 79.2764 1020.9 66.9733C1032 70.6677 1042.67 75.7278 1054.07 78.4282C1054.31 78.4838 1054.39 78.1563 1054.17 78.0728C1044.23 74.2794 1034.4 70.1003 1024.39 66.4886C1044.53 65.886 1064.74 67.3287 1084.82 65.2874C1085.05 65.2637 1085.06 64.9124 1084.82 64.919Z" />
<path d="M243.217 270.924C268.88 270.216 294.554 271.712 320.207 270.888C307.54 276.315 294.25 280.407 282.148 287.046C281.928 287.166 282.081 287.55 282.321 287.457C294.721 282.648 307.336 278.309 319.638 273.241C305.052 288.824 288.774 302.844 275.36 319.488C275.183 319.708 275.473 320.019 275.678 319.805C290.273 304.588 305.961 290.446 320.497 275.179C315.579 287.541 311.407 300.214 306.758 312.673C306.668 312.914 307.051 313.068 307.169 312.846C313.681 300.607 317.607 287.204 322.908 274.419C323.897 300.009 321.88 325.702 324.473 351.216C324.501 351.498 324.93 351.51 324.922 351.216C324.212 325.467 325.721 299.707 324.878 273.968C329.662 287.069 335.333 299.857 340.465 312.82C340.57 313.084 340.97 312.988 340.899 312.701C337.587 299.468 331.664 287.07 327.06 274.249C341.84 289.873 357.866 304.28 372.755 319.804C372.96 320.018 373.25 319.707 373.073 319.487C359.753 302.96 343.611 289.02 329.103 273.567C341.121 278.299 353.416 282.365 365.51 286.879C365.75 286.968 365.906 286.587 365.683 286.468C353.55 280.012 340.274 276.098 327.588 270.866C353.453 271.735 379.341 270.21 405.216 270.924C405.511 270.932 405.498 270.504 405.216 270.475C380.407 267.953 355.43 269.788 330.541 268.983C342.728 264.413 354.67 259.15 366.766 254.361C367.03 254.257 366.934 253.856 366.647 253.927C353.218 257.288 340.65 263.339 327.625 267.971C343.434 253.067 357.975 236.867 373.657 221.825C373.87 221.62 373.559 221.33 373.339 221.508C356.193 235.328 341.83 252.186 325.674 267.104C330.138 254.033 336.021 241.396 339.208 227.935C339.275 227.648 338.876 227.549 338.774 227.816C334.261 239.649 329.303 251.345 324.97 263.253C325.597 238.583 324.241 213.895 324.921 189.217C324.929 188.923 324.5 188.935 324.472 189.217C321.947 214.059 323.792 239.069 322.979 263.99C318.012 252.014 314.022 239.583 307.78 228.203C307.659 227.983 307.276 228.136 307.369 228.376C312.248 240.958 316.648 253.758 321.811 266.231C306.038 251.532 291.906 235.057 275.094 221.507C274.873 221.329 274.563 221.62 274.776 221.824C290.614 237.015 305.289 253.389 321.279 268.415C307.729 263.903 294.69 257.723 280.77 254.425C280.484 254.357 280.384 254.757 280.651 254.859C292.795 259.492 304.792 264.596 317.024 269.007C292.421 269.743 267.736 267.981 243.215 270.474C242.934 270.503 242.922 270.932 243.217 270.924Z" />
<path d="M344.011 322.695C344.577 322.7 343.766 322.651 343.784 322.653C343.727 322.648 343.555 322.665 343.452 322.677C342.907 322.749 342.605 323.049 342.537 323.596C342.471 324.134 342.662 324.635 343.053 325.012C343.681 325.619 344.736 325.502 345.184 324.737C345.708 323.843 345.037 322.704 344.011 322.695Z" />
<path d="M343.452 322.677C343.454 322.677 343.456 322.676 343.458 322.676C343.329 322.692 343.366 322.686 343.452 322.677Z" />
<path d="M375.113 289.859C373.23 289.859 373.23 292.779 375.113 292.779C376.996 292.779 376.996 289.859 375.113 289.859Z" />
<path d="M374.324 250.814C374.552 250.859 374.778 250.893 375.01 250.885C375.788 250.857 376.554 250.072 376.253 249.254C376.15 249.141 376.123 249.019 376.172 248.887C376.194 248.752 376.195 248.628 376.184 248.492C376.144 248.023 375.455 247.86 375.313 248.346C374.911 248.22 374.375 248.379 374.099 248.684C373.995 248.787 373.98 248.809 374.055 248.748C373.316 249.255 373.288 250.607 374.324 250.814Z" />
<path d="M344.079 217.713C344.161 217.706 344.242 217.706 344.324 217.71C344.384 217.718 344.471 217.73 344.611 217.747C344.775 217.731 344.939 217.71 345.103 217.685C345.132 217.676 345.559 217.603 345.276 217.629C346.027 217.558 346.661 217.052 346.661 216.244C346.661 215.306 345.781 214.719 344.907 214.908C344.445 215.008 344.033 215.191 343.687 215.519C343.33 215.859 343.261 216.376 343.203 216.836C343.145 217.296 343.645 217.734 344.079 217.713Z" />
<path d="M302.492 220.361C304.636 220.361 304.636 217.037 302.492 217.037C300.348 217.036 300.348 220.361 302.492 220.361Z" />
<path d="M271.455 253.904C271.598 254.014 271.74 254.124 271.883 254.234C272.893 255.012 274.317 253.944 274.317 252.838C274.317 251.731 272.893 250.663 271.883 251.442C271.74 251.552 271.598 251.662 271.455 251.772C270.671 252.376 270.671 253.299 271.455 253.904Z" />
<path d="M272.771 290.94C272.616 291.042 272.478 291.17 272.331 291.363C272.113 291.648 272.111 292.235 272.331 292.519C272.821 293.154 273.747 293.499 274.505 293.055C275.137 292.685 275.296 291.995 275.222 291.32C275.056 289.816 273.235 289.703 272.771 290.94Z" />
<path d="M302.492 322.069C300.522 322.069 300.522 325.124 302.492 325.124C304.462 325.123 304.462 322.069 302.492 322.069Z" />
<path d="M48.2172 235.924C73.8802 235.216 99.5542 236.712 125.207 235.888C112.54 241.315 99.2502 245.407 87.1482 252.046C86.9282 252.166 87.0812 252.55 87.3212 252.457C99.7212 247.648 112.336 243.309 124.638 238.241C110.052 253.824 93.7742 267.844 80.3602 284.488C80.1832 284.708 80.4732 285.019 80.6782 284.805C95.2732 269.588 110.961 255.446 125.497 240.179C120.579 252.541 116.407 265.214 111.758 277.673C111.668 277.914 112.051 278.068 112.169 277.846C118.681 265.607 122.607 252.204 127.908 239.419C128.897 265.009 126.88 290.702 129.473 316.216C129.501 316.498 129.93 316.51 129.922 316.216C129.212 290.467 130.721 264.707 129.878 238.968C134.662 252.069 140.333 264.857 145.465 277.82C145.57 278.084 145.97 277.988 145.899 277.701C142.587 264.468 136.664 252.07 132.06 239.249C146.84 254.873 162.866 269.28 177.755 284.804C177.96 285.018 178.25 284.707 178.073 284.487C164.753 267.96 148.611 254.02 134.103 238.567C146.121 243.299 158.416 247.365 170.51 251.879C170.75 251.968 170.906 251.587 170.683 251.468C158.55 245.012 145.274 241.098 132.588 235.866C158.453 236.735 184.341 235.21 210.216 235.924C210.511 235.932 210.498 235.504 210.216 235.475C185.407 232.953 160.43 234.788 135.541 233.983C147.728 229.413 159.67 224.15 171.766 219.361C172.03 219.257 171.934 218.856 171.647 218.927C158.218 222.288 145.65 228.339 132.625 232.971C148.434 218.067 162.975 201.867 178.657 186.825C178.87 186.62 178.559 186.33 178.339 186.508C161.193 200.328 146.83 217.186 130.674 232.104C135.138 219.033 141.021 206.396 144.208 192.935C144.275 192.648 143.876 192.549 143.774 192.816C139.261 204.649 134.303 216.345 129.97 228.253C130.597 203.583 129.241 178.895 129.921 154.217C129.929 153.923 129.5 153.935 129.472 154.217C126.947 179.059 128.792 204.069 127.979 228.99C123.012 217.014 119.022 204.583 112.78 193.203C112.659 192.983 112.276 193.136 112.369 193.376C117.248 205.958 121.648 218.758 126.811 231.231C111.038 216.532 96.9062 200.057 80.0942 186.507C79.8732 186.329 79.5632 186.62 79.7762 186.824C95.6142 202.015 110.289 218.389 126.279 233.415C112.729 228.903 99.6902 222.723 85.7702 219.425C85.4842 219.357 85.3842 219.757 85.6512 219.859C97.7952 224.492 109.792 229.596 122.024 234.007C97.4212 234.743 72.7362 232.981 48.2152 235.474C47.9342 235.503 47.9222 235.932 48.2172 235.924Z" />
<path d="M149.011 287.695C149.577 287.7 148.766 287.651 148.784 287.653C148.727 287.648 148.555 287.665 148.452 287.677C147.907 287.749 147.605 288.049 147.537 288.596C147.471 289.134 147.662 289.635 148.053 290.012C148.681 290.619 149.736 290.502 150.184 289.737C150.708 288.843 150.037 287.704 149.011 287.695Z" />
<path d="M148.452 287.677C148.454 287.677 148.456 287.676 148.458 287.676C148.329 287.692 148.366 287.686 148.452 287.677Z" />
<path d="M180.113 254.859C178.23 254.859 178.23 257.779 180.113 257.779C181.996 257.779 181.996 254.859 180.113 254.859Z" />
<path d="M179.324 215.814C179.552 215.859 179.778 215.893 180.01 215.885C180.788 215.857 181.554 215.072 181.253 214.254C181.15 214.141 181.123 214.019 181.172 213.887C181.194 213.752 181.195 213.628 181.184 213.492C181.144 213.023 180.455 212.86 180.313 213.346C179.911 213.22 179.375 213.379 179.099 213.684C178.995 213.787 178.98 213.809 179.055 213.748C178.316 214.255 178.288 215.607 179.324 215.814Z" />
<path d="M149.079 182.713C149.161 182.706 149.242 182.706 149.324 182.71C149.384 182.718 149.471 182.73 149.611 182.747C149.775 182.731 149.939 182.71 150.103 182.685C150.132 182.676 150.559 182.603 150.276 182.629C151.027 182.558 151.661 182.052 151.661 181.244C151.661 180.306 150.781 179.719 149.907 179.908C149.445 180.008 149.033 180.191 148.687 180.519C148.33 180.859 148.261 181.376 148.203 181.836C148.145 182.296 148.645 182.734 149.079 182.713Z" />
<path d="M107.492 185.361C109.636 185.361 109.636 182.037 107.492 182.037C105.348 182.036 105.348 185.361 107.492 185.361Z" />
<path d="M76.4554 218.904C76.5984 219.014 76.7404 219.124 76.8834 219.234C77.8934 220.012 79.3174 218.944 79.3174 217.838C79.3174 216.731 77.8934 215.663 76.8834 216.442C76.7404 216.552 76.5984 216.662 76.4554 216.772C75.6714 217.376 75.6714 218.299 76.4554 218.904Z" />
<path d="M77.771 255.94C77.616 256.042 77.478 256.17 77.331 256.363C77.113 256.648 77.111 257.235 77.331 257.519C77.821 258.154 78.747 258.499 79.505 258.055C80.137 257.685 80.296 256.995 80.222 256.32C80.056 254.816 78.235 254.703 77.771 255.94Z" />
<path d="M107.492 287.069C105.522 287.069 105.522 290.124 107.492 290.124C109.462 290.123 109.462 287.069 107.492 287.069Z" />
<path d="M377.367 608.128C420.815 606.93 464.282 609.463 507.713 608.068C486.268 617.256 463.767 624.183 443.278 635.423C442.906 635.627 443.165 636.277 443.571 636.119C464.565 627.978 485.922 620.631 506.75 612.051C482.055 638.434 454.496 662.17 431.786 690.349C431.486 690.721 431.977 691.248 432.324 690.885C457.034 665.123 483.594 641.18 508.204 615.332C499.878 636.262 492.814 657.717 484.944 678.811C484.791 679.219 485.44 679.479 485.639 679.104C496.664 658.383 503.311 635.691 512.286 614.046C513.96 657.37 510.546 700.869 514.936 744.065C514.983 744.542 515.709 744.563 515.696 744.065C514.494 700.471 517.048 656.859 515.621 613.282C523.721 635.462 533.322 657.113 542.01 679.06C542.188 679.506 542.865 679.344 542.745 678.858C537.138 656.454 527.11 635.464 519.315 613.758C544.338 640.21 571.471 664.601 596.678 690.884C597.025 691.246 597.516 690.719 597.217 690.347C574.666 662.366 547.337 638.765 522.774 612.603C543.121 620.615 563.937 627.498 584.412 635.141C584.819 635.291 585.083 634.646 584.705 634.445C564.164 623.515 541.687 616.888 520.209 608.03C563.999 609.502 607.829 606.92 651.636 608.128C652.135 608.142 652.113 607.417 651.636 607.368C609.633 603.099 567.347 606.205 525.209 604.842C545.842 597.105 566.06 588.195 586.539 580.087C586.986 579.911 586.823 579.232 586.337 579.352C563.602 585.042 542.324 595.287 520.272 603.129C547.037 577.896 571.655 550.469 598.205 525.003C598.566 524.656 598.039 524.165 597.667 524.466C568.638 547.864 544.321 576.405 516.969 601.661C524.527 579.532 534.487 558.137 539.882 535.347C539.996 534.861 539.32 534.693 539.148 535.146C531.507 555.179 523.113 574.981 515.777 595.141C516.839 553.374 514.543 511.577 515.694 469.796C515.708 469.299 514.981 469.319 514.934 469.796C510.659 511.855 513.783 554.197 512.406 596.389C503.997 576.113 497.242 555.067 486.674 535.801C486.469 535.428 485.821 535.687 485.978 536.094C494.238 557.395 501.688 579.066 510.429 600.183C483.725 575.297 459.799 547.405 431.336 524.464C430.961 524.163 430.437 524.656 430.797 525.001C457.611 550.72 482.457 578.441 509.528 603.881C486.588 596.242 464.512 585.779 440.945 580.195C440.461 580.08 440.292 580.757 440.744 580.93C461.304 588.774 481.615 597.415 502.324 604.883C460.671 606.129 418.878 603.146 377.364 607.367C376.888 607.416 376.868 608.142 377.367 608.128Z" />
<path d="M548.129 518.042C548.268 518.03 548.405 518.03 548.544 518.037C548.645 518.051 548.793 518.071 549.03 518.1C549.307 518.073 549.585 518.037 549.863 517.995C549.912 517.979 550.635 517.856 550.156 517.9C551.427 517.78 552.5 516.923 552.5 515.555C552.5 513.967 551.011 512.973 549.531 513.293C548.749 513.462 548.051 513.772 547.465 514.328C546.861 514.903 546.744 515.778 546.646 516.557C546.548 517.336 547.394 518.078 548.129 518.042Z" />
<path d="M477.721 522.525C481.351 522.525 481.351 516.898 477.721 516.898C474.091 516.896 474.091 522.525 477.721 522.525Z" />
<path d="M179.367 -29.8715C222.815 -31.0702 266.282 -28.5374 309.713 -29.9325C288.268 -20.7444 265.767 -13.8166 245.278 -2.57655C244.906 -2.37339 245.165 -1.72327 245.571 -1.88072C266.565 -10.0225 287.922 -17.3685 308.75 -25.9488C284.055 0.433646 256.496 24.1699 233.786 52.3486C233.486 52.7211 233.977 53.2476 234.324 52.8853C259.034 27.1225 285.594 3.17974 310.204 -22.6677C301.878 -1.7385 294.814 19.7172 286.944 40.8106C286.791 41.2186 287.44 41.4794 287.639 41.1035C298.664 20.3826 305.311 -2.30905 314.286 -23.9544C315.96 19.3701 312.546 62.8691 316.936 106.065C316.983 106.542 317.709 106.563 317.696 106.065C316.494 62.4712 319.048 18.8589 317.621 -24.7179C325.721 -2.53761 335.322 19.1128 344.01 41.0595C344.188 41.5065 344.865 41.3439 344.745 40.858C339.138 18.4542 329.11 -2.53592 321.315 -24.2422C346.338 2.20964 373.471 26.6011 398.678 52.8836C399.025 53.2459 399.516 52.7194 399.217 52.3469C376.666 24.3663 349.337 0.765486 324.774 -25.3968C345.121 -17.3854 365.937 -10.5016 386.412 -2.85929C386.819 -2.70861 387.083 -3.35364 386.705 -3.55511C366.164 -14.4853 343.687 -21.1118 322.209 -29.9697C365.999 -28.4985 409.829 -31.0803 453.636 -29.8715C454.135 -29.858 454.113 -30.5826 453.636 -30.6317C411.633 -34.9015 369.347 -31.7948 327.209 -33.1577C347.842 -40.8948 368.06 -49.8052 388.539 -57.9131C388.986 -58.0892 388.823 -58.7681 388.337 -58.6479C365.602 -52.9576 344.324 -42.7131 322.272 -34.871C349.037 -60.1039 373.655 -87.5309 400.205 -112.997C400.566 -113.344 400.039 -113.835 399.667 -113.534C370.638 -90.1365 346.321 -61.5954 318.969 -36.3389C326.527 -58.4684 336.487 -79.8632 341.882 -102.653C341.996 -103.139 341.32 -103.307 341.148 -102.854C333.507 -82.8209 325.113 -63.0193 317.777 -42.8587C318.839 -84.6257 316.543 -126.423 317.694 -168.204C317.708 -168.701 316.981 -168.681 316.934 -168.204C312.659 -126.145 315.783 -83.8029 314.406 -41.611C305.997 -61.8866 299.242 -82.9327 288.674 -102.199C288.469 -102.572 287.821 -102.313 287.978 -101.906C296.238 -80.6047 303.688 -58.934 312.429 -37.8169C285.725 -62.7027 261.799 -90.5953 233.336 -113.536C232.961 -113.837 232.437 -113.344 232.797 -112.999C259.611 -87.2803 284.457 -59.5587 311.528 -34.1193C288.588 -41.7583 266.512 -52.2212 242.945 -57.8048C242.461 -57.9199 242.292 -57.2427 242.744 -57.07C263.304 -49.2262 283.615 -40.585 304.324 -33.1171C262.671 -31.871 220.878 -34.8541 179.364 -30.6334C178.888 -30.5843 178.868 -29.858 179.367 -29.8715Z" />
<path d="M350.014 57.7787C350.972 57.7871 349.599 57.7042 349.63 57.7076C349.533 57.6991 349.242 57.7279 349.067 57.7482C348.145 57.8701 347.633 58.378 347.518 59.3041C347.407 60.2149 347.73 61.0631 348.392 61.7014C349.455 62.7291 351.241 62.531 352 61.2358C352.887 59.7223 351.751 57.7939 350.014 57.7787Z" />
<path d="M349.067 57.7475C349.07 57.7475 349.074 57.7458 349.077 57.7458C348.859 57.7729 348.921 57.7628 349.067 57.7475Z" />
<path d="M402.67 2.18722C399.482 2.18722 399.482 7.13086 402.67 7.13086C405.858 7.13086 405.858 2.18722 402.67 2.18722Z" />
<path d="M229.403 4.01564C229.14 4.18833 228.907 4.40503 228.658 4.73179C228.289 5.2143 228.285 6.2081 228.658 6.68892C229.487 7.764 231.055 8.34809 232.338 7.59639C233.408 6.96997 233.677 5.80178 233.552 4.65899C233.271 2.11268 230.188 1.92136 229.403 4.01564Z" />
<path d="M279.721 56.7194C276.386 56.7194 276.386 61.8916 279.721 61.8916C283.056 61.8899 283.056 56.7194 279.721 56.7194Z" />
<path d="M137.367 478.128C180.815 476.93 224.282 479.463 267.713 478.068C246.268 487.256 223.767 494.183 203.278 505.423C202.906 505.627 203.165 506.277 203.571 506.119C224.565 497.978 245.922 490.631 266.75 482.051C242.055 508.434 214.496 532.17 191.786 560.349C191.486 560.721 191.977 561.248 192.324 560.885C217.034 535.123 243.594 511.18 268.204 485.332C259.878 506.262 252.814 527.717 244.944 548.811C244.791 549.219 245.44 549.479 245.639 549.104C256.664 528.383 263.311 505.691 272.286 484.046C273.96 527.37 270.546 570.869 274.936 614.065C274.983 614.542 275.709 614.563 275.696 614.065C274.494 570.471 277.048 526.859 275.621 483.282C283.721 505.462 293.322 527.113 302.01 549.06C302.188 549.506 302.865 549.344 302.745 548.858C297.138 526.454 287.11 505.464 279.315 483.758C304.338 510.21 331.471 534.601 356.678 560.884C357.025 561.246 357.516 560.719 357.217 560.347C334.666 532.366 307.337 508.765 282.774 482.603C303.121 490.615 323.937 497.498 344.412 505.141C344.819 505.291 345.083 504.646 344.705 504.445C324.164 493.515 301.687 486.888 280.209 478.03C323.999 479.502 367.829 476.92 411.636 478.128C412.135 478.142 412.113 477.417 411.636 477.368C369.633 473.099 327.347 476.205 285.209 474.842C305.842 467.105 326.06 458.195 346.539 450.087C346.986 449.911 346.823 449.232 346.337 449.352C323.602 455.042 302.324 465.287 280.272 473.129C307.037 447.896 331.655 420.469 358.205 395.003C358.566 394.656 358.039 394.165 357.667 394.466C328.638 417.864 304.321 446.405 276.969 471.661C284.527 449.532 294.487 428.137 299.882 405.347C299.996 404.861 299.32 404.693 299.148 405.146C291.507 425.179 283.113 444.981 275.777 465.141C276.839 423.374 274.543 381.577 275.694 339.796C275.708 339.299 274.981 339.319 274.934 339.796C270.659 381.855 273.783 424.197 272.406 466.389C263.997 446.113 257.242 425.067 246.674 405.801C246.469 405.428 245.821 405.687 245.978 406.094C254.238 427.395 261.688 449.066 270.429 470.183C243.725 445.297 219.799 417.405 191.336 394.464C190.961 394.163 190.437 394.656 190.797 395.001C217.611 420.72 242.457 448.441 269.528 473.881C246.588 466.242 224.512 455.779 200.945 450.195C200.461 450.08 200.292 450.757 200.744 450.93C221.304 458.774 241.615 467.415 262.324 474.883C220.671 476.129 178.878 473.146 137.364 477.367C136.888 477.416 136.868 478.142 137.367 478.128Z" />
<path d="M360.67 510.187C357.482 510.187 357.482 515.131 360.67 515.131C363.858 515.131 363.858 510.187 360.67 510.187Z" />
<path d="M359.335 444.082C359.721 444.158 360.103 444.216 360.496 444.202C361.813 444.155 363.11 442.826 362.6 441.441C362.426 441.249 362.38 441.043 362.463 440.819C362.501 440.591 362.502 440.381 362.484 440.151C362.416 439.357 361.249 439.081 361.009 439.904C360.328 439.69 359.421 439.959 358.954 440.476C358.778 440.65 358.752 440.687 358.879 440.584C357.628 441.442 357.581 443.731 359.335 444.082Z" />
<path d="M308.129 388.042C308.268 388.03 308.405 388.03 308.544 388.037C308.645 388.051 308.793 388.071 309.03 388.1C309.307 388.073 309.585 388.037 309.863 387.995C309.912 387.979 310.635 387.856 310.156 387.9C311.427 387.78 312.5 386.923 312.5 385.555C312.5 383.967 311.011 382.973 309.531 383.293C308.749 383.462 308.051 383.772 307.465 384.328C306.861 384.903 306.744 385.778 306.646 386.557C306.548 387.336 307.394 388.078 308.129 388.042Z" />
<path d="M237.721 392.525C241.351 392.525 241.351 386.898 237.721 386.898C234.091 386.896 234.091 392.525 237.721 392.525Z" />
<path d="M185.175 449.314C185.417 449.5 185.658 449.686 185.9 449.873C187.61 451.19 190.021 449.382 190.021 447.509C190.021 445.635 187.61 443.827 185.9 445.146C185.658 445.332 185.417 445.518 185.175 445.704C183.848 446.727 183.848 448.29 185.175 449.314Z" />
<path d="M187.403 512.016C187.14 512.188 186.907 512.405 186.658 512.732C186.289 513.214 186.285 514.208 186.658 514.689C187.487 515.764 189.055 516.348 190.338 515.596C191.408 514.97 191.677 513.802 191.552 512.659C191.271 510.113 188.188 509.921 187.403 512.016Z" />
<path d="M431.367 156.128C474.815 154.93 518.282 157.463 561.713 156.068C540.268 165.256 517.767 172.183 497.278 183.423C496.906 183.627 497.165 184.277 497.571 184.119C518.565 175.978 539.922 168.631 560.75 160.051C536.055 186.434 508.496 210.17 485.786 238.349C485.486 238.721 485.977 239.248 486.324 238.885C511.034 213.123 537.594 189.18 562.204 163.332C553.878 184.262 546.814 205.717 538.944 226.811C538.791 227.219 539.44 227.479 539.639 227.104C550.664 206.383 557.311 183.691 566.286 162.046C567.96 205.37 564.546 248.869 568.936 292.065C568.983 292.542 569.709 292.563 569.696 292.065C568.494 248.471 571.048 204.859 569.621 161.282C577.721 183.462 587.322 205.113 596.01 227.06C596.188 227.506 596.865 227.344 596.745 226.858C591.138 204.454 581.11 183.464 573.315 161.758C598.338 188.21 625.471 212.601 650.678 238.884C651.025 239.246 651.516 238.719 651.217 238.347C628.666 210.366 601.337 186.765 576.774 160.603C597.121 168.615 617.937 175.498 638.412 183.141C638.819 183.291 639.083 182.646 638.705 182.445C618.164 171.515 595.687 164.888 574.209 156.03C617.999 157.502 661.829 154.92 705.636 156.128C706.135 156.142 706.113 155.417 705.636 155.368C663.633 151.099 621.347 154.205 579.209 152.842C599.842 145.105 620.06 136.195 640.539 128.087C640.986 127.911 640.823 127.232 640.337 127.352C617.602 133.042 596.324 143.287 574.272 151.129C601.037 125.896 625.655 98.4691 652.205 73.0026C652.566 72.6555 652.039 72.1645 651.667 72.4659C622.638 95.8635 598.321 124.405 570.969 149.661C578.527 127.532 588.487 106.137 593.882 83.347C593.996 82.8611 593.32 82.6935 593.148 83.1455C585.507 103.179 577.113 122.981 569.777 143.141C570.839 101.374 568.543 59.5769 569.694 17.7964C569.708 17.2986 568.981 17.319 568.934 17.7964C564.659 59.8545 567.783 102.197 566.406 144.389C557.997 124.113 551.242 103.067 540.674 83.8007C540.469 83.4282 539.821 83.6873 539.978 84.0936C548.238 105.395 555.688 127.066 564.429 148.183C537.725 123.297 513.799 95.4047 485.336 72.4642C484.961 72.1629 484.437 72.6555 484.797 73.0009C511.611 98.7197 536.457 126.441 563.528 151.881C540.588 144.242 518.512 133.779 494.945 128.195C494.461 128.08 494.292 128.757 494.744 128.93C515.304 136.774 535.615 145.415 556.324 152.883C514.671 154.129 472.878 151.146 431.364 155.367C430.888 155.416 430.868 156.142 431.367 156.128Z" />
<path d="M342.18 489.51C363.193 488.93 384.214 490.155 405.218 489.48C394.847 493.924 383.965 497.274 374.056 502.71C373.876 502.808 374.001 503.123 374.198 503.047C384.351 499.109 394.68 495.556 404.753 491.407C392.81 504.166 379.482 515.645 368.498 529.273C368.353 529.453 368.591 529.708 368.759 529.533C380.709 517.073 393.554 505.494 405.456 492.994C401.429 503.116 398.013 513.492 394.207 523.693C394.133 523.891 394.447 524.017 394.543 523.835C399.875 513.814 403.09 502.84 407.43 492.371C408.24 513.324 406.588 534.361 408.711 555.252C408.734 555.483 409.086 555.493 409.079 555.252C408.498 534.169 409.733 513.077 409.043 492.002C412.96 502.729 417.603 513.2 421.805 523.814C421.891 524.03 422.219 523.951 422.161 523.716C419.449 512.881 414.599 502.73 410.83 492.232C422.931 505.025 436.053 516.821 448.244 529.532C448.412 529.707 448.649 529.453 448.505 529.273C437.598 515.74 424.381 504.327 412.502 491.674C422.343 495.548 432.41 498.877 442.312 502.573C442.509 502.646 442.636 502.334 442.454 502.237C432.519 496.951 421.649 493.746 411.262 489.462C432.44 490.174 453.637 488.925 474.823 489.51C475.064 489.516 475.054 489.166 474.823 489.142C454.51 487.077 434.059 488.58 413.68 487.92C423.658 484.179 433.436 479.869 443.34 475.948C443.557 475.863 443.478 475.535 443.243 475.593C432.247 478.345 421.957 483.299 411.292 487.092C424.236 474.889 436.142 461.624 448.983 449.308C449.157 449.14 448.902 448.903 448.722 449.049C434.683 460.364 422.923 474.167 409.695 486.382C413.35 475.68 418.167 465.333 420.776 454.311C420.831 454.076 420.504 453.995 420.421 454.213C416.726 463.902 412.666 473.479 409.118 483.229C409.632 463.029 408.521 442.815 409.078 422.609C409.085 422.368 408.734 422.378 408.711 422.609C406.643 442.949 408.154 463.427 407.488 483.832C403.421 474.026 400.154 463.848 395.043 454.53C394.944 454.35 394.631 454.475 394.707 454.672C398.702 464.974 402.304 475.454 406.532 485.667C393.617 473.632 382.046 460.142 368.28 449.048C368.1 448.902 367.846 449.14 368.02 449.307C380.988 461.745 393.004 475.152 406.096 487.455C395.002 483.761 384.325 478.701 372.928 476.001C372.694 475.945 372.612 476.272 372.831 476.356C382.774 480.149 392.597 484.328 402.612 487.94C382.468 488.543 362.256 487.1 342.178 489.141C341.948 489.165 341.938 489.516 342.18 489.51Z" />
<path d="M26.178 439.513C47.1906 438.933 68.2122 440.158 89.2165 439.483C78.8449 443.927 67.9632 447.277 58.0543 452.713C57.8741 452.811 57.9994 453.126 58.1959 453.05C68.3489 449.112 78.6779 445.559 88.7506 441.41C76.8078 454.169 63.4796 465.648 52.4963 479.276C52.3514 479.456 52.5889 479.711 52.7567 479.536C64.7069 467.076 77.5521 455.497 89.454 442.997C85.4272 453.118 82.0112 463.495 78.2046 473.696C78.131 473.894 78.4446 474.02 78.5412 473.838C83.8731 463.817 87.0877 452.843 91.4281 442.374C92.2378 463.327 90.5864 484.364 92.7095 505.255C92.7324 505.486 93.0837 505.495 93.0771 505.255C92.4958 484.172 93.7313 463.08 93.0411 442.005C96.9582 452.732 101.602 463.203 105.804 473.817C105.889 474.033 106.217 473.954 106.159 473.719C103.447 462.884 98.5974 452.733 94.8277 442.235C106.929 455.028 120.051 466.824 132.242 479.535C132.41 479.71 132.647 479.456 132.503 479.275C121.596 465.743 108.379 454.329 96.5005 441.677C106.341 445.551 116.408 448.88 126.31 452.576C126.507 452.649 126.634 452.337 126.452 452.24C116.517 446.954 105.647 443.749 95.26 439.465C116.438 440.177 137.635 438.928 158.821 439.513C159.062 439.519 159.052 439.169 158.821 439.145C138.508 437.08 118.057 438.583 97.6779 437.923C107.656 434.182 117.434 429.872 127.338 425.951C127.555 425.866 127.476 425.538 127.241 425.596C116.246 428.348 105.955 433.302 95.2903 437.095C108.235 424.892 120.141 411.627 132.981 399.311C133.155 399.143 132.9 398.906 132.72 399.051C118.681 410.367 106.921 424.17 93.6928 436.385C97.3479 425.683 102.165 415.335 104.774 404.314C104.829 404.079 104.502 403.998 104.419 404.216C100.724 413.905 96.6642 423.482 93.1164 433.232C93.6298 413.032 92.5195 392.818 93.0763 372.612C93.0828 372.371 92.7316 372.381 92.7087 372.612C90.6412 392.952 92.1519 413.43 91.4862 433.835C87.4193 424.029 84.1523 413.851 79.0414 404.533C78.9424 404.353 78.6288 404.478 78.7049 404.675C82.6998 414.977 86.3025 425.457 90.5299 435.67C77.6151 423.635 66.044 410.145 52.2785 399.051C52.0976 398.905 51.8438 399.143 52.0182 399.31C64.9861 411.748 77.0018 425.155 90.0943 437.458C78.9997 433.764 68.3235 428.704 56.926 426.003C56.6918 425.948 56.6099 426.275 56.8286 426.359C66.7719 430.152 76.5949 434.331 86.6103 437.943C66.4657 438.546 46.2539 437.103 26.1764 439.144C25.9463 439.168 25.9365 439.519 26.178 439.513Z" />
<path d="M888.217 270.924C913.88 270.216 939.554 271.712 965.207 270.888C952.54 276.315 939.25 280.407 927.148 287.046C926.928 287.166 927.081 287.55 927.321 287.457C939.721 282.648 952.336 278.309 964.638 273.241C950.052 288.824 933.774 302.844 920.36 319.488C920.183 319.708 920.473 320.019 920.678 319.805C935.273 304.588 950.961 290.446 965.497 275.179C960.579 287.541 956.407 300.214 951.758 312.673C951.668 312.914 952.051 313.068 952.169 312.846C958.681 300.607 962.607 287.204 967.908 274.419C968.897 300.009 966.88 325.702 969.473 351.216C969.501 351.498 969.93 351.51 969.922 351.216C969.212 325.467 970.721 299.707 969.878 273.968C974.662 287.069 980.333 299.857 985.465 312.82C985.57 313.084 985.97 312.988 985.899 312.701C982.587 299.468 976.664 287.07 972.06 274.249C986.84 289.873 1002.87 304.28 1017.76 319.804C1017.96 320.018 1018.25 319.707 1018.07 319.487C1004.75 302.96 988.611 289.02 974.103 273.567C986.121 278.299 998.416 282.365 1010.51 286.879C1010.75 286.968 1010.91 286.587 1010.68 286.468C998.55 280.012 985.274 276.098 972.588 270.866C998.453 271.735 1024.34 270.21 1050.22 270.924C1050.51 270.932 1050.5 270.504 1050.22 270.475C1025.41 267.953 1000.43 269.788 975.541 268.983C987.728 264.413 999.67 259.15 1011.77 254.361C1012.03 254.257 1011.93 253.856 1011.65 253.927C998.218 257.288 985.65 263.339 972.625 267.971C988.434 253.067 1002.98 236.867 1018.66 221.825C1018.87 221.62 1018.56 221.33 1018.34 221.508C1001.19 235.328 986.83 252.186 970.674 267.104C975.138 254.033 981.021 241.396 984.208 227.935C984.275 227.648 983.876 227.549 983.774 227.816C979.261 239.649 974.303 251.345 969.97 263.253C970.597 238.583 969.241 213.895 969.921 189.217C969.929 188.923 969.5 188.935 969.472 189.217C966.947 214.059 968.792 239.069 967.979 263.99C963.012 252.014 959.022 239.583 952.78 228.203C952.659 227.983 952.276 228.136 952.369 228.376C957.248 240.958 961.648 253.758 966.811 266.231C951.038 251.532 936.906 235.057 920.094 221.507C919.873 221.329 919.563 221.62 919.776 221.824C935.614 237.015 950.289 253.389 966.279 268.415C952.729 263.903 939.69 257.723 925.77 254.425C925.484 254.357 925.384 254.757 925.651 254.859C937.795 259.492 949.792 264.596 962.024 269.007C937.421 269.743 912.736 267.981 888.215 270.474C887.934 270.503 887.922 270.932 888.217 270.924Z" />
<path d="M989.011 322.695C989.577 322.7 988.766 322.651 988.784 322.653C988.727 322.648 988.555 322.665 988.452 322.677C987.907 322.749 987.605 323.049 987.537 323.596C987.471 324.134 987.662 324.635 988.053 325.012C988.681 325.619 989.736 325.502 990.184 324.737C990.708 323.843 990.037 322.704 989.011 322.695Z" />
<path d="M988.452 322.677C988.454 322.677 988.456 322.676 988.458 322.676C988.329 322.692 988.366 322.686 988.452 322.677Z" />
<path d="M1020.11 289.859C1018.23 289.859 1018.23 292.779 1020.11 292.779C1022 292.779 1022 289.859 1020.11 289.859Z" />
<path d="M1019.32 250.814C1019.55 250.859 1019.78 250.893 1020.01 250.885C1020.79 250.857 1021.55 250.072 1021.25 249.254C1021.15 249.141 1021.12 249.019 1021.17 248.887C1021.19 248.752 1021.2 248.628 1021.18 248.492C1021.14 248.023 1020.46 247.86 1020.31 248.346C1019.91 248.22 1019.38 248.379 1019.1 248.684C1019 248.787 1018.98 248.809 1019.06 248.748C1018.32 249.255 1018.29 250.607 1019.32 250.814Z" />
<path d="M989.079 217.713C989.161 217.706 989.242 217.706 989.324 217.71C989.384 217.718 989.471 217.73 989.611 217.747C989.775 217.731 989.939 217.71 990.103 217.685C990.132 217.676 990.559 217.603 990.276 217.629C991.027 217.558 991.661 217.052 991.661 216.244C991.661 215.306 990.781 214.719 989.907 214.908C989.445 215.008 989.033 215.191 988.687 215.519C988.33 215.859 988.261 216.376 988.203 216.836C988.145 217.296 988.645 217.734 989.079 217.713Z" />
<path d="M947.492 220.361C949.636 220.361 949.636 217.037 947.492 217.037C945.348 217.036 945.348 220.361 947.492 220.361Z" />
<path d="M916.455 253.904C916.598 254.014 916.74 254.124 916.883 254.234C917.893 255.012 919.317 253.944 919.317 252.838C919.317 251.731 917.893 250.663 916.883 251.442C916.74 251.552 916.598 251.662 916.455 251.772C915.671 252.376 915.671 253.299 916.455 253.904Z" />
<path d="M917.771 290.94C917.616 291.042 917.478 291.17 917.331 291.363C917.113 291.648 917.111 292.235 917.331 292.519C917.821 293.154 918.747 293.499 919.505 293.055C920.137 292.685 920.296 291.995 920.222 291.32C920.056 289.816 918.235 289.703 917.771 290.94Z" />
<path d="M947.492 322.069C945.522 322.069 945.522 325.124 947.492 325.124C949.462 325.123 949.462 322.069 947.492 322.069Z" />
<path d="M693.217 235.924C718.88 235.216 744.554 236.712 770.207 235.888C757.54 241.315 744.25 245.407 732.148 252.046C731.928 252.166 732.081 252.55 732.321 252.457C744.721 247.648 757.336 243.309 769.638 238.241C755.052 253.824 738.774 267.844 725.36 284.488C725.183 284.708 725.473 285.019 725.678 284.805C740.273 269.588 755.961 255.446 770.497 240.179C765.579 252.541 761.407 265.214 756.758 277.673C756.668 277.914 757.051 278.068 757.169 277.846C763.681 265.607 767.607 252.204 772.908 239.419C773.897 265.009 771.88 290.702 774.473 316.216C774.501 316.498 774.93 316.51 774.922 316.216C774.212 290.467 775.721 264.707 774.878 238.968C779.662 252.069 785.333 264.857 790.465 277.82C790.57 278.084 790.97 277.988 790.899 277.701C787.587 264.468 781.664 252.07 777.06 239.249C791.84 254.873 807.866 269.28 822.755 284.804C822.96 285.018 823.25 284.707 823.073 284.487C809.753 267.96 793.611 254.02 779.103 238.567C791.121 243.299 803.416 247.365 815.51 251.879C815.75 251.968 815.906 251.587 815.683 251.468C803.55 245.012 790.274 241.098 777.588 235.866C803.453 236.735 829.341 235.21 855.216 235.924C855.511 235.932 855.498 235.504 855.216 235.475C830.407 232.953 805.43 234.788 780.541 233.983C792.728 229.413 804.67 224.15 816.766 219.361C817.03 219.257 816.934 218.856 816.647 218.927C803.218 222.288 790.65 228.339 777.625 232.971C793.434 218.067 807.975 201.867 823.657 186.825C823.87 186.62 823.559 186.33 823.339 186.508C806.193 200.328 791.83 217.186 775.674 232.104C780.138 219.033 786.021 206.396 789.208 192.935C789.275 192.648 788.876 192.549 788.774 192.816C784.261 204.649 779.303 216.345 774.97 228.253C775.597 203.583 774.241 178.895 774.921 154.217C774.929 153.923 774.5 153.935 774.472 154.217C771.947 179.059 773.792 204.069 772.979 228.99C768.012 217.014 764.022 204.583 757.78 193.203C757.659 192.983 757.276 193.136 757.369 193.376C762.248 205.958 766.648 218.758 771.811 231.231C756.038 216.532 741.906 200.057 725.094 186.507C724.873 186.329 724.563 186.62 724.776 186.824C740.614 202.015 755.289 218.389 771.279 233.415C757.729 228.903 744.69 222.723 730.77 219.425C730.484 219.357 730.384 219.757 730.651 219.859C742.795 224.492 754.792 229.596 767.024 234.007C742.421 234.743 717.736 232.981 693.215 235.474C692.934 235.503 692.922 235.932 693.217 235.924Z" />
<path d="M794.011 287.695C794.577 287.7 793.766 287.651 793.784 287.653C793.727 287.648 793.555 287.665 793.452 287.677C792.907 287.749 792.605 288.049 792.537 288.596C792.471 289.134 792.662 289.635 793.053 290.012C793.681 290.619 794.736 290.502 795.184 289.737C795.708 288.843 795.037 287.704 794.011 287.695Z" />
<path d="M793.452 287.677C793.454 287.677 793.456 287.676 793.458 287.676C793.329 287.692 793.366 287.686 793.452 287.677Z" />
<path d="M825.113 254.859C823.23 254.859 823.23 257.779 825.113 257.779C826.996 257.779 826.996 254.859 825.113 254.859Z" />
<path d="M824.324 215.814C824.552 215.859 824.778 215.893 825.01 215.885C825.788 215.857 826.554 215.072 826.253 214.254C826.15 214.141 826.123 214.019 826.172 213.887C826.194 213.752 826.195 213.628 826.184 213.492C826.144 213.023 825.455 212.86 825.313 213.346C824.911 213.22 824.375 213.379 824.099 213.684C823.995 213.787 823.98 213.809 824.055 213.748C823.316 214.255 823.288 215.607 824.324 215.814Z" />
<path d="M794.079 182.713C794.161 182.706 794.242 182.706 794.324 182.71C794.384 182.718 794.471 182.73 794.611 182.747C794.775 182.731 794.939 182.71 795.103 182.685C795.132 182.676 795.559 182.603 795.276 182.629C796.027 182.558 796.661 182.052 796.661 181.244C796.661 180.306 795.781 179.719 794.907 179.908C794.445 180.008 794.033 180.191 793.687 180.519C793.33 180.859 793.261 181.376 793.203 181.836C793.145 182.296 793.645 182.734 794.079 182.713Z" />
<path d="M752.492 185.361C754.636 185.361 754.636 182.037 752.492 182.037C750.348 182.036 750.348 185.361 752.492 185.361Z" />
<path d="M721.455 218.904C721.598 219.014 721.74 219.124 721.883 219.234C722.893 220.012 724.317 218.944 724.317 217.838C724.317 216.731 722.893 215.663 721.883 216.442C721.74 216.552 721.598 216.662 721.455 216.772C720.671 217.376 720.671 218.299 721.455 218.904Z" />
<path d="M722.771 255.94C722.616 256.042 722.478 256.17 722.331 256.363C722.113 256.648 722.111 257.235 722.331 257.519C722.821 258.154 723.747 258.499 724.505 258.055C725.137 257.685 725.296 256.995 725.222 256.32C725.056 254.816 723.235 254.703 722.771 255.94Z" />
<path d="M752.492 287.069C750.522 287.069 750.522 290.124 752.492 290.124C754.462 290.123 754.462 287.069 752.492 287.069Z" />
<path d="M1022.37 608.128C1065.82 606.93 1109.28 609.463 1152.71 608.068C1131.27 617.256 1108.77 624.183 1088.28 635.423C1087.91 635.627 1088.16 636.277 1088.57 636.119C1109.56 627.978 1130.92 620.631 1151.75 612.051C1127.06 638.434 1099.5 662.17 1076.79 690.349C1076.49 690.721 1076.98 691.248 1077.32 690.885C1102.03 665.123 1128.59 641.18 1153.2 615.332C1144.88 636.262 1137.81 657.717 1129.94 678.811C1129.79 679.219 1130.44 679.479 1130.64 679.104C1141.66 658.383 1148.31 635.691 1157.29 614.046C1158.96 657.37 1155.55 700.869 1159.94 744.065C1159.98 744.542 1160.71 744.563 1160.7 744.065C1159.49 700.471 1162.05 656.859 1160.62 613.282C1168.72 635.462 1178.32 657.113 1187.01 679.06C1187.19 679.506 1187.87 679.344 1187.75 678.858C1182.14 656.454 1172.11 635.464 1164.32 613.758C1189.34 640.21 1216.47 664.601 1241.68 690.884C1242.03 691.246 1242.52 690.719 1242.22 690.347C1219.67 662.366 1192.34 638.765 1167.77 612.603C1188.12 620.615 1208.94 627.498 1229.41 635.141C1229.82 635.291 1230.08 634.646 1229.71 634.445C1209.16 623.515 1186.69 616.888 1165.21 608.03C1209 609.502 1252.83 606.92 1296.64 608.128C1297.14 608.142 1297.11 607.417 1296.64 607.368C1254.63 603.099 1212.35 606.205 1170.21 604.842C1190.84 597.105 1211.06 588.195 1231.54 580.087C1231.99 579.911 1231.82 579.232 1231.34 579.352C1208.6 585.042 1187.32 595.287 1165.27 603.129C1192.04 577.896 1216.66 550.469 1243.21 525.003C1243.57 524.656 1243.04 524.165 1242.67 524.466C1213.64 547.864 1189.32 576.405 1161.97 601.661C1169.53 579.532 1179.49 558.137 1184.88 535.347C1185 534.861 1184.32 534.693 1184.15 535.146C1176.51 555.179 1168.11 574.981 1160.78 595.141C1161.84 553.374 1159.54 511.577 1160.69 469.796C1160.71 469.299 1159.98 469.319 1159.93 469.796C1155.66 511.855 1158.78 554.197 1157.41 596.389C1149 576.113 1142.24 555.067 1131.67 535.801C1131.47 535.428 1130.82 535.687 1130.98 536.094C1139.24 557.395 1146.69 579.066 1155.43 600.183C1128.72 575.297 1104.8 547.405 1076.34 524.464C1075.96 524.163 1075.44 524.656 1075.8 525.001C1102.61 550.72 1127.46 578.441 1154.53 603.881C1131.59 596.242 1109.51 585.779 1085.95 580.195C1085.46 580.08 1085.29 580.757 1085.74 580.93C1106.3 588.774 1126.62 597.415 1147.32 604.883C1105.67 606.129 1063.88 603.146 1022.36 607.367C1021.89 607.416 1021.87 608.142 1022.37 608.128Z" />
<path d="M1122.72 522.525C1126.35 522.525 1126.35 516.898 1122.72 516.898C1119.09 516.896 1119.09 522.525 1122.72 522.525Z" />
<path d="M824.367 -29.8715C867.815 -31.0702 911.282 -28.5374 954.713 -29.9325C933.268 -20.7444 910.767 -13.8166 890.278 -2.57655C889.906 -2.37339 890.165 -1.72327 890.571 -1.88072C911.565 -10.0225 932.922 -17.3685 953.75 -25.9488C929.055 0.433646 901.496 24.1699 878.786 52.3486C878.486 52.7211 878.977 53.2476 879.324 52.8853C904.034 27.1225 930.594 3.17974 955.204 -22.6677C946.878 -1.7385 939.814 19.7172 931.944 40.8106C931.791 41.2186 932.44 41.4794 932.639 41.1035C943.664 20.3826 950.311 -2.30905 959.286 -23.9544C960.96 19.3701 957.546 62.8691 961.936 106.065C961.983 106.542 962.709 106.563 962.696 106.065C961.494 62.4712 964.048 18.8589 962.621 -24.7179C970.721 -2.53761 980.322 19.1128 989.01 41.0595C989.188 41.5065 989.865 41.3439 989.745 40.858C984.138 18.4542 974.11 -2.53592 966.315 -24.2422C991.338 2.20964 1018.47 26.6011 1043.68 52.8836C1044.03 53.2459 1044.52 52.7194 1044.22 52.3469C1021.67 24.3663 994.337 0.765486 969.774 -25.3968C990.121 -17.3854 1010.94 -10.5016 1031.41 -2.85929C1031.82 -2.70861 1032.08 -3.35364 1031.71 -3.55511C1011.16 -14.4853 988.687 -21.1118 967.209 -29.9697C1011 -28.4985 1054.83 -31.0803 1098.64 -29.8715C1099.14 -29.858 1099.11 -30.5826 1098.64 -30.6317C1056.63 -34.9015 1014.35 -31.7948 972.209 -33.1577C992.842 -40.8948 1013.06 -49.8052 1033.54 -57.9131C1033.99 -58.0892 1033.82 -58.7681 1033.34 -58.6479C1010.6 -52.9576 989.324 -42.7131 967.272 -34.871C994.037 -60.1039 1018.66 -87.5309 1045.21 -112.997C1045.57 -113.344 1045.04 -113.835 1044.67 -113.534C1015.64 -90.1365 991.321 -61.5954 963.969 -36.3389C971.527 -58.4684 981.487 -79.8632 986.882 -102.653C986.996 -103.139 986.32 -103.307 986.148 -102.854C978.507 -82.8209 970.113 -63.0193 962.777 -42.8587C963.839 -84.6257 961.543 -126.423 962.694 -168.204C962.708 -168.701 961.981 -168.681 961.934 -168.204C957.659 -126.145 960.783 -83.8029 959.406 -41.611C950.997 -61.8866 944.242 -82.9327 933.674 -102.199C933.469 -102.572 932.821 -102.313 932.978 -101.906C941.238 -80.6047 948.688 -58.934 957.429 -37.8169C930.725 -62.7027 906.799 -90.5953 878.336 -113.536C877.961 -113.837 877.437 -113.344 877.797 -112.999C904.611 -87.2803 929.457 -59.5587 956.528 -34.1193C933.588 -41.7583 911.512 -52.2212 887.945 -57.8048C887.461 -57.9199 887.292 -57.2427 887.744 -57.07C908.304 -49.2262 928.615 -40.585 949.324 -33.1171C907.671 -31.871 865.878 -34.8541 824.364 -30.6334C823.888 -30.5843 823.868 -29.858 824.367 -29.8715Z" />
<path d="M995.014 57.7787C995.972 57.7871 994.599 57.7042 994.63 57.7076C994.533 57.6991 994.242 57.7279 994.067 57.7482C993.145 57.8701 992.633 58.378 992.518 59.3041C992.407 60.2149 992.73 61.0631 993.392 61.7014C994.455 62.7291 996.241 62.531 997 61.2358C997.887 59.7223 996.751 57.7939 995.014 57.7787Z" />
<path d="M994.067 57.7475C994.07 57.7475 994.074 57.7458 994.077 57.7458C993.859 57.7729 993.921 57.7628 994.067 57.7475Z" />
<path d="M1047.67 2.18722C1044.48 2.18722 1044.48 7.13086 1047.67 7.13086C1050.86 7.13086 1050.86 2.18722 1047.67 2.18722Z" />
<path d="M874.403 4.01564C874.14 4.18833 873.907 4.40503 873.658 4.73179C873.289 5.2143 873.285 6.2081 873.658 6.68892C874.487 7.764 876.055 8.34809 877.338 7.59639C878.408 6.96997 878.677 5.80178 878.552 4.65899C878.271 2.11268 875.188 1.92136 874.403 4.01564Z" />
<path d="M924.721 56.7194C921.386 56.7194 921.386 61.8916 924.721 61.8916C928.056 61.8899 928.056 56.7194 924.721 56.7194Z" />
<path d="M782.367 478.128C825.815 476.93 869.282 479.463 912.713 478.068C891.268 487.256 868.767 494.183 848.278 505.423C847.906 505.627 848.165 506.277 848.571 506.119C869.565 497.978 890.922 490.631 911.75 482.051C887.055 508.434 859.496 532.17 836.786 560.349C836.486 560.721 836.977 561.248 837.324 560.885C862.034 535.123 888.594 511.18 913.204 485.332C904.878 506.262 897.814 527.717 889.944 548.811C889.791 549.219 890.44 549.479 890.639 549.104C901.664 528.383 908.311 505.691 917.286 484.046C918.96 527.37 915.546 570.869 919.936 614.065C919.983 614.542 920.709 614.563 920.696 614.065C919.494 570.471 922.048 526.859 920.621 483.282C928.721 505.462 938.322 527.113 947.01 549.06C947.188 549.506 947.865 549.344 947.745 548.858C942.138 526.454 932.11 505.464 924.315 483.758C949.338 510.21 976.471 534.601 1001.68 560.884C1002.03 561.246 1002.52 560.719 1002.22 560.347C979.666 532.366 952.337 508.765 927.774 482.603C948.121 490.615 968.937 497.498 989.412 505.141C989.819 505.291 990.083 504.646 989.705 504.445C969.164 493.515 946.687 486.888 925.209 478.03C968.999 479.502 1012.83 476.92 1056.64 478.128C1057.14 478.142 1057.11 477.417 1056.64 477.368C1014.63 473.099 972.347 476.205 930.209 474.842C950.842 467.105 971.06 458.195 991.539 450.087C991.986 449.911 991.823 449.232 991.337 449.352C968.602 455.042 947.324 465.287 925.272 473.129C952.037 447.896 976.655 420.469 1003.21 395.003C1003.57 394.656 1003.04 394.165 1002.67 394.466C973.638 417.864 949.321 446.405 921.969 471.661C929.527 449.532 939.487 428.137 944.882 405.347C944.996 404.861 944.32 404.693 944.148 405.146C936.507 425.179 928.113 444.981 920.777 465.141C921.839 423.374 919.543 381.577 920.694 339.796C920.708 339.299 919.981 339.319 919.934 339.796C915.659 381.855 918.783 424.197 917.406 466.389C908.997 446.113 902.242 425.067 891.674 405.801C891.469 405.428 890.821 405.687 890.978 406.094C899.238 427.395 906.688 449.066 915.429 470.183C888.725 445.297 864.799 417.405 836.336 394.464C835.961 394.163 835.437 394.656 835.797 395.001C862.611 420.72 887.457 448.441 914.528 473.881C891.588 466.242 869.512 455.779 845.945 450.195C845.461 450.08 845.292 450.757 845.744 450.93C866.304 458.774 886.615 467.415 907.324 474.883C865.671 476.129 823.878 473.146 782.364 477.367C781.888 477.416 781.868 478.142 782.367 478.128Z" />
<path d="M1005.67 510.187C1002.48 510.187 1002.48 515.131 1005.67 515.131C1008.86 515.131 1008.86 510.187 1005.67 510.187Z" />
<path d="M1004.33 444.082C1004.72 444.158 1005.1 444.216 1005.5 444.202C1006.81 444.155 1008.11 442.826 1007.6 441.441C1007.43 441.249 1007.38 441.043 1007.46 440.819C1007.5 440.591 1007.5 440.381 1007.48 440.151C1007.42 439.357 1006.25 439.081 1006.01 439.904C1005.33 439.69 1004.42 439.959 1003.95 440.476C1003.78 440.65 1003.75 440.687 1003.88 440.584C1002.63 441.442 1002.58 443.731 1004.33 444.082Z" />
<path d="M953.129 388.042C953.268 388.03 953.405 388.03 953.544 388.037C953.645 388.051 953.793 388.071 954.03 388.1C954.307 388.073 954.585 388.037 954.863 387.995C954.912 387.979 955.635 387.856 955.156 387.9C956.427 387.78 957.5 386.923 957.5 385.555C957.5 383.967 956.011 382.973 954.531 383.293C953.749 383.462 953.051 383.772 952.465 384.328C951.861 384.903 951.744 385.778 951.646 386.557C951.548 387.336 952.394 388.078 953.129 388.042Z" />
<path d="M882.721 392.525C886.351 392.525 886.351 386.898 882.721 386.898C879.091 386.896 879.091 392.525 882.721 392.525Z" />
<path d="M830.175 449.314C830.417 449.5 830.658 449.686 830.9 449.873C832.61 451.19 835.021 449.382 835.021 447.509C835.021 445.635 832.61 443.827 830.9 445.146C830.658 445.332 830.417 445.518 830.175 445.704C828.848 446.727 828.848 448.29 830.175 449.314Z" />
<path d="M832.403 512.016C832.14 512.188 831.907 512.405 831.658 512.732C831.289 513.214 831.285 514.208 831.658 514.689C832.487 515.764 834.055 516.348 835.338 515.596C836.408 514.97 836.677 513.802 836.552 512.659C836.271 510.113 833.188 509.921 832.403 512.016Z" />
<path d="M1076.37 156.128C1119.82 154.93 1163.28 157.463 1206.71 156.068C1185.27 165.256 1162.77 172.183 1142.28 183.423C1141.91 183.627 1142.16 184.277 1142.57 184.119C1163.56 175.978 1184.92 168.631 1205.75 160.051C1181.06 186.434 1153.5 210.17 1130.79 238.349C1130.49 238.721 1130.98 239.248 1131.32 238.885C1156.03 213.123 1182.59 189.18 1207.2 163.332C1198.88 184.262 1191.81 205.717 1183.94 226.811C1183.79 227.219 1184.44 227.479 1184.64 227.104C1195.66 206.383 1202.31 183.691 1211.29 162.046C1212.96 205.37 1209.55 248.869 1213.94 292.065C1213.98 292.542 1214.71 292.563 1214.7 292.065C1213.49 248.471 1216.05 204.859 1214.62 161.282C1222.72 183.462 1232.32 205.113 1241.01 227.06C1241.19 227.506 1241.87 227.344 1241.75 226.858C1236.14 204.454 1226.11 183.464 1218.32 161.758C1243.34 188.21 1270.47 212.601 1295.68 238.884C1296.03 239.246 1296.52 238.719 1296.22 238.347C1273.67 210.366 1246.34 186.765 1221.77 160.603C1242.12 168.615 1262.94 175.498 1283.41 183.141C1283.82 183.291 1284.08 182.646 1283.71 182.445C1263.16 171.515 1240.69 164.888 1219.21 156.03C1263 157.502 1306.83 154.92 1350.64 156.128C1351.14 156.142 1351.11 155.417 1350.64 155.368C1308.63 151.099 1266.35 154.205 1224.21 152.842C1244.84 145.105 1265.06 136.195 1285.54 128.087C1285.99 127.911 1285.82 127.232 1285.34 127.352C1262.6 133.042 1241.32 143.287 1219.27 151.129C1246.04 125.896 1270.66 98.4691 1297.21 73.0026C1297.57 72.6555 1297.04 72.1645 1296.67 72.4659C1267.64 95.8635 1243.32 124.405 1215.97 149.661C1223.53 127.532 1233.49 106.137 1238.88 83.347C1239 82.8611 1238.32 82.6935 1238.15 83.1455C1230.51 103.179 1222.11 122.981 1214.78 143.141C1215.84 101.374 1213.54 59.5769 1214.69 17.7964C1214.71 17.2986 1213.98 17.319 1213.93 17.7964C1209.66 59.8545 1212.78 102.197 1211.41 144.389C1203 124.113 1196.24 103.067 1185.67 83.8007C1185.47 83.4282 1184.82 83.6873 1184.98 84.0936C1193.24 105.395 1200.69 127.066 1209.43 148.183C1182.72 123.297 1158.8 95.4047 1130.34 72.4642C1129.96 72.1629 1129.44 72.6555 1129.8 73.0009C1156.61 98.7197 1181.46 126.441 1208.53 151.881C1185.59 144.242 1163.51 133.779 1139.95 128.195C1139.46 128.08 1139.29 128.757 1139.74 128.93C1160.3 136.774 1180.62 145.415 1201.32 152.883C1159.67 154.129 1117.88 151.146 1076.36 155.367C1075.89 155.416 1075.87 156.142 1076.37 156.128Z" />
<path d="M987.18 489.51C1008.19 488.93 1029.21 490.155 1050.22 489.48C1039.85 493.924 1028.97 497.274 1019.06 502.71C1018.88 502.808 1019 503.123 1019.2 503.047C1029.35 499.109 1039.68 495.556 1049.75 491.407C1037.81 504.166 1024.48 515.645 1013.5 529.273C1013.35 529.453 1013.59 529.708 1013.76 529.533C1025.71 517.073 1038.55 505.494 1050.46 492.994C1046.43 503.116 1043.01 513.492 1039.21 523.693C1039.13 523.891 1039.45 524.017 1039.54 523.835C1044.88 513.814 1048.09 502.84 1052.43 492.371C1053.24 513.324 1051.59 534.361 1053.71 555.252C1053.73 555.483 1054.09 555.493 1054.08 555.252C1053.5 534.169 1054.73 513.077 1054.04 492.002C1057.96 502.729 1062.6 513.2 1066.81 523.814C1066.89 524.03 1067.22 523.951 1067.16 523.716C1064.45 512.881 1059.6 502.73 1055.83 492.232C1067.93 505.025 1081.05 516.821 1093.24 529.532C1093.41 529.707 1093.65 529.453 1093.5 529.273C1082.6 515.74 1069.38 504.327 1057.5 491.674C1067.34 495.548 1077.41 498.877 1087.31 502.573C1087.51 502.646 1087.64 502.334 1087.45 502.237C1077.52 496.951 1066.65 493.746 1056.26 489.462C1077.44 490.174 1098.64 488.925 1119.82 489.51C1120.06 489.516 1120.05 489.166 1119.82 489.142C1099.51 487.077 1079.06 488.58 1058.68 487.92C1068.66 484.179 1078.44 479.869 1088.34 475.948C1088.56 475.863 1088.48 475.535 1088.24 475.593C1077.25 478.345 1066.96 483.299 1056.29 487.092C1069.24 474.889 1081.14 461.624 1093.98 449.308C1094.16 449.14 1093.9 448.903 1093.72 449.049C1079.68 460.364 1067.92 474.167 1054.69 486.382C1058.35 475.68 1063.17 465.333 1065.78 454.311C1065.83 454.076 1065.5 453.995 1065.42 454.213C1061.73 463.902 1057.67 473.479 1054.12 483.229C1054.63 463.029 1053.52 442.815 1054.08 422.609C1054.08 422.368 1053.73 422.378 1053.71 422.609C1051.64 442.949 1053.15 463.427 1052.49 483.832C1048.42 474.026 1045.15 463.848 1040.04 454.53C1039.94 454.35 1039.63 454.475 1039.71 454.672C1043.7 464.974 1047.3 475.454 1051.53 485.667C1038.62 473.632 1027.05 460.142 1013.28 449.048C1013.1 448.902 1012.85 449.14 1013.02 449.307C1025.99 461.745 1038 475.152 1051.1 487.455C1040 483.761 1029.33 478.701 1017.93 476.001C1017.69 475.945 1017.61 476.272 1017.83 476.356C1027.77 480.149 1037.6 484.328 1047.61 487.94C1027.47 488.543 1007.26 487.1 987.178 489.141C986.948 489.165 986.938 489.516 987.18 489.51Z" />
<path d="M671.178 439.513C692.191 438.933 713.212 440.158 734.217 439.483C723.845 443.927 712.963 447.277 703.054 452.713C702.874 452.811 702.999 453.126 703.196 453.05C713.349 449.112 723.678 445.559 733.751 441.41C721.808 454.169 708.48 465.648 697.496 479.276C697.351 479.456 697.589 479.711 697.757 479.536C709.707 467.076 722.552 455.497 734.454 442.997C730.427 453.118 727.011 463.495 723.205 473.696C723.131 473.894 723.445 474.02 723.541 473.838C728.873 463.817 732.088 452.843 736.428 442.374C737.238 463.327 735.586 484.364 737.709 505.255C737.732 505.486 738.084 505.495 738.077 505.255C737.496 484.172 738.731 463.08 738.041 442.005C741.958 452.732 746.602 463.203 750.804 473.817C750.889 474.033 751.217 473.954 751.159 473.719C748.447 462.884 743.597 452.733 739.828 442.235C751.929 455.028 765.051 466.824 777.242 479.535C777.41 479.71 777.647 479.456 777.503 479.275C766.596 465.743 753.379 454.329 741.5 441.677C751.341 445.551 761.408 448.88 771.31 452.576C771.507 452.649 771.634 452.337 771.452 452.24C761.517 446.954 750.647 443.749 740.26 439.465C761.438 440.177 782.635 438.928 803.821 439.513C804.062 439.519 804.052 439.169 803.821 439.145C783.508 437.08 763.057 438.583 742.678 437.923C752.656 434.182 762.434 429.872 772.338 425.951C772.555 425.866 772.476 425.538 772.241 425.596C761.246 428.348 750.955 433.302 740.29 437.095C753.235 424.892 765.141 411.627 777.981 399.311C778.155 399.143 777.9 398.906 777.72 399.051C763.681 410.367 751.921 424.17 738.693 436.385C742.348 425.683 747.165 415.335 749.774 404.314C749.829 404.079 749.502 403.998 749.419 404.216C745.724 413.905 741.664 423.482 738.116 433.232C738.63 413.032 737.52 392.818 738.076 372.612C738.083 372.371 737.732 372.381 737.709 372.612C735.641 392.952 737.152 413.43 736.486 433.835C732.419 424.029 729.152 413.851 724.041 404.533C723.942 404.353 723.629 404.478 723.705 404.675C727.7 414.977 731.302 425.457 735.53 435.67C722.615 423.635 711.044 410.145 697.279 399.051C697.098 398.905 696.844 399.143 697.018 399.31C709.986 411.748 722.002 425.155 735.094 437.458C724 433.764 713.324 428.704 701.926 426.003C701.692 425.948 701.61 426.275 701.829 426.359C711.772 430.152 721.595 434.331 731.61 437.943C711.466 438.546 691.254 437.103 671.176 439.144C670.946 439.168 670.937 439.519 671.178 439.513Z" />
</svg>
