<svg width="17" height="16" viewBox="0 0 17 16" fill="none" xmlns="http://www.w3.org/2000/svg">
<path d="M12.9788 6.6087C12.9788 6.70094 12.9421 6.78942 12.8769 6.85465C12.8117 6.91988 12.7232 6.95652 12.6309 6.95652H7.06573C6.97348 6.95652 6.88501 6.91988 6.81978 6.85465C6.75455 6.78942 6.7179 6.70094 6.7179 6.6087C6.7179 6.51645 6.75455 6.42798 6.81978 6.36275C6.88501 6.29752 6.97348 6.26087 7.06573 6.26087H12.6309C12.7232 6.26087 12.8117 6.29752 12.8769 6.36275C12.9421 6.42798 12.9788 6.51645 12.9788 6.6087ZM12.6309 9.04348H7.06573C6.97348 9.04348 6.88501 9.08012 6.81978 9.14535C6.75455 9.21058 6.7179 9.29906 6.7179 9.3913C6.7179 9.48355 6.75455 9.57203 6.81978 9.63725C6.88501 9.70249 6.97348 9.73913 7.06573 9.73913H12.6309C12.7232 9.73913 12.8117 9.70249 12.8769 9.63725C12.9421 9.57203 12.9788 9.48355 12.9788 9.3913C12.9788 9.29906 12.9421 9.21058 12.8769 9.14535C12.8117 9.08012 12.7232 9.04348 12.6309 9.04348ZM16.457 1.04348V14.9565C16.4567 15.2332 16.3467 15.4984 16.151 15.694C15.9554 15.8896 15.6902 15.9997 15.4136 16H1.50051C1.22386 15.9997 0.958635 15.8896 0.763015 15.694C0.567394 15.4984 0.457353 15.2332 0.457031 14.9565V1.04348C0.457353 0.76683 0.567394 0.501604 0.763015 0.305984C0.958635 0.110363 1.22386 0.000322193 1.50051 0H15.4136C15.6902 0.000322193 15.9554 0.110363 16.151 0.305984C16.3467 0.501604 16.4567 0.76683 16.457 1.04348ZM1.50051 15.3043H3.93529V0.695652H1.50051C1.4083 0.695767 1.31989 0.73245 1.25469 0.797655C1.18948 0.86286 1.1528 0.951264 1.15268 1.04348V14.9565C1.1528 15.0487 1.18948 15.1371 1.25469 15.2023C1.31989 15.2676 1.4083 15.3042 1.50051 15.3043ZM15.7614 1.04348C15.7613 0.951264 15.7246 0.86286 15.6594 0.797655C15.5942 0.73245 15.5058 0.695767 15.4136 0.695652H4.63094V15.3043H15.4136C15.5058 15.3042 15.5942 15.2676 15.6594 15.2023C15.7246 15.1371 15.7613 15.0487 15.7614 14.9565V1.04348Z" fill="#09262A"/>
</svg>
