<svg width="19" height="19" viewBox="0 0 19 19" fill="none" xmlns="http://www.w3.org/2000/svg">
<path d="M9.5 1C8.3837 1.00007 7.27834 1.22 6.24704 1.64725C5.21573 2.0745 4.27868 2.7007 3.48939 3.49009C2.70009 4.27948 2.074 5.21661 1.64687 6.24796C1.21974 7.27931 0.999934 8.3847 1 9.501C1.00007 10.6173 1.22 11.7227 1.64725 12.754C2.0745 13.7853 2.7007 14.7223 3.49009 15.5116C4.27948 16.3009 5.21661 16.927 6.24796 17.3541C7.27931 17.7813 8.3847 18.0011 9.501 18.001C11.7555 18.0009 13.9176 17.1052 15.5116 15.5109C17.1057 13.9167 18.0011 11.7545 18.001 9.5C18.0009 7.24553 17.1052 5.08344 15.5109 3.48939C13.9167 1.89533 11.7545 0.999867 9.5 1ZM9.5 0C12.0196 0 14.4359 1.00089 16.2175 2.78249C17.9991 4.56408 19 6.98044 19 9.5C19 12.0196 17.9991 14.4359 16.2175 16.2175C14.4359 17.9991 12.0196 19 9.5 19C6.98044 19 4.56408 17.9991 2.78249 16.2175C1.00089 14.4359 0 12.0196 0 9.5C0 6.98044 1.00089 4.56408 2.78249 2.78249C4.56408 1.00089 6.98044 0 9.5 0ZM9 14H10V16H9V14ZM9.5 3C10.4283 3 11.3185 3.36875 11.9749 4.02513C12.6313 4.6815 13 5.57174 13 6.5C13 7.397 12.301 8.019 11.561 8.676L10.626 9.579C10.038 10.253 9.974 11.534 9.999 11.971V12H9C8.996 11.948 8.898 10.036 9.874 8.921L10.896 7.929C11.488 7.403 12 6.948 12 6.5C12 5.83696 11.7366 5.20107 11.2678 4.73223C10.7989 4.26339 10.163 4 9.5 4C8.83696 4 8.20107 4.26339 7.73223 4.73223C7.26339 5.20107 7 5.83696 7 6.5H6C6 5.57174 6.36875 4.6815 7.02513 4.02513C7.6815 3.36875 8.57174 3 9.5 3Z" fill="#09262A"/>
</svg>
