<svg width="16" height="15" viewBox="0 0 16 15" fill="none" xmlns="http://www.w3.org/2000/svg">
<path d="M1.45247 0H6.45247V5H5.45247V1.493C4.06714 2.07272 2.92519 3.1141 2.22058 4.44027C1.51597 5.76644 1.29213 7.29563 1.5871 8.76811C1.88207 10.2406 2.67765 11.5656 3.83871 12.518C4.99978 13.4705 6.45474 13.9916 7.95647 13.993C9.55108 13.9946 11.0906 13.4099 12.2822 12.3502C13.4738 11.2906 14.2343 9.82987 14.4191 8.24599C14.6038 6.66211 14.1999 5.06559 13.2841 3.76015C12.3683 2.45471 11.0046 1.53145 9.45247 1.166V0.142C11.1717 0.491834 12.714 1.43335 13.8108 2.80274C14.9076 4.17213 15.4897 5.88272 15.4556 7.6369C15.4216 9.39107 14.7736 11.0778 13.6245 12.4036C12.4754 13.7294 10.8978 14.6104 9.16625 14.8933C7.4347 15.1762 5.65878 14.843 4.14747 13.9518C2.63615 13.0606 1.48511 11.6678 0.894594 10.0157C0.304081 8.36353 0.311475 6.55665 0.915491 4.9094C1.51951 3.26215 2.68191 1.87879 4.20047 1H1.45247V0Z" fill="#09262A"/>
</svg>
