<svg width="15" height="18" viewBox="0 0 15 18" fill="none" xmlns="http://www.w3.org/2000/svg">
<path d="M3.45703 0H11.457C12.2527 0 13.0157 0.316071 13.5784 0.87868C14.141 1.44129 14.457 2.20435 14.457 3V18L7.45703 15L0.457031 18V3C0.457031 2.20435 0.773102 1.44129 1.33571 0.87868C1.89832 0.316071 2.66138 0 3.45703 0ZM3.45703 1C2.9266 1 2.41789 1.21071 2.04282 1.58579C1.66774 1.96086 1.45703 2.46957 1.45703 3V16.49L7.45703 13.942L13.457 16.489V3C13.457 2.46957 13.2463 1.96086 12.8712 1.58579C12.4962 1.21071 11.9875 1 11.457 1H3.45703Z" fill="#09262A"/>
</svg>
