<svg width="16" height="19" viewBox="0 0 16 19" fill="none" xmlns="http://www.w3.org/2000/svg">
<path d="M12.457 0H6.45703C5.66138 0 4.89832 0.316071 4.33571 0.87868C3.7731 1.44129 3.45703 2.20435 3.45703 3V7H4.45703V3C4.45703 2.46957 4.66774 1.96086 5.04282 1.58579C5.41789 1.21071 5.9266 1 6.45703 1H12.457C12.9875 1 13.4962 1.21071 13.8712 1.58579C14.2463 1.96086 14.457 2.46957 14.457 3V16C14.457 16.5304 14.2463 17.0391 13.8712 17.4142C13.4962 17.7893 12.9875 18 12.457 18H6.45703C5.9266 18 5.41789 17.7893 5.04282 17.4142C4.66774 17.0391 4.45703 16.5304 4.45703 16V12H3.45703V16C3.45703 16.7956 3.7731 17.5587 4.33571 18.1213C4.89832 18.6839 5.66138 19 6.45703 19H12.457C13.2527 19 14.0157 18.6839 14.5784 18.1213C15.141 17.5587 15.457 16.7956 15.457 16V3C15.457 2.20435 15.141 1.44129 14.5784 0.87868C14.0157 0.316071 13.2527 0 12.457 0ZM0.457031 9H10.707L7.45703 5.75L8.12103 5L12.621 9.5L8.12103 14L7.45703 13.25L10.707 10H0.457031V9Z" fill="#09262A"/>
</svg>
