<svg width="16" height="16" viewBox="0 0 16 16" fill="none" xmlns="http://www.w3.org/2000/svg">
<path d="M2.45703 0.000164032V1.00016H3.45703V0.000164032H2.45703ZM9.45703 12.0002C10.245 12.0002 11.0252 11.845 11.7531 11.5434C12.4811 11.2419 13.1425 10.8 13.6997 10.2428C14.2568 9.68565 14.6988 9.02422 15.0003 8.29626C15.3018 7.56831 15.457 6.7881 15.457 6.00016C15.457 5.21223 15.3018 4.43202 15.0003 3.70406C14.6988 2.97611 14.2568 2.31467 13.6997 1.75752C13.1425 1.20037 12.4811 0.758414 11.7531 0.456886C11.0252 0.155358 10.245 0.000164032 9.45703 0.000164032L5.45703 0.000164032V1.00016L9.45703 1.00016C10.7831 1.00016 12.0549 1.52695 12.9926 2.46463C13.9302 3.40231 14.457 4.67408 14.457 6.00016C14.457 7.32625 13.9302 8.59802 12.9926 9.5357C12.0549 10.4734 10.7831 11.0002 9.45703 11.0002L2.37103 11.0002L5.40703 7.96416L4.70003 7.25716L0.457031 11.5002L4.70003 15.7432L5.40703 15.0362L2.37103 12.0002L9.45703 12.0002Z" fill="#09262A"/>
</svg>
