<svg width="14" height="14" viewBox="0 0 14 14"  fill="#09262A" xmlns="http://www.w3.org/2000/svg">
<path d="M5.94505 11.0526C6.03831 11.0526 6.12776 11.0914 6.19371 11.1605C6.25965 11.2296 6.2967 11.3233 6.2967 11.4211C6.2967 11.5188 6.25965 11.6125 6.19371 11.6816C6.12776 11.7507 6.03831 11.7895 5.94505 11.7895C5.85179 11.7895 5.76234 11.7507 5.6964 11.6816C5.63045 11.6125 5.5934 11.5188 5.5934 11.4211C5.5934 11.3233 5.63045 11.2296 5.6964 11.1605C5.76234 11.0914 5.85179 11.0526 5.94505 11.0526ZM8.05495 11.0526C8.14821 11.0526 8.23766 11.0914 8.3036 11.1605C8.36955 11.2296 8.4066 11.3233 8.4066 11.4211C8.4066 11.5188 8.36955 11.6125 8.3036 11.6816C8.23766 11.7507 8.14821 11.7895 8.05495 11.7895C7.96169 11.7895 7.87224 11.7507 7.80629 11.6816C7.74035 11.6125 7.7033 11.5188 7.7033 11.4211C7.7033 11.3233 7.74035 11.2296 7.80629 11.1605C7.87224 11.0914 7.96169 11.0526 8.05495 11.0526ZM5.5934 5.89474C5.77993 5.89474 5.95881 5.97237 6.09071 6.11055C6.2226 6.24874 6.2967 6.43616 6.2967 6.63158C6.2967 6.827 6.2226 7.01442 6.09071 7.1526C5.95881 7.29079 5.77993 7.36842 5.5934 7.36842C5.40687 7.36842 5.22799 7.29079 5.09609 7.1526C4.9642 7.01442 4.8901 6.827 4.8901 6.63158C4.8901 6.43616 4.9642 6.24874 5.09609 6.11055C5.22799 5.97237 5.40687 5.89474 5.5934 5.89474ZM8.4066 5.89474C8.59313 5.89474 8.77201 5.97237 8.90391 6.11055C9.0358 6.24874 9.1099 6.43616 9.1099 6.63158C9.1099 6.827 9.0358 7.01442 8.90391 7.1526C8.77201 7.29079 8.59313 7.36842 8.4066 7.36842C8.22007 7.36842 8.04119 7.29079 7.90929 7.1526C7.7774 7.01442 7.7033 6.827 7.7033 6.63158C7.7033 6.43616 7.7774 6.24874 7.90929 6.11055C8.04119 5.97237 8.22007 5.89474 8.4066 5.89474ZM11.2198 11.0526C11.2198 12.6811 9.32792 14 7 14C4.67208 14 2.7802 12.6811 2.7802 11.0526C2.7802 10.3895 3.09669 9.77789 3.62416 9.28421C3.09669 8.54737 2.7802 7.62632 2.7802 6.63158L2.8646 5.73263C2.48482 5.84316 2.02767 5.84316 1.65492 5.73263C0.937559 5.52632 -0.145522 4.67895 0.0162368 4.08947C0.177996 3.5 1.5213 3.38947 2.23866 3.61053C2.65361 3.73579 3.09669 4.05263 3.35691 4.39158L3.75779 3.79474C3.33581 2.98421 3.4835 0.736842 5.5934 0L5.5301 0.103158C5.33318 0.427368 4.82681 1.45158 5.36131 2.55684C5.88018 2.32865 6.43727 2.21112 7 2.21112C7.56273 2.21112 8.11982 2.32865 8.63869 2.55684C9.17319 1.45158 8.66682 0.427368 8.4699 0.103158L8.4066 0C10.5165 0.736842 10.6642 2.98421 10.2422 3.79474L10.6431 4.39158C10.9033 4.05263 11.3464 3.73579 11.7613 3.61053C12.4787 3.38947 13.822 3.5 13.9838 4.08947C14.1455 4.67895 13.0624 5.52632 12.3451 5.73263C11.9723 5.84316 11.5152 5.84316 11.1354 5.73263L11.2198 6.63158C11.2198 7.62632 10.9033 8.54737 10.3758 9.28421C10.9033 9.77789 11.2198 10.3895 11.2198 11.0526ZM7 9.57895C5.44571 9.57895 4.1868 10.2421 4.1868 11.0526C4.1868 11.8632 5.44571 12.5263 7 12.5263C8.55429 12.5263 9.8132 11.8632 9.8132 11.0526C9.8132 10.2421 8.55429 9.57895 7 9.57895ZM7 8.10526C7.7877 8.10526 8.52616 8.26 9.15913 8.51789C9.56704 8.00947 9.8132 7.36842 9.8132 6.63158C9.8132 5.84989 9.51681 5.10021 8.98923 4.54747C8.46165 3.99474 7.74611 3.68421 7 3.68421C6.25389 3.68421 5.53835 3.99474 5.01077 4.54747C4.48319 5.10021 4.1868 5.84989 4.1868 6.63158C4.1868 7.36842 4.43296 8.00947 4.84087 8.51789C5.47384 8.26 6.2123 8.10526 7 8.10526Z"/>
</svg>
