<svg width="14" height="10" viewBox="0 0 14 10" fill="none" xmlns="http://www.w3.org/2000/svg">
<path d="M0 0V1.40951H8.45708V0H0ZM0 2.81903V4.22854H8.45708V2.81903H0ZM12.7138 2.91065C12.6152 2.91065 12.5165 2.95293 12.439 3.03046L11.7342 3.73521L13.179 5.17997L13.8837 4.47521C14.0388 4.32721 14.0388 4.08054 13.8837 3.93254L12.9816 3.03046C12.9473 2.99354 12.9059 2.96391 12.8599 2.94332C12.8139 2.92274 12.7642 2.91163 12.7138 2.91065ZM11.3254 4.14397L7.04757 8.4148V9.8666H8.49937L12.7702 5.58872L11.3254 4.14397ZM0 5.63806V7.04757H5.63806V5.63806H0Z" fill="#09262A"/>
</svg>
