<svg width="40" height="40" viewBox="0 0 40 40" fill="none" xmlns="http://www.w3.org/2000/svg">
<circle cx="20" cy="20" r="20" fill="#44AD91"/>
<path d="M18.336 36.29C21.468 36.29 23.092 34.521 23.092 31.273V29.475C23.092 27.416 22.454 25.937 20.743 25.299V25.241C22.309 24.661 23.005 23.327 23.005 21.152V20.427C23.005 17.179 21.381 15.41 18.336 15.41C15.291 15.41 13.667 17.208 13.667 20.456V21.529H16.683V20.195C16.683 18.861 17.292 18.31 18.22 18.31C19.148 18.31 19.815 18.89 19.815 20.34V21.819C19.815 23.443 19.09 23.965 17.901 23.965H16.741V26.865H17.814C19.264 26.865 19.902 27.561 19.902 29.446V31.099C19.902 32.897 19.264 33.39 18.249 33.39C17.234 33.39 16.596 32.839 16.596 31.389V29.591H13.58V31.244C13.58 34.492 15.204 36.29 18.336 36.29ZM25.1517 36H28.3417V32.81H25.1517V36Z" fill="white"/>
</svg>
