<svg width="112" height="112" viewBox="0 0 112 112" fill="none" xmlns="http://www.w3.org/2000/svg">
<g filter="url(#filter0_i)">
<path d="M18.8197 37.6393C29.2135 37.6393 37.6393 29.2135 37.6393 18.8197C37.6393 8.42585 29.2135 0 18.8197 0C8.42585 0 0 8.42585 0 18.8197C0 29.2135 8.42585 37.6393 18.8197 37.6393Z" fill="white"/>
</g>
<path d="M37.1393 18.8197C37.1393 28.9373 28.9373 37.1393 18.8197 37.1393C8.702 37.1393 0.5 28.9373 0.5 18.8197C0.5 8.702 8.702 0.5 18.8197 0.5C28.9373 0.5 37.1393 8.702 37.1393 18.8197Z" stroke="#CCCCCC"/>
<g filter="url(#filter1_i)">
<path d="M18.8197 74.3607C29.2135 74.3607 37.6393 66.1404 37.6393 56.0001C37.6393 45.8598 29.2135 37.6394 18.8197 37.6394C8.42585 37.6394 0 45.8598 0 56.0001C0 66.1404 8.42585 74.3607 18.8197 74.3607Z" fill="white"/>
</g>
<path d="M37.1393 56.0001C37.1393 65.8527 28.9491 73.8607 18.8197 73.8607C8.69029 73.8607 0.5 65.8527 0.5 56.0001C0.5 46.1475 8.69029 38.1394 18.8197 38.1394C28.9491 38.1394 37.1393 46.1475 37.1393 56.0001Z" stroke="#CCCCCC"/>
<g filter="url(#filter2_i)">
<path d="M18.8197 112C29.2135 112 37.6393 103.574 37.6393 93.1803C37.6393 82.7865 29.2135 74.3606 18.8197 74.3606C8.42585 74.3606 0 82.7865 0 93.1803C0 103.574 8.42585 112 18.8197 112Z" fill="white"/>
</g>
<path d="M37.1393 93.1803C37.1393 103.298 28.9373 111.5 18.8197 111.5C8.702 111.5 0.5 103.298 0.5 93.1803C0.5 83.0626 8.702 74.8606 18.8197 74.8606C28.9373 74.8606 37.1393 83.0626 37.1393 93.1803Z" stroke="#CCCCCC"/>
<g filter="url(#filter3_i)">
<path d="M56.0003 37.6393C66.1406 37.6393 74.361 29.2135 74.361 18.8197C74.361 8.42585 66.1406 0 56.0003 0C45.86 0 37.6396 8.42585 37.6396 18.8197C37.6396 29.2135 45.86 37.6393 56.0003 37.6393Z" fill="white"/>
</g>
<path d="M73.861 18.8197C73.861 28.9491 65.8529 37.1393 56.0003 37.1393C46.1477 37.1393 38.1396 28.9491 38.1396 18.8197C38.1396 8.69029 46.1477 0.5 56.0003 0.5C65.8529 0.5 73.861 8.69029 73.861 18.8197Z" stroke="#CCCCCC"/>
<g filter="url(#filter4_i)">
<path d="M56.0003 74.3607C66.1406 74.3607 74.361 66.1404 74.361 56.0001C74.361 45.8598 66.1406 37.6394 56.0003 37.6394C45.86 37.6394 37.6396 45.8598 37.6396 56.0001C37.6396 66.1404 45.86 74.3607 56.0003 74.3607Z" fill="white"/>
</g>
<path d="M73.861 56.0001C73.861 65.8642 65.8645 73.8607 56.0003 73.8607C46.1361 73.8607 38.1396 65.8642 38.1396 56.0001C38.1396 46.1359 46.1361 38.1394 56.0003 38.1394C65.8645 38.1394 73.861 46.1359 73.861 56.0001Z" stroke="#CCCCCC"/>
<g filter="url(#filter5_i)">
<path d="M56.0003 112C66.1406 112 74.361 103.574 74.361 93.1803C74.361 82.7865 66.1406 74.3606 56.0003 74.3606C45.86 74.3606 37.6396 82.7865 37.6396 93.1803C37.6396 103.574 45.86 112 56.0003 112Z" fill="white"/>
</g>
<path d="M73.861 93.1803C73.861 103.31 65.8529 111.5 56.0003 111.5C46.1477 111.5 38.1396 103.31 38.1396 93.1803C38.1396 83.0509 46.1477 74.8606 56.0003 74.8606C65.8529 74.8606 73.861 83.0509 73.861 93.1803Z" stroke="#CCCCCC"/>
<g filter="url(#filter6_i)">
<path d="M93.18 37.6393C103.574 37.6393 112 29.2135 112 18.8197C112 8.42585 103.574 0 93.18 0C82.7862 0 74.3604 8.42585 74.3604 18.8197C74.3604 29.2135 82.7862 37.6393 93.18 37.6393Z" fill="white"/>
</g>
<path d="M111.5 18.8197C111.5 28.9373 103.298 37.1393 93.18 37.1393C83.0623 37.1393 74.8604 28.9373 74.8604 18.8197C74.8604 8.702 83.0623 0.5 93.18 0.5C103.298 0.5 111.5 8.702 111.5 18.8197Z" stroke="#CCCCCC"/>
<g filter="url(#filter7_i)">
<path d="M93.18 74.3607C103.574 74.3607 112 66.1404 112 56.0001C112 45.8598 103.574 37.6394 93.18 37.6394C82.7862 37.6394 74.3604 45.8598 74.3604 56.0001C74.3604 66.1404 82.7862 74.3607 93.18 74.3607Z" fill="white"/>
</g>
<path d="M111.5 56.0001C111.5 65.8527 103.309 73.8607 93.18 73.8607C83.0506 73.8607 74.8604 65.8527 74.8604 56.0001C74.8604 46.1475 83.0506 38.1394 93.18 38.1394C103.309 38.1394 111.5 46.1475 111.5 56.0001Z" stroke="#CCCCCC"/>
<g filter="url(#filter8_i)">
<path d="M93.18 112C103.574 112 112 103.574 112 93.1803C112 82.7865 103.574 74.3606 93.18 74.3606C82.7862 74.3606 74.3604 82.7865 74.3604 93.1803C74.3604 103.574 82.7862 112 93.18 112Z" fill="white"/>
</g>
<path d="M111.5 93.1803C111.5 103.298 103.298 111.5 93.18 111.5C83.0623 111.5 74.8604 103.298 74.8604 93.1803C74.8604 83.0626 83.0623 74.8606 93.18 74.8606C103.298 74.8606 111.5 83.0626 111.5 93.1803Z" stroke="#CCCCCC"/>
<defs>
<filter id="filter0_i" x="0" y="0" width="37.6393" height="37.6393" filterUnits="userSpaceOnUse" color-interpolation-filters="sRGB">
<feFlood flood-opacity="0" result="BackgroundImageFix"/>
<feBlend mode="normal" in="SourceGraphic" in2="BackgroundImageFix" result="shape"/>
<feColorMatrix in="SourceAlpha" type="matrix" values="0 0 0 0 0 0 0 0 0 0 0 0 0 0 0 0 0 0 127 0" result="hardAlpha"/>
<feOffset/>
<feGaussianBlur stdDeviation="3"/>
<feComposite in2="hardAlpha" operator="arithmetic" k2="-1" k3="1"/>
<feColorMatrix type="matrix" values="0 0 0 0 0 0 0 0 0 0 0 0 0 0 0 0 0 0 1 0"/>
<feBlend mode="overlay" in2="shape" result="effect1_innerShadow"/>
</filter>
<filter id="filter1_i" x="0" y="37.6394" width="37.6393" height="36.7213" filterUnits="userSpaceOnUse" color-interpolation-filters="sRGB">
<feFlood flood-opacity="0" result="BackgroundImageFix"/>
<feBlend mode="normal" in="SourceGraphic" in2="BackgroundImageFix" result="shape"/>
<feColorMatrix in="SourceAlpha" type="matrix" values="0 0 0 0 0 0 0 0 0 0 0 0 0 0 0 0 0 0 127 0" result="hardAlpha"/>
<feOffset/>
<feGaussianBlur stdDeviation="3"/>
<feComposite in2="hardAlpha" operator="arithmetic" k2="-1" k3="1"/>
<feColorMatrix type="matrix" values="0 0 0 0 0 0 0 0 0 0 0 0 0 0 0 0 0 0 1 0"/>
<feBlend mode="overlay" in2="shape" result="effect1_innerShadow"/>
</filter>
<filter id="filter2_i" x="0" y="74.3606" width="37.6393" height="37.6393" filterUnits="userSpaceOnUse" color-interpolation-filters="sRGB">
<feFlood flood-opacity="0" result="BackgroundImageFix"/>
<feBlend mode="normal" in="SourceGraphic" in2="BackgroundImageFix" result="shape"/>
<feColorMatrix in="SourceAlpha" type="matrix" values="0 0 0 0 0 0 0 0 0 0 0 0 0 0 0 0 0 0 127 0" result="hardAlpha"/>
<feOffset/>
<feGaussianBlur stdDeviation="3"/>
<feComposite in2="hardAlpha" operator="arithmetic" k2="-1" k3="1"/>
<feColorMatrix type="matrix" values="0 0 0 0 0 0 0 0 0 0 0 0 0 0 0 0 0 0 1 0"/>
<feBlend mode="overlay" in2="shape" result="effect1_innerShadow"/>
</filter>
<filter id="filter3_i" x="37.6396" y="0" width="36.7213" height="37.6393" filterUnits="userSpaceOnUse" color-interpolation-filters="sRGB">
<feFlood flood-opacity="0" result="BackgroundImageFix"/>
<feBlend mode="normal" in="SourceGraphic" in2="BackgroundImageFix" result="shape"/>
<feColorMatrix in="SourceAlpha" type="matrix" values="0 0 0 0 0 0 0 0 0 0 0 0 0 0 0 0 0 0 127 0" result="hardAlpha"/>
<feOffset/>
<feGaussianBlur stdDeviation="3"/>
<feComposite in2="hardAlpha" operator="arithmetic" k2="-1" k3="1"/>
<feColorMatrix type="matrix" values="0 0 0 0 0 0 0 0 0 0 0 0 0 0 0 0 0 0 1 0"/>
<feBlend mode="overlay" in2="shape" result="effect1_innerShadow"/>
</filter>
<filter id="filter4_i" x="37.6396" y="37.6394" width="36.7213" height="36.7213" filterUnits="userSpaceOnUse" color-interpolation-filters="sRGB">
<feFlood flood-opacity="0" result="BackgroundImageFix"/>
<feBlend mode="normal" in="SourceGraphic" in2="BackgroundImageFix" result="shape"/>
<feColorMatrix in="SourceAlpha" type="matrix" values="0 0 0 0 0 0 0 0 0 0 0 0 0 0 0 0 0 0 127 0" result="hardAlpha"/>
<feOffset/>
<feGaussianBlur stdDeviation="3"/>
<feComposite in2="hardAlpha" operator="arithmetic" k2="-1" k3="1"/>
<feColorMatrix type="matrix" values="0 0 0 0 0 0 0 0 0 0 0 0 0 0 0 0 0 0 1 0"/>
<feBlend mode="overlay" in2="shape" result="effect1_innerShadow"/>
</filter>
<filter id="filter5_i" x="37.6396" y="74.3606" width="36.7213" height="37.6393" filterUnits="userSpaceOnUse" color-interpolation-filters="sRGB">
<feFlood flood-opacity="0" result="BackgroundImageFix"/>
<feBlend mode="normal" in="SourceGraphic" in2="BackgroundImageFix" result="shape"/>
<feColorMatrix in="SourceAlpha" type="matrix" values="0 0 0 0 0 0 0 0 0 0 0 0 0 0 0 0 0 0 127 0" result="hardAlpha"/>
<feOffset/>
<feGaussianBlur stdDeviation="3"/>
<feComposite in2="hardAlpha" operator="arithmetic" k2="-1" k3="1"/>
<feColorMatrix type="matrix" values="0 0 0 0 0 0 0 0 0 0 0 0 0 0 0 0 0 0 1 0"/>
<feBlend mode="overlay" in2="shape" result="effect1_innerShadow"/>
</filter>
<filter id="filter6_i" x="74.3604" y="0" width="37.6393" height="37.6393" filterUnits="userSpaceOnUse" color-interpolation-filters="sRGB">
<feFlood flood-opacity="0" result="BackgroundImageFix"/>
<feBlend mode="normal" in="SourceGraphic" in2="BackgroundImageFix" result="shape"/>
<feColorMatrix in="SourceAlpha" type="matrix" values="0 0 0 0 0 0 0 0 0 0 0 0 0 0 0 0 0 0 127 0" result="hardAlpha"/>
<feOffset/>
<feGaussianBlur stdDeviation="3"/>
<feComposite in2="hardAlpha" operator="arithmetic" k2="-1" k3="1"/>
<feColorMatrix type="matrix" values="0 0 0 0 0 0 0 0 0 0 0 0 0 0 0 0 0 0 1 0"/>
<feBlend mode="overlay" in2="shape" result="effect1_innerShadow"/>
</filter>
<filter id="filter7_i" x="74.3604" y="37.6394" width="37.6393" height="36.7213" filterUnits="userSpaceOnUse" color-interpolation-filters="sRGB">
<feFlood flood-opacity="0" result="BackgroundImageFix"/>
<feBlend mode="normal" in="SourceGraphic" in2="BackgroundImageFix" result="shape"/>
<feColorMatrix in="SourceAlpha" type="matrix" values="0 0 0 0 0 0 0 0 0 0 0 0 0 0 0 0 0 0 127 0" result="hardAlpha"/>
<feOffset/>
<feGaussianBlur stdDeviation="3"/>
<feComposite in2="hardAlpha" operator="arithmetic" k2="-1" k3="1"/>
<feColorMatrix type="matrix" values="0 0 0 0 0 0 0 0 0 0 0 0 0 0 0 0 0 0 1 0"/>
<feBlend mode="overlay" in2="shape" result="effect1_innerShadow"/>
</filter>
<filter id="filter8_i" x="74.3604" y="74.3606" width="37.6393" height="37.6393" filterUnits="userSpaceOnUse" color-interpolation-filters="sRGB">
<feFlood flood-opacity="0" result="BackgroundImageFix"/>
<feBlend mode="normal" in="SourceGraphic" in2="BackgroundImageFix" result="shape"/>
<feColorMatrix in="SourceAlpha" type="matrix" values="0 0 0 0 0 0 0 0 0 0 0 0 0 0 0 0 0 0 127 0" result="hardAlpha"/>
<feOffset/>
<feGaussianBlur stdDeviation="3"/>
<feComposite in2="hardAlpha" operator="arithmetic" k2="-1" k3="1"/>
<feColorMatrix type="matrix" values="0 0 0 0 0 0 0 0 0 0 0 0 0 0 0 0 0 0 1 0"/>
<feBlend mode="overlay" in2="shape" result="effect1_innerShadow"/>
</filter>
</defs>
</svg>
