<svg width="15" height="14" viewBox="0 0 15 14" fill="none" xmlns="http://www.w3.org/2000/svg">
<path d="M9.35 0C10.708 0 11.863 0.49 12.815 1.435C13.76 2.387 14.25 3.542 14.25 4.9C14.25 5.992 13.9 6.972 13.256 7.84C12.598 8.701 11.758 9.289 10.729 9.59L10.75 9.366V9.1C10.75 7.567 10.211 6.251 9.105 5.145C7.999 4.039 6.683 3.5 5.15 3.5H4.891L4.66 3.521C4.961 2.492 5.549 1.652 6.41 0.994C7.278 0.35 8.258 0 9.35 0ZM5.15 4.2C6.44956 4.2 7.69589 4.71625 8.61482 5.63518C9.53375 6.55411 10.05 7.80044 10.05 9.1C10.05 10.3996 9.53375 11.6459 8.61482 12.5648C7.69589 13.4838 6.44956 14 5.15 14C3.85044 14 2.6041 13.4838 1.68518 12.5648C0.766248 11.6459 0.25 10.3996 0.25 9.1C0.25 7.80044 0.766248 6.55411 1.68518 5.63518C2.6041 4.71625 3.85044 4.2 5.15 4.2ZM5.15 5.6C4.22174 5.6 3.3315 5.96875 2.67513 6.62513C2.01875 7.2815 1.65 8.17174 1.65 9.1C1.65 10.0283 2.01875 10.9185 2.67513 11.5749C3.3315 12.2313 4.22174 12.6 5.15 12.6C5.60963 12.6 6.06475 12.5095 6.48939 12.3336C6.91403 12.1577 7.29987 11.8999 7.62487 11.5749C7.94988 11.2499 8.20769 10.864 8.38358 10.4394C8.55947 10.0148 8.65 9.55963 8.65 9.1C8.65 8.64037 8.55947 8.18525 8.38358 7.76061C8.20769 7.33597 7.94988 6.95013 7.62487 6.62513C7.29987 6.30012 6.91403 6.04231 6.48939 5.86642C6.06475 5.69053 5.60963 5.6 5.15 5.6Z" fill="#09262A"/>
</svg>
