<svg width="15" height="14" viewBox="0 0 15 14" fill="none" xmlns="http://www.w3.org/2000/svg">
<path d="M0.25 0H1.65V12.6H14.25V14H0.25V0Z" fill="#09262A"/>
<path d="M8.65 8.4C9.42 8.4 10.05 9.03 10.05 9.8C10.05 10.57 9.42 11.2 8.65 11.2C7.88 11.2 7.25 10.57 7.25 9.8C7.25 9.03 7.88 8.4 8.65 8.4ZM8.65 4.2C9.42 4.2 10.05 4.83 10.05 5.6C10.05 6.37 9.42 7 8.65 7C7.88 7 7.25 6.37 7.25 5.6C7.25 4.83 7.88 4.2 8.65 4.2ZM8.65 0C9.42 0 10.05 0.63 10.05 1.4C10.05 2.17 9.42 2.8 8.65 2.8C7.88 2.8 7.25 2.17 7.25 1.4C7.25 0.63 7.88 0 8.65 0ZM4.45 8.4C5.22 8.4 5.85 9.03 5.85 9.8C5.85 10.57 5.22 11.2 4.45 11.2C3.68 11.2 3.05 10.57 3.05 9.8C3.05 9.03 3.68 8.4 4.45 8.4ZM4.45 4.2C5.22 4.2 5.85 4.83 5.85 5.6C5.85 6.37 5.22 7 4.45 7C3.68 7 3.05 6.37 3.05 5.6C3.05 4.83 3.68 4.2 4.45 4.2ZM4.45 0C5.22 0 5.85 0.63 5.85 1.4C5.85 2.17 5.22 2.8 4.45 2.8C3.68 2.8 3.05 2.17 3.05 1.4C3.05 0.63 3.68 0 4.45 0ZM12.85 8.4C13.62 8.4 14.25 9.03 14.25 9.8C14.25 10.57 13.62 11.2 12.85 11.2C12.08 11.2 11.45 10.57 11.45 9.8C11.45 9.03 12.08 8.4 12.85 8.4ZM12.85 4.2C13.62 4.2 14.25 4.83 14.25 5.6C14.25 6.37 13.62 7 12.85 7C12.08 7 11.45 6.37 11.45 5.6C11.45 4.83 12.08 4.2 12.85 4.2ZM12.85 0C13.62 0 14.25 0.63 14.25 1.4C14.25 2.17 13.62 2.8 12.85 2.8C12.08 2.8 11.45 2.17 11.45 1.4C11.45 0.63 12.08 0 12.85 0Z" fill="#09262A"/>
</svg>
