<svg width="17" height="16" viewBox="0 0 17 16" fill="none" xmlns="http://www.w3.org/2000/svg">
<path d="M8.25 0C9.31087 0 10.3283 0.421427 11.0784 1.17157C11.8286 1.92172 12.25 2.93913 12.25 4C12.25 5.06087 11.8286 6.07828 11.0784 6.82843C10.3283 7.57857 9.31087 8 8.25 8C7.18913 8 6.17172 7.57857 5.42157 6.82843C4.67143 6.07828 4.25 5.06087 4.25 4C4.25 2.93913 4.67143 1.92172 5.42157 1.17157C6.17172 0.421427 7.18913 0 8.25 0ZM8.25 10C12.67 10 16.25 11.79 16.25 14V16H0.25V14C0.25 11.79 3.83 10 8.25 10Z" fill="#09262A"/>
</svg>
