<svg width="20" height="14" viewBox="0 0 20 14" fill="none" xmlns="http://www.w3.org/2000/svg">
<path d="M3.5 9.625L2.975 9.1875C1.225 7.525 0 6.475 0 5.1625C0 4.1125 0.875 3.2375 1.925 3.2375C2.5375 3.2375 3.15 3.5 3.5 3.9375C3.85 3.5 4.4625 3.2375 5.075 3.2375C6.125 3.2375 7 4.025 7 5.1625C7 6.475 5.775 7.525 4.025 9.1875L3.5 9.625ZM12.25 0C11.3217 0 10.4315 0.368749 9.77513 1.02513C9.11875 1.6815 8.75 2.57174 8.75 3.5C8.75 4.42826 9.11875 5.3185 9.77513 5.97487C10.4315 6.63125 11.3217 7 12.25 7C13.1783 7 14.0685 6.63125 14.7249 5.97487C15.3813 5.3185 15.75 4.42826 15.75 3.5C15.75 2.57174 15.3813 1.6815 14.7249 1.02513C14.0685 0.368749 13.1783 0 12.25 0ZM12.25 5.3375C11.7627 5.3375 11.2953 5.14391 10.9507 4.79931C10.6061 4.45471 10.4125 3.98734 10.4125 3.5C10.4125 3.01266 10.6061 2.54529 10.9507 2.20069C11.2953 1.85609 11.7627 1.6625 12.25 1.6625C12.4913 1.6625 12.7302 1.71003 12.9532 1.80237C13.1761 1.89471 13.3787 2.03006 13.5493 2.20069C13.7199 2.37132 13.8553 2.57388 13.9476 2.79682C14.04 3.01976 14.0875 3.2587 14.0875 3.5C14.0875 3.7413 14.04 3.98025 13.9476 4.20318C13.8553 4.42612 13.7199 4.62868 13.5493 4.79931C13.3787 4.96994 13.1761 5.10529 12.9532 5.19763C12.7302 5.28997 12.4913 5.3375 12.25 5.3375ZM12.25 7.875C9.91375 7.875 5.25 9.03875 5.25 11.375V14H19.25V11.375C19.25 9.03875 14.5863 7.875 12.25 7.875ZM17.5875 12.3375H6.9125V11.375C6.9125 10.815 9.625 9.5375 12.25 9.5375C14.8488 9.5375 17.5875 10.815 17.5875 11.375V12.3375Z" fill="#09262A"/>
</svg>
