<svg width="36" height="22" viewBox="0 0 36 22" fill="#53D4B1" xmlns="http://www.w3.org/2000/svg">
<path d="M17.75 0.625977C16.3963 0.625977 15.098 1.16374 14.1408 2.12095C13.1836 3.07817 12.6458 4.37643 12.6458 5.73014C12.6458 7.08385 13.1836 8.38212 14.1408 9.33933C15.098 10.2965 16.3963 10.8343 17.75 10.8343C19.1037 10.8343 20.402 10.2965 21.3592 9.33933C22.3164 8.38212 22.8542 7.08385 22.8542 5.73014C22.8542 4.37643 22.3164 3.07817 21.3592 2.12095C20.402 1.16374 19.1037 0.625977 17.75 0.625977ZM17.75 3.54264C18.3302 3.54264 18.8866 3.77311 19.2968 4.18335C19.707 4.59358 19.9375 5.14998 19.9375 5.73014C19.9375 6.3103 19.707 6.8667 19.2968 7.27694C18.8866 7.68717 18.3302 7.91764 17.75 7.91764C17.1698 7.91764 16.6134 7.68717 16.2032 7.27694C15.793 6.8667 15.5625 6.3103 15.5625 5.73014C15.5625 5.14998 15.793 4.59358 16.2032 4.18335C16.6134 3.77311 17.1698 3.54264 17.75 3.54264ZM8.27083 5.00098C7.3039 5.00098 6.37657 5.38509 5.69284 6.06882C5.00911 6.75254 4.625 7.67987 4.625 8.64681C4.625 10.0176 5.39792 11.1989 6.50625 11.826C7.03125 12.1176 7.62917 12.2926 8.27083 12.2926C8.9125 12.2926 9.51042 12.1176 10.0354 11.826C10.575 11.5197 11.0271 11.0822 11.3625 10.5572C10.3001 9.17264 9.72578 7.47536 9.72917 5.73014V5.32181C9.29167 5.11764 8.79583 5.00098 8.27083 5.00098ZM27.2292 5.00098C26.7042 5.00098 26.2083 5.11764 25.7708 5.32181V5.73014C25.7708 7.48014 25.2021 9.17181 24.1375 10.5572C24.3125 10.8343 24.5021 11.0531 24.7208 11.2718C25.3934 11.9238 26.2925 12.2897 27.2292 12.2926C27.8708 12.2926 28.4688 12.1176 28.9937 11.826C30.1021 11.1989 30.875 10.0176 30.875 8.64681C30.875 7.67987 30.4909 6.75254 29.8072 6.06882C29.1234 5.38509 28.1961 5.00098 27.2292 5.00098ZM17.75 13.751C14.3375 13.751 7.54167 15.4572 7.54167 18.8551V21.0426H27.9583V18.8551C27.9583 15.4572 21.1625 13.751 17.75 13.751ZM7.11875 14.5531C4.30417 14.8885 0.25 16.3176 0.25 18.8551V21.0426H4.625V18.2281C4.625 16.7551 5.63125 15.5301 7.11875 14.5531ZM28.3813 14.5531C29.8688 15.5301 30.875 16.7551 30.875 18.2281V21.0426H35.25V18.8551C35.25 16.3176 31.1958 14.8885 28.3813 14.5531ZM17.75 16.6676C19.9813 16.6676 22.475 17.3968 23.9188 18.126H11.5813C13.025 17.3968 15.5188 16.6676 17.75 16.6676Z" />
</svg>
