<svg width="100%" fill="none" xmlns="http://www.w3.org/2000/svg">
<path d="M0 0H3.5V31.5H35V35H0V0Z" fill="#53D4B1"/>
<path d="M21 21C22.925 21 24.5 22.575 24.5 24.5C24.5 26.425 22.925 28 21 28C19.075 28 17.5 26.425 17.5 24.5C17.5 22.575 19.075 21 21 21ZM21 10.5C22.925 10.5 24.5 12.075 24.5 14C24.5 15.925 22.925 17.5 21 17.5C19.075 17.5 17.5 15.925 17.5 14C17.5 12.075 19.075 10.5 21 10.5ZM21 0C22.925 0 24.5 1.575 24.5 3.5C24.5 5.425 22.925 7 21 7C19.075 7 17.5 5.425 17.5 3.5C17.5 1.575 19.075 0 21 0ZM10.5 21C12.425 21 14 22.575 14 24.5C14 26.425 12.425 28 10.5 28C8.575 28 7 26.425 7 24.5C7 22.575 8.575 21 10.5 21ZM10.5 10.5C12.425 10.5 14 12.075 14 14C14 15.925 12.425 17.5 10.5 17.5C8.575 17.5 7 15.925 7 14C7 12.075 8.575 10.5 10.5 10.5ZM10.5 0C12.425 0 14 1.575 14 3.5C14 5.425 12.425 7 10.5 7C8.575 7 7 5.425 7 3.5C7 1.575 8.575 0 10.5 0ZM31.5 21C33.425 21 35 22.575 35 24.5C35 26.425 33.425 28 31.5 28C29.575 28 28 26.425 28 24.5C28 22.575 29.575 21 31.5 21ZM31.5 10.5C33.425 10.5 35 12.075 35 14C35 15.925 33.425 17.5 31.5 17.5C29.575 17.5 28 15.925 28 14C28 12.075 29.575 10.5 31.5 10.5ZM31.5 0C33.425 0 35 1.575 35 3.5C35 5.425 33.425 7 31.5 7C29.575 7 28 5.425 28 3.5C28 1.575 29.575 0 31.5 0Z" fill="#53D4B1"/>
</svg>
