<svg width="35" height="27" viewBox="0 0 35 27" fill="#53D4B1" xmlns="http://www.w3.org/2000/svg">
<path d="M6.36364 18.2725L5.40909 17.477C2.22727 14.4543 0 12.5452 0 10.1588C0 8.24973 1.59091 6.65882 3.5 6.65882C4.61364 6.65882 5.72727 7.1361 6.36364 7.93155C7 7.1361 8.11364 6.65882 9.22727 6.65882C11.1364 6.65882 12.7273 8.09064 12.7273 10.1588C12.7273 12.5452 10.5 14.4543 7.31818 17.477L6.36364 18.2725ZM22.2727 0.772461C20.585 0.772461 18.9664 1.44291 17.773 2.63633C16.5795 3.82974 15.9091 5.44836 15.9091 7.1361C15.9091 8.82384 16.5795 10.4425 17.773 11.6359C18.9664 12.8293 20.585 13.4997 22.2727 13.4997C23.9605 13.4997 25.5791 12.8293 26.7725 11.6359C27.9659 10.4425 28.6364 8.82384 28.6364 7.1361C28.6364 5.44836 27.9659 3.82974 26.7725 2.63633C25.5791 1.44291 23.9605 0.772461 22.2727 0.772461ZM22.2727 10.477C21.3867 10.477 20.5369 10.125 19.9103 9.49848C19.2838 8.87193 18.9318 8.02216 18.9318 7.1361C18.9318 6.25003 19.2838 5.40026 19.9103 4.77372C20.5369 4.14718 21.3867 3.79519 22.2727 3.79519C22.7115 3.79519 23.1459 3.8816 23.5512 4.0495C23.9566 4.2174 24.3249 4.46349 24.6351 4.77372C24.9453 5.08395 25.1914 5.45225 25.3593 5.85759C25.5272 6.26292 25.6136 6.69736 25.6136 7.1361C25.6136 7.57483 25.5272 8.00927 25.3593 8.41461C25.1914 8.81995 24.9453 9.18824 24.6351 9.49848C24.3249 9.80871 23.9566 10.0548 23.5512 10.2227C23.1459 10.3906 22.7115 10.477 22.2727 10.477ZM22.2727 15.0906C18.025 15.0906 9.54545 17.2066 9.54545 21.4543V26.227H35V21.4543C35 17.2066 26.5205 15.0906 22.2727 15.0906ZM31.9773 23.2043H12.5682V21.4543C12.5682 20.4361 17.5 18.1134 22.2727 18.1134C26.9977 18.1134 31.9773 20.4361 31.9773 21.4543V23.2043Z"/>
</svg>
